<svg id="Ebene_1" data-name="Ebene 1" xmlns="http://www.w3.org/2000/svg" xmlns:xlink="http://www.w3.org/1999/xlink" viewBox="0 0 60.52 28.24"><defs><style>.cls-1{fill:none;}.cls-2{clip-path:url(#clip-path);}.cls-3{fill:#848484;}</style><clipPath id="clip-path"><rect class="cls-1" width="60.52" height="28.24"/></clipPath></defs><g class="cls-2"><path class="cls-3" d="M15.87,7.51c-.71,0-.86,1-.86,1.76v.34h1.7c-.05-1.16-.11-2.1-.84-2.1"/><path class="cls-3" d="M49.53,22.77c-.41,0-.67.42-.67,1s.27.92.65.92a.64.64,0,0,0,.52-.3v-.93c0-.41-.18-.65-.5-.65"/><path class="cls-3" d="M34.8,22.78c-.29,0-.5.23-.55.61h1c0-.35-.15-.61-.45-.61"/><path class="cls-3" d="M44.09,24.34a.29.29,0,0,0,.31.31.64.64,0,0,0,.46-.27V23.8l-.33.12c-.26.11-.44.21-.44.42"/><path class="cls-3" d="M37.12,22.77c-.41,0-.67.42-.67,1s.27.92.65.92a.66.66,0,0,0,.52-.3v-.93c0-.41-.18-.65-.5-.65"/><path class="cls-3" d="M43.79,18.76l-.33.13c-.26.1-.44.2-.44.42a.29.29,0,0,0,.31.31.68.68,0,0,0,.46-.27Z"/><path class="cls-3" d="M57.21,19.88h-1v-.1c.24,0,.28-.09.28-.37v-1c0-.34-.18-.5-.41-.5a.73.73,0,0,0-.54.31v1.22c0,.28.05.34.28.37v.1h-1v-.1c.26,0,.3-.09.3-.37V18.17c0-.23-.08-.28-.33-.29v-.09l.76-.19h0V18h0a.86.86,0,0,1,.71-.43c.38,0,.68.26.68.8v1c0,.28,0,.34.29.37Zm-1.63,5h-1v-.09c.24,0,.28-.09.28-.37v-1c0-.34-.18-.5-.41-.5a.7.7,0,0,0-.54.31v1.22c0,.28,0,.34.29.37v.09h-1v-.09c.26,0,.3-.09.3-.37V23.21c0-.23-.08-.29-.33-.3v-.09l.76-.18h0V23h0a.86.86,0,0,1,.71-.43c.38,0,.68.25.68.8v1c0,.28,0,.34.29.37ZM52,25A1.09,1.09,0,0,1,51,23.8a1.11,1.11,0,0,1,1-1.19.79.79,0,0,1,.87.84v.1H51.39v.06c0,.65.34,1,.82,1a.9.9,0,0,0,.68-.27l.08.07A1.1,1.1,0,0,1,52,25m-2-6.12a1.18,1.18,0,0,1,1.14-1.28,1.1,1.1,0,0,1,.48.12h0V17c0-.24-.07-.29-.33-.3v-.09l.77-.18h0v2.85c0,.24,0,.3.3.31v.09l-.73.19h0v-.4h0a.82.82,0,0,1-.72.42c-.49,0-.89-.4-.89-1.08m.76,5.91-.73.19h0v-.4h0a.84.84,0,0,1-.73.42c-.48,0-.88-.4-.88-1.09a1.18,1.18,0,0,1,1.14-1.27,1.07,1.07,0,0,1,.48.12h0v-.66c0-.23-.07-.28-.33-.29v-.09l.77-.19h0v2.86c0,.23,0,.3.3.31Zm-2.55.15h-1v-.09c.24,0,.28-.09.28-.37v-1c0-.34-.17-.5-.41-.5a.68.68,0,0,0-.53.31v1.22c0,.28,0,.34.28.37v.09h-1v-.09c.26,0,.3-.09.3-.37V23.21c0-.23-.07-.29-.33-.3v-.09l.77-.18h0V23h0a.83.83,0,0,1,.7-.43c.39,0,.68.25.68.8v1c0,.28,0,.34.29.37Zm-3,.06a.36.36,0,0,1-.38-.39v0h0a.82.82,0,0,1-.69.41.5.5,0,0,1-.52-.52c0-.35.3-.5.77-.65l.46-.14v-.23c0-.35-.18-.52-.48-.52a1.06,1.06,0,0,0-.66.26l-.07-.09a1.35,1.35,0,0,1,.92-.47.71.71,0,0,1,.74.81v1.1c0,.16.07.23.17.23a.35.35,0,0,0,.18-.06l.05.08a.69.69,0,0,1-.47.2m-2.16-5a.5.5,0,0,1-.52-.52c0-.34.3-.5.77-.64l.46-.15v-.23c0-.35-.18-.51-.48-.51a1.13,1.13,0,0,0-.66.25l-.07-.08a1.32,1.32,0,0,1,.92-.48c.42,0,.74.25.74.82v1.1c0,.16.07.22.18.22a.32.32,0,0,0,.18-.06l0,.08a.69.69,0,0,1-.47.2.36.36,0,0,1-.38-.38v0h0a.8.8,0,0,1-.69.41m.36,5h-1v-.09c.26,0,.29-.09.29-.37V22.08c0-.24-.07-.29-.33-.3v-.09l.77-.19h0v2.95c0,.28,0,.34.29.37Zm-1.13-1.82a.6.6,0,0,0-.2,0c-.27,0-.5.17-.64.57v.83c0,.28.05.33.33.36v.09H40.72v-.09c.26,0,.3-.08.3-.36V23.21c0-.23-.07-.29-.33-.3v-.09l.76-.18h0v.71h0c.14-.56.37-.74.65-.74a.41.41,0,0,1,.16,0ZM39.62,25a1.09,1.09,0,0,1-1.08-1.17,1.11,1.11,0,0,1,1.05-1.19.79.79,0,0,1,.87.84v.1H39v.06c0,.65.34,1,.82,1a.9.9,0,0,0,.68-.27l.08.07a1.1,1.1,0,0,1-.94.58m-1.24-.21-.74.19h0v-.4h0a.86.86,0,0,1-.73.42c-.48,0-.88-.4-.88-1.09a1.18,1.18,0,0,1,1.13-1.27,1,1,0,0,1,.48.12h0v-.66c0-.23-.07-.28-.33-.29v-.09l.77-.19h0v2.86c0,.23,0,.3.3.31ZM34.87,25a1.09,1.09,0,0,1-1.08-1.17,1.11,1.11,0,0,1,1.06-1.19.79.79,0,0,1,.86.84v.1H34.23v.06c0,.65.34,1,.82,1a.89.89,0,0,0,.68-.27l.08.07a1.09,1.09,0,0,1-.94.58m-1.76-5c-.34,0-.62-.23-.62-.74V18.1c0-.27-.05-.34-.32-.38v-.09H33v1.55c0,.31.15.45.36.45a.65.65,0,0,0,.5-.32V18.1c0-.27-.06-.35-.3-.38v-.09h.76v1.7c0,.24,0,.29.3.3v.09l-.74.19h0v-.4h0a.83.83,0,0,1-.68.42m-.34,2a.31.31,0,1,1,.31.31.3.3,0,0,1-.31-.31m.84,3h-1v-.09c.27,0,.3-.09.3-.37V23.21c0-.23-.07-.29-.33-.3v-.09l.76-.18h0v1.81c0,.28,0,.34.29.37ZM32.43,21.7c-.36,0-.45.1-.45.48v2.76h-.17l-2-2.7h0v2.09c0,.37.08.45.44.49v.09H29.11v-.09c.36,0,.45-.12.45-.49V22l-.34-.42v0H30L31.77,24h0V22.18c0-.38-.09-.45-.45-.48v-.1h1.09ZM28.69,11.06a1.28,1.28,0,0,0-.94,1.42,1.93,1.93,0,0,0,.17.94H26.21a3.89,3.89,0,0,1-.05-.68,2.69,2.69,0,0,1,.9-2.38,7,7,0,0,1,1.68-.74c.5-.17.66-.45.66-1s-.21-1.07-.77-1.07-.77.51-.77,1.15V8.9H26.37V8.69C26.37,7,27.09,6,28.64,6,30.43,6,31,6.85,31,8.67v4.75H29a1.59,1.59,0,0,0,.36-1.06V10.61a1.62,1.62,0,0,1-.71.45M26,25H24.37V20.54c0-.73-.11-1.24-.71-1.24s-.88.5-.88,1.47V25H21.12V14.74h1.66v4h0a1.63,1.63,0,0,1,1.57-1.14c1.29,0,1.65,1.11,1.65,2.52ZM18.85,13.42a6.79,6.79,0,0,1-.08-1.34h1.49a2.2,2.2,0,0,0,.23,1.28l0,.06Zm0,7.57c0-.84-.11-1.79-.75-1.79-1,0-.95,1.72-.95,3.05A7.07,7.07,0,0,0,17.51,25H15.8a10.78,10.78,0,0,1-.28-2.8c0-2.76.59-4.68,2.63-4.68,1.68,0,2.32,1.55,2.32,3.44Zm1.39,4H18.6a4,4,0,0,0,.28-1.76h1.59a7.48,7.48,0,0,1-.2,1.76m-2-12.95A4.92,4.92,0,0,1,18,13.42H16.44a4.13,4.13,0,0,0,.31-1.34Zm-4.67,1.34a13,13,0,0,1-.22-2.88c0-2.69.47-4.59,2.58-4.59,1.95,0,2.37,1.85,2.37,4.5V11H15a5.29,5.29,0,0,0,.27,2.45Zm1.32,11.52V25h-2A1.59,1.59,0,0,0,13.3,24V22.21a1.53,1.53,0,0,1-.71.45,1.29,1.29,0,0,0-.94,1.43,2.08,2.08,0,0,0,.17.94H10.11a4,4,0,0,1,0-.69A2.72,2.72,0,0,1,11,22a7.56,7.56,0,0,1,1.68-.73c.5-.18.66-.46.66-1s-.21-1.08-.77-1.08-.77.51-.77,1.15v.25H10.27v-.22c0-1.68.72-2.74,2.27-2.74,1.79,0,2.35.9,2.35,2.73ZM9.41,25H7.75V14.74H9.41ZM7.27,16.31h-.8c-.46,0-.64.2-.64.7v.78H7.27v1.55H5.83V25H4.17v-5.7H3.33V17.78h.84v-1c0-1.43.52-2.11,1.73-2.11.3,0,1.07,0,1.37,0ZM5.79,7.51C5.24,7.51,5,8,5,8.66V8.9H3.53V8.69C3.53,7,4.25,6,5.81,6c1.79,0,2.34.9,2.34,2.72v4.75H6.2a1.59,1.59,0,0,0,.36-1.06V10.61a1.51,1.51,0,0,1-.71.45,1.28,1.28,0,0,0-.94,1.42,2.05,2.05,0,0,0,.17.94H3.38a3.89,3.89,0,0,1,0-.68,2.69,2.69,0,0,1,.9-2.38A6.8,6.8,0,0,1,5.9,9.62c.51-.17.66-.45.66-1s-.2-1.07-.77-1.07m3-4.36h1.66V13.42H8.76Zm2.31,0h1.66V13.42H11.07ZM21.2,5.94c1.53,0,2.21.95,2.21,2.52v.37H21.92c0-.84-.13-1.33-.73-1.33s-.78.39-.78.95a1,1,0,0,0,.72,1l1,.45a2.38,2.38,0,0,1,1.44,2.53,3.9,3.9,0,0,1-.1.95h-1.7a1.15,1.15,0,0,0,.21-.76,1.05,1.05,0,0,0-.6-1l-1.17-.57a2.47,2.47,0,0,1-1.38-2.47c0-1.63.86-2.67,2.38-2.67m9.92,10.63H32.3v.09a1.46,1.46,0,0,0-.91.52l-.83.82,1.81,1.86v0h-.7l-1.45-1.54-.15.15v.81c0,.38.09.45.45.48v.1h-1.4v-.1c.36,0,.45-.1.45-.48V17.14c0-.37-.09-.45-.45-.48v-.09h1.4v.09c-.36,0-.45.11-.45.48v1.09h0l1.14-1.14c.22-.22.27-.38-.11-.43Zm.53-10.39h1.66v4.31c0,.89,0,2.7.47,2.93H32a11.66,11.66,0,0,1-.31-2.93Zm3,10.56v-.09l.77-.18h0v2.94c0,.28,0,.34.3.37v.1h-1v-.1c.26,0,.29-.09.29-.37V17c0-.23-.07-.29-.33-.3m.43-6.25V6.18h1.66v7.24H34.62c.43-.41.47-1.85.47-2.93M37,19.7a.7.7,0,0,0,.36-.1l.06.08a.89.89,0,0,1-.61.25.52.52,0,0,1-.56-.58V17.81h-.44V17.7A1,1,0,0,0,36.5,17h.16v.59h.67v.18h-.67v1.54c0,.25.1.35.29.35m.42-2.07h.77v1.55c0,.31.15.45.36.45a.69.69,0,0,0,.51-.32V18.1c0-.27-.07-.35-.31-.38v-.09h.76v1.7c0,.24.06.29.3.3v.09l-.73.19h0v-.4h0a.86.86,0,0,1-.69.42c-.33,0-.61-.23-.61-.74V18.1c0-.27-.06-.34-.32-.38ZM41,19.78v.1H39.93v-.1c.26,0,.3-.08.3-.36V18.18c0-.24-.07-.29-.33-.3v-.09l.77-.19h0v.72h0c.15-.56.37-.75.65-.75a.43.43,0,0,1,.17,0v.46a.65.65,0,0,0-.2,0c-.27,0-.5.17-.64.57v.83c0,.29,0,.33.33.36m-3.6-13.4A4.09,4.09,0,0,1,38,3.86,2.32,2.32,0,0,1,40,3.08a2.2,2.2,0,0,1,1.76.71,3.08,3.08,0,0,1,.61,2.1,6.68,6.68,0,0,1-.05.82,3.19,3.19,0,0,1-.16.66,2.28,2.28,0,0,1-.34.53,2.19,2.19,0,0,1-.52.41v0a1.44,1.44,0,0,1,1,1,6.15,6.15,0,0,1,.32,2.16,11,11,0,0,1-.09,1.25,3.46,3.46,0,0,1-.13.67H40.47a1.25,1.25,0,0,0,.29-.45,3.2,3.2,0,0,0,.15-.76c0-.29,0-.64,0-1a4.18,4.18,0,0,0-.21-1.46A.74.74,0,0,0,40,9.21h-.3V7.66h.2a.62.62,0,0,0,.61-.43,3,3,0,0,0,.18-1.13,4.56,4.56,0,0,0,0-.55,1.62,1.62,0,0,0-.14-.47.69.69,0,0,0-.24-.33.52.52,0,0,0-.38-.13.63.63,0,0,0-.65.51,4.3,4.3,0,0,0-.16,1.3v7H37.42ZM45.76,6c2,0,2.37,1.85,2.37,4.5V11H44.85a5.34,5.34,0,0,0,.26,2.45H43.4a13,13,0,0,1-.21-2.88c0-2.69.46-4.59,2.57-4.59m.52,7.47a4.45,4.45,0,0,0,.3-1.34h1.49a4.92,4.92,0,0,1-.24,1.34Zm0,6.09a.86.86,0,0,1-.69.42c-.33,0-.61-.23-.61-.74V18.1c0-.27-.06-.34-.32-.38v-.09h.77v1.55c0,.31.15.45.36.45a.69.69,0,0,0,.51-.32V18.1c0-.27-.06-.35-.31-.38v-.09h.76v1.7c0,.24.06.29.3.3v.09l-.73.19h0v-.4ZM48,18.44l.36.16a.66.66,0,0,1,.44.62.74.74,0,0,1-.81.71,1.31,1.31,0,0,1-.7-.19v-.56h.09c.14.4.35.58.64.58s.43-.12.43-.34-.09-.24-.34-.36l-.35-.17a.67.67,0,0,1-.45-.62.74.74,0,0,1,.81-.7,1.49,1.49,0,0,1,.62.14v.54h-.09c-.1-.34-.29-.5-.58-.5s-.41.12-.41.32.1.26.34.37m.82-12.26h1.59V7.36h0c.34-.86.81-1.42,1.49-1.42a.88.88,0,0,1,.3,0V8.16a3,3,0,0,0-.52,0c-.79,0-1.22.67-1.22,1.59v3.71H48.79Zm4.84,11.39a.8.8,0,0,1,.87.84v.1H53v.06c0,.65.34,1,.82,1a.91.91,0,0,0,.68-.28l.08.07a1.07,1.07,0,0,1-.94.58,1.08,1.08,0,0,1-1.08-1.17,1.11,1.11,0,0,1,1.05-1.19M0,28.24H60.52V0H0Z"/><path class="cls-3" d="M39.55,22.78c-.29,0-.5.23-.56.61h1c0-.35-.16-.61-.45-.61"/><path class="cls-3" d="M52,22.78c-.29,0-.5.23-.56.61h1c0-.35-.15-.61-.45-.61"/><path class="cls-3" d="M45.7,7.51c-.71,0-.85,1-.85,1.76v.34h1.69c0-1.16-.11-2.1-.84-2.1"/><path class="cls-3" d="M51.66,19.31v-.93c0-.41-.18-.65-.5-.65s-.67.43-.67,1,.27.92.65.92a.65.65,0,0,0,.52-.31"/><path class="cls-3" d="M53.59,17.74c-.29,0-.5.23-.56.62h1c0-.36-.15-.62-.45-.62"/></g></svg>