<svg id="Ebene_1" data-name="Ebene 1" xmlns="http://www.w3.org/2000/svg" xmlns:xlink="http://www.w3.org/1999/xlink" viewBox="0 0 628.3 443.74"><defs><style>.cls-1{fill:#858584;}.cls-2{fill:url(#Unbenannter_Verlauf_39);}</style><linearGradient id="Unbenannter_Verlauf_39" x1="314.15" y1="443.74" x2="314.15" y2="54.41" gradientUnits="userSpaceOnUse"><stop offset="0.07" stop-color="#858584"/><stop offset="0.31" stop-color="#b8b8b7"/><stop offset="0.43" stop-color="#d3d3d2"/><stop offset="0.44" stop-color="#d2d2d1"/><stop offset="0.59" stop-color="#b0b0af"/><stop offset="0.74" stop-color="#989897"/><stop offset="0.88" stop-color="#8a8a89"/><stop offset="1" stop-color="#858584"/></linearGradient></defs><path class="cls-1" d="M550.61,51.1V66.34H540.36Zm0,19.36v8.05h5.22V70.46h5.65l1.06-4.12h-6.71V44.49h-4.12l-17.63,26Zm-19.16-1.53c-1.54,3.35-3.64,4.83-6.9,4.83h-9.78a43.2,43.2,0,0,1,5.85-4.88l2.06-1.49c5.17-3.73,9.44-6.94,9.44-13.08a9.76,9.76,0,0,0-10.21-10.2c-6.66,0-10.68,5-11.3,11.54l2.87.91c1.1-5.74,3.93-8.43,7.28-8.43s5.7,2.78,5.7,6.9-2.15,6.85-6.13,10.16l-1.91,1.58a52.52,52.52,0,0,0-8.58,8.29v3.45h14c2.54,0,3.88.86,3.88,2.73h2.11l3.83-12.31Zm-37.32,7.28c-5.56,0-6-6.61-6-14.47s.48-14.47,6-14.47S500,54,500,61.74s-.48,14.47-5.89,14.47m0,3.16c6.42,0,12.32-7.76,12.32-17.63s-5.9-17.63-12.32-17.63S481.62,52,481.62,61.74s6,17.63,12.55,17.63M476.11,68.93c-1.53,3.35-3.64,4.83-6.89,4.83h-9.78a42.59,42.59,0,0,1,5.85-4.88l2.06-1.49c5.17-3.73,9.43-6.94,9.43-13.08a9.75,9.75,0,0,0-10.2-10.2c-6.66,0-10.68,5-11.31,11.54l2.88.91c1.1-5.74,3.93-8.43,7.28-8.43s5.7,2.78,5.7,6.9S469,61.88,465,65.19l-1.92,1.58a52.89,52.89,0,0,0-8.57,8.29v3.45h14c2.54,0,3.88.86,3.88,2.73h2.1l3.84-12.31Zm-28.74,10.3a3.76,3.76,0,0,0,3.74-3.79,3.72,3.72,0,0,0-3.74-3.74,3.76,3.76,0,0,0-3.79,3.74,3.8,3.8,0,0,0,3.79,3.79M438,68.93c-1.54,3.35-3.64,4.83-6.9,4.83h-9.77a42.48,42.48,0,0,1,5.84-4.88l2.06-1.49c5.17-3.73,9.44-6.94,9.44-13.08a9.76,9.76,0,0,0-10.21-10.2c-6.66,0-10.68,5-11.3,11.54l2.87.91c1.1-5.74,3.93-8.43,7.28-8.43s5.71,2.78,5.71,6.9-2.16,6.85-6.14,10.16L425,66.77a52.52,52.52,0,0,0-8.58,8.29v3.45h14c2.54,0,3.88.86,3.88,2.73h2.11l3.83-12.31Zm-28.75,10.3A3.76,3.76,0,0,0,413,75.44a3.76,3.76,0,0,0-7.52,0,3.79,3.79,0,0,0,3.78,3.79m-9.34-10.3c-1.53,3.35-3.64,4.83-6.9,4.83h-9.77a42.48,42.48,0,0,1,5.84-4.88l2.06-1.49c5.18-3.73,9.44-6.94,9.44-13.08a9.75,9.75,0,0,0-10.2-10.2c-6.66,0-10.69,5-11.31,11.54l2.88.91c1.1-5.74,3.92-8.43,7.28-8.43S395,50.91,395,55s-2.16,6.85-6.13,10.16l-1.92,1.58a52.92,52.92,0,0,0-8.58,8.29v3.45h14c2.54,0,3.88.86,3.88,2.73h2.11l3.84-12.31ZM369.81,44.49h-2.4a10.49,10.49,0,0,1-10,6.57v2.73h5.13c1.19,0,2.1.52,2.1,1.91V72.37c0,3.17-4.12,3.41-6,3.41v2.73h17.1V75.78c-1.87,0-5.94-.24-5.94-3.41Zm-29.27-.72h-2.35c-1.25,2.49-3.26,3.74-6.95,3.74v2.3c2.21,0,4.31.72,4.31,3.21V73.86c0,2.25-3.49,2.25-4.55,2.25v2.4h14.09v-2.4c-1.06,0-4.55,0-4.55-2.25Zm-13.85,8.87h-2.35c-1.15,1.91-2.73,3.59-6.94,3.59v2.3c2.06,0,4.31.62,4.31,3.07V73.86c0,2.25-3.5,2.25-4.55,2.25v2.4h14.08v-2.4c-1.05,0-4.55,0-4.55-2.25Zm-2.63-2.78a3.75,3.75,0,0,0,3.69-3.79,3.74,3.74,0,0,0-7.48,0,3.77,3.77,0,0,0,3.79,3.79M301.64,57V72.42c0,5.61,3,7,5.89,7s5.7-1.25,9.48-4.89l-1.34-1.77c-2.82,2-4.45,2.54-6,2.54-2.29,0-3.06-1.34-3.06-4.41V57h8.57V53.83h-8.57V45h-2.4c-.81,5.56-3.16,9.2-7.85,9.53V57Zm-9,1.44c0-3.17-1.44-5.27-4.36-5.27A14.37,14.37,0,0,0,283,54.55l-5.84,2.64V52.64h-2.35c-1.15,1.91-2.73,3.59-6.95,3.59v2.3c2.06,0,4.32.62,4.32,3.07V73.91c-.05,2.15-3.17,2.2-4.32,2.2v2.4h13.61v-2.4c-1.05,0-4.31,0-4.31-2.25V60.25l4.79-1.91a9.29,9.29,0,0,1,3.26-.77c1.48,0,2.54.82,2.54,3V73.86c0,2.25-3.26,2.25-4.32,2.25v2.4H297v-2.4c-1.05,0-4.31,0-4.31-2.25Zm-29.85-5.75h-2.35c-1.15,1.91-2.73,3.59-6.94,3.59v2.3c2.06,0,4.31.62,4.31,3.07V72.09l-2.2,1.15c-2.83,1.48-4.41,1.87-5.51,1.87-2.21,0-2.4-1.54-2.4-3.6V52.64h-2.35c-1.15,1.91-2.73,3.59-6.94,3.59v2.3c2.06,0,4.31.62,4.31,3.07v13c0,3.64,2,4.74,4.6,4.74A11.78,11.78,0,0,0,253,77.69l4.84-2.54v4.22l9-.86v-2.4c-2.06,0-4,0-4-2.25Z"/><path class="cls-1" d="M474.71,37.8l.29-1.58c.14-.72.57-.91.95-.91,1.2,0,3.21,1.53,6.9,1.53,5.37,0,8.63-3.16,8.63-8.1,0-4.36-2.59-7-7-7.52l-4.65-.57c-3-.39-5-.86-5-3.26s2.21-3.74,4.65-3.74c2.87,0,6.08,1.68,8.58,5.51h2.39L487.6,9.63h-2l-.43,1.2c-.24.62-.57.86-1.1.86-1,0-2.63-.77-5-.77-4.26,0-8.38,2.49-8.38,7.62,0,4.7,3.3,6.71,7.37,7.19l4.75.57c3,.38,4.55,1.44,4.55,3.83s-1.77,4-4.65,4c-3.69,0-7.42-2.4-10.92-7.23h-2.4l3.12,10.92ZM464.22,16.05c0-3.16-1.44-5.27-4.36-5.27a14.21,14.21,0,0,0-5.37,1.44l-5.84,2.63V10.3H446.3c-1.15,1.92-2.73,3.59-6.95,3.59v2.3c2.06,0,4.32.63,4.32,3.07V31.57c-.05,2.16-3.17,2.2-4.32,2.2v2.4H453v-2.4c-1,0-4.31,0-4.31-2.25V17.92L453.44,16a9.29,9.29,0,0,1,3.26-.77c1.48,0,2.54.82,2.54,3V31.52c0,2.25-3.26,2.25-4.32,2.25v2.4h13.61v-2.4c-1,0-4.31,0-4.31-2.25ZM424.45,34.3c-4.69,0-6.61-3.93-6.61-10.4s1.92-10.53,6.61-10.53,6.62,4.12,6.62,10.53-1.92,10.4-6.62,10.4m0,2.73A12.87,12.87,0,0,0,437.29,23.9a12.84,12.84,0,1,0-25.67,0A12.87,12.87,0,0,0,424.45,37M406,10.3h-2.35c-1.15,1.92-2.73,3.59-6.94,3.59v2.3c2.06,0,4.31.63,4.31,3.07V31.52c0,2.25-3.5,2.25-4.55,2.25v2.4h14.08v-2.4c-1.05,0-4.55,0-4.55-2.25Zm-2.63-2.78a3.74,3.74,0,0,0,3.68-3.78,3.74,3.74,0,1,0-7.47,0,3.77,3.77,0,0,0,3.79,3.78M381,14.61V30.09c0,5.6,3,6.94,5.9,6.94s5.7-1.24,9.48-4.88L395,30.37c-2.82,2-4.45,2.54-6,2.54-2.3,0-3.06-1.34-3.06-4.4V14.61h8.57V11.5h-8.57V2.63h-2.4c-.81,5.56-3.16,9.2-7.85,9.54v2.44ZM356.86,30c0-3.69,4.36-4.94,9.82-5.37v5.94a9,9,0,0,1-6.09,2.69c-2.25,0-3.73-1.11-3.73-3.26M375.45,30c-.67,2.68-1.63,3.21-2.45,3.21s-1.34-.53-1.34-2V17.44c0-4.79-2.39-6.8-7.81-6.8-5.79,0-12,2.2-12,7,0,2.2,1.29,3.73,3.35,3.73a2.78,2.78,0,0,0,3.07-2.68c0-1.15-.63-1.91-.63-2.78,0-1.72,2.45-2.58,5-2.58,3.17,0,4,1.29,4,4.79v3.78c-7.57.48-15.52,2.3-15.52,8.86,0,3.88,2.73,6.23,7.14,6.23A13.45,13.45,0,0,0,367,33.68a4.42,4.42,0,0,0,4.7,3.35c3.64,0,5.13-2.49,5.84-6.66Zm-36.51,7a13.75,13.75,0,0,0,9.68-3.64l-1.34-2a11.3,11.3,0,0,1-6,1.72c-6.47,0-9.68-5.08-9.68-11.45,0-4.79,1.82-8.33,5.8-8.33,3.07,0,3.74,2.1,4.31,4.16s1.15,3.74,3.5,3.74a3.17,3.17,0,0,0,3.35-3.45c0-4.31-5.22-7.18-10.35-7.18-7.37,0-12.12,5.94-12.12,13.31,0,7.62,5.23,13.08,12.89,13.08M320.4,10.3h-2.35c-1.15,1.92-2.73,3.59-6.94,3.59v2.3c2.06,0,4.31.63,4.31,3.07V31.52c0,2.25-3.5,2.25-4.55,2.25v2.4H325v-2.4c-1.05,0-4.55,0-4.55-2.25Zm-2.63-2.78a3.74,3.74,0,0,0,3.68-3.78,3.74,3.74,0,1,0-7.47,0,3.77,3.77,0,0,0,3.79,3.78M305.69,1.44h-2.34c-1.25,2.49-3.26,3.73-7,3.73v2.3c2.2,0,4.31.72,4.31,3.21V31.52c0,2.25-3.5,2.25-4.55,2.25v2.4h14.08v-2.4c-1.05,0-4.55,0-4.55-2.25ZM282.6,34.35A9.79,9.79,0,0,1,277,32.24V17.77c2.59-1.58,4.93-2.54,6.51-2.54,3.17,0,5.9,3.74,5.9,9.3,0,5.36-2.49,9.82-6.76,9.82m3.6-23.57c-2,0-4.27,1.2-9.25,4V10.3H274.6c-1.15,1.92-2.73,3.59-7,3.59v2.3c2.06,0,4.32.63,4.32,3.07V41.1c0,2.26-3.26,2.26-4.32,2.26v2.39h13.61V43.36c-1.05,0-4.31,0-4.31-2.26V35.69A15.94,15.94,0,0,0,283.13,37C289,37,294.87,33,294.87,23.57c0-8.53-5.23-12.79-8.67-12.79M253.91,34.35a9.79,9.79,0,0,1-5.66-2.11V17.77c2.59-1.58,4.94-2.54,6.52-2.54,3.16,0,5.89,3.74,5.89,9.3,0,5.36-2.49,9.82-6.75,9.82m3.59-23.57c-2,0-4.27,1.2-9.25,4V10.3h-2.34c-1.15,1.92-2.74,3.59-6.95,3.59v2.3c2.06,0,4.31.63,4.31,3.07V41.1c0,2.26-3.26,2.26-4.31,2.26v2.39h13.6V43.36c-1.05,0-4.31,0-4.31-2.26V35.69A15.94,15.94,0,0,0,254.43,37c5.9,0,11.74-4.07,11.74-13.46,0-8.53-5.22-12.79-8.67-12.79m-36.7-2.3L225.11,21h-8.67Zm18.45,25c-2.88,0-3.79-1-4.7-3.4L224.2,1.77h-4L210.5,28.89c-1.24,3.45-2.73,4.55-5.56,4.55h-1v2.73h14.42V33.44h-1.15c-3.45,0-4.6-1.2-3.6-4.12l1.92-5.56h10.54l2,5.8c1.06,3.11-.28,3.88-2.82,3.88h-1.78v2.73h16.58V33.44Z"/><path class="cls-2" d="M617.14,308.1v11.4c0,24.09-22.65,34.24-64,34.24H511.25C430.8,354.41,417,403.9,417,403.9v0s-13.78-49.49-94.23-50.16H280.94c-41.41,0-64.06-10.15-64.06-34.24v-3.76c.58-35.49,32.8-42.15,72.59-42.15H342.7c75.23,0,79.88-43.52,79.88-76.49v-7h0c0-36.34,32.46-43.11,72.61-43.11h53.24c75.23,0,79.87-43.52,79.87-76.49v-16H617.14V65.82c0,24.08-22.65,34.23-64,34.23H511.25c-80.45.67-94.23,50.16-94.23,50.16v0s-13.78-49.49-94.23-50.16H280.94c-41.41,0-64.06-10.15-64.06-34.23V54.41H205.73v16c0,33,4.64,76.49,79.87,76.49h53.23c39.73,0,71.91,6.64,72.59,42v3.52c0,24.09-22.65,34.23-64.06,34.23H305.53c-80.46.68-94.23,50.17-94.23,50.17v.22l0-.22s-13.78-49.49-94.23-50.17H75.21c-41.4,0-64-10.14-64-34.23V181H0V197.1c0,33,4.64,76.49,79.87,76.49h53.24c40.15,0,72.61,6.76,72.61,43.1h0v7.46c0,33,4.64,76.49,79.87,76.49h53.23c40.15,0,72.62,6.76,72.62,43.1h11.13c0-36.34,32.46-43.1,72.61-43.1h53.24c75.23,0,79.87-43.52,79.87-76.49v-16Z"/></svg>