<?xml version="1.0" encoding="UTF-8"?>
<svg id="b" data-name="Ebene 2" xmlns="http://www.w3.org/2000/svg" viewBox="0 0 621.372 433.03">
  <g id="c" data-name="Ebene 1">
    <g>
      <path d="m610.337,298.88v11.28c0,23.82-22.4,33.855-63.35,33.855h-41.37c-79.57.665-93.195,49.61-93.195,49.61v.225l-.015-.225s-13.625-48.945-93.19-49.61h-41.375c-40.95,0-63.35-10.035-63.35-33.855v-3.722c.567-35.102,32.433-41.69,71.783-41.69h52.65c74.4,0,78.99-43.04,78.99-75.645v-6.961h.007c0-35.94,32.105-42.63,71.81-42.63h52.65c74.4,0,78.99-43.04,78.99-75.645v-15.875h-11.035v11.28c0,23.82-22.4,33.855-63.35,33.855h-41.37c-79.57.665-93.195,49.61-93.195,49.61v.225l-.015-.225s-13.625-48.945-93.19-49.61h-41.375c-40.95,0-63.35-10.035-63.35-33.855v-11.28h-11.035v15.875c0,32.605,4.59,75.645,78.99,75.645h52.65c39.284,0,71.112,6.568,71.783,41.516v3.48c0,23.82-22.4,33.855-63.35,33.855h-41.37c-79.57.665-93.195,49.61-93.195,49.61v.225l-.015-.225s-13.625-48.945-93.19-49.61h-41.375c-40.95,0-63.35-10.035-63.35-33.855v-11.28H0v15.875c0,32.605,4.59,75.645,78.99,75.645h52.65c39.705,0,71.815,6.69,71.815,42.63h.002v7.377c0,32.605,4.59,75.645,78.99,75.645h52.65c39.705,0,71.815,6.69,71.815,42.63h11.01c0-35.94,32.105-42.63,71.81-42.63h52.65c74.4,0,78.99-43.04,78.99-75.645v-15.875h-11.035Z" style="fill: #848585; stroke-width: 0px;"/>
      <g>
        <path d="m235.571,29.673v2.423h-14.709v-2.423h1.572c2.254,0,3.443-.681,2.51-3.443l-1.787-5.145h-9.352l-1.701,4.932c-.893,2.593.129,3.656,3.189,3.656h1.02v2.423h-12.795v-2.423h.893c2.508,0,3.826-.978,4.932-4.039l8.586-24.061h3.57l9.184,25.081c.807,2.168,1.615,3.019,4.166,3.019h.723Zm-20.959-11.011h7.695l-3.826-11.138-3.869,11.138Z" style="fill: #848585; stroke-width: 0px;"/>
        <path d="m260.016,20.915c0,8.332-5.188,11.946-10.416,11.946-1.998,0-3.869-.511-5.484-1.19v4.804c0,1.998,2.891,1.998,3.826,1.998v2.125h-12.072v-2.125c.936,0,3.826,0,3.826-1.998v-19.386c0-2.168-1.998-2.721-3.826-2.721v-2.04c3.74,0,5.143-1.488,6.164-3.188h2.082v3.996c4.422-2.508,6.42-3.571,8.205-3.571,3.061,0,7.695,3.784,7.695,11.351Zm-4.889.851c0-4.932-2.424-8.247-5.23-8.247-1.402,0-3.484.85-5.781,2.253v12.838c1.488,1.105,3.273,1.871,5.018,1.871,3.783,0,5.994-3.954,5.994-8.715Z" style="fill: #848585; stroke-width: 0px;"/>
        <path d="m286.754,20.915c0,8.332-5.186,11.946-10.414,11.946-1.998,0-3.869-.511-5.484-1.19v4.804c0,1.998,2.891,1.998,3.826,1.998v2.125h-12.074v-2.125c.936,0,3.826,0,3.826-1.998v-19.386c0-2.168-1.998-2.721-3.826-2.721v-2.04c3.742,0,5.145-1.488,6.164-3.188h2.084v3.996c4.42-2.508,6.418-3.571,8.205-3.571,3.061,0,7.693,3.784,7.693,11.351Zm-4.889.851c0-4.932-2.424-8.247-5.229-8.247-1.402,0-3.486.85-5.781,2.253v12.838c1.488,1.105,3.273,1.871,5.016,1.871,3.783,0,5.994-3.954,5.994-8.715Z" style="fill: #848585; stroke-width: 0px;"/>
        <path d="m297.639,27.972c0,1.998,3.102,1.998,4.037,1.998v2.126h-12.498v-2.126c.936,0,4.039,0,4.039-1.998V9.479c0-2.21-1.871-2.848-3.826-2.848v-2.041c3.273,0,5.059-1.105,6.164-3.315h2.084v26.696Z" style="fill: #848585; stroke-width: 0px;"/>
        <path d="m311.965,27.972c0,1.998,3.102,1.998,4.037,1.998v2.126h-12.498v-2.126c.936,0,4.039,0,4.039-1.998v-10.883c0-2.168-1.998-2.721-3.826-2.721v-2.04c3.74,0,5.145-1.488,6.164-3.188h2.084v18.832Zm-5.697-24.656c0-1.87,1.488-3.315,3.357-3.315,1.787,0,3.273,1.445,3.273,3.315s-1.486,3.358-3.273,3.358c-1.869,0-3.357-1.487-3.357-3.358Z" style="fill: #848585; stroke-width: 0px;"/>
        <path d="m318.256,21.256c0-6.547,4.209-11.818,10.756-11.818,4.549,0,9.182,2.551,9.182,6.377,0,1.998-1.275,3.061-2.975,3.061-2.084,0-2.637-1.615-3.104-3.316-.51-1.828-1.105-3.698-3.826-3.698-3.529,0-5.145,3.146-5.145,7.397,0,5.653,2.848,10.16,8.588,10.16,1.998,0,3.783-.553,5.355-1.531l1.191,1.743c-2.084,2.083-5.271,3.231-8.588,3.231-6.801,0-11.436-4.847-11.436-11.605Z" style="fill: #848585; stroke-width: 0px;"/>
        <path d="m365.231,26.952c-.639,3.698-1.955,5.909-5.188,5.909-2.422,0-3.654-1.233-4.166-2.977-2.209,1.871-4.889,2.977-7.736,2.977-3.91,0-6.334-2.083-6.334-5.527,0-5.823,7.057-7.438,13.773-7.864v-3.358c0-3.104-.766-4.251-3.57-4.251-2.297,0-4.465.766-4.465,2.296,0,.765.553,1.445.553,2.466,0,1.572-1.316,2.38-2.721,2.38-1.828,0-2.975-1.36-2.975-3.315,0-4.294,5.525-6.249,10.67-6.249,4.803,0,6.93,1.785,6.93,6.036v12.243c0,1.275.467,1.743,1.189,1.743s1.572-.468,2.168-2.849l1.871.341Zm-15.049,2.593c2.082,0,4.039-1.062,5.398-2.381v-5.271c-4.846.383-8.715,1.488-8.715,4.762,0,1.913,1.318,2.891,3.316,2.891Z" style="fill: #848585; stroke-width: 0px;"/>
        <path d="m364.848,12.966v-2.168c4.166-.298,6.25-3.528,6.973-8.46h2.125v7.864h7.609v2.764h-7.609v12.328c0,2.721.68,3.911,2.721,3.911,1.359,0,2.805-.51,5.314-2.253l1.189,1.572c-3.357,3.231-5.951,4.337-8.418,4.337-2.549,0-5.229-1.19-5.229-6.164v-13.731h-4.676Z" style="fill: #848585; stroke-width: 0px;"/>
        <path d="m393.034,27.972c0,1.998,3.104,1.998,4.039,1.998v2.126h-12.498v-2.126c.936,0,4.037,0,4.037-1.998v-10.883c0-2.168-1.998-2.721-3.824-2.721v-2.04c3.74,0,5.143-1.488,6.164-3.188h2.082v18.832Zm-5.697-24.656c0-1.87,1.488-3.315,3.359-3.315,1.785,0,3.273,1.445,3.273,3.315s-1.488,3.358-3.273,3.358c-1.871,0-3.359-1.487-3.359-3.358Z" style="fill: #848585; stroke-width: 0px;"/>
        <path d="m399.282,21.213c0-6.504,4.975-11.775,11.395-11.775s11.393,5.271,11.393,11.775c0,6.462-4.975,11.648-11.393,11.648s-11.395-5.187-11.395-11.648Zm17.26,0c0-5.696-1.699-9.353-5.865-9.353s-5.867,3.656-5.867,9.353c0,5.739,1.701,9.225,5.867,9.225s5.865-3.485,5.865-9.225Z" style="fill: #848585; stroke-width: 0px;"/>
        <path d="m447.235,27.972c0,1.998,2.891,1.998,3.826,1.998v2.126h-12.072v-2.126c.936,0,3.826,0,3.826-1.998v-11.817c0-1.913-.936-2.636-2.254-2.636-.85,0-1.785.255-2.891.68l-4.25,1.701v12.072c0,1.998,2.891,1.998,3.824,1.998v2.126h-12.072v-2.126c1.02,0,3.783-.042,3.826-1.955v-10.926c0-2.168-1.998-2.721-3.826-2.721v-2.04c3.74,0,5.145-1.488,6.164-3.188h2.084v4.039l5.186-2.339c1.742-.765,3.4-1.275,4.762-1.275,2.592,0,3.867,1.871,3.867,4.677v13.73Z" style="fill: #848585; stroke-width: 0px;"/>
        <path d="m455.823,33.541l-2.762-9.692h2.125c3.104,4.294,6.418,6.419,9.691,6.419,2.551,0,4.125-1.317,4.125-3.528,0-2.126-1.404-3.061-4.039-3.4l-4.209-.511c-3.613-.425-6.547-2.21-6.547-6.377,0-4.548,3.656-6.759,7.439-6.759,2.125,0,3.613.681,4.465.681.467,0,.764-.213.977-.766l.383-1.062h1.785l2.551,8.459h-2.125c-2.211-3.4-5.059-4.889-7.609-4.889-2.168,0-4.123,1.105-4.123,3.316,0,2.125,1.826,2.551,4.463,2.891l4.123.51c3.869.468,6.164,2.806,6.164,6.675,0,4.378-2.891,7.184-7.652,7.184-3.273,0-5.059-1.36-6.121-1.36-.34,0-.723.171-.85.809l-.256,1.402h-1.998Z" style="fill: #848585; stroke-width: 0px;"/>
        <path d="m257.207,67.649c0,1.998,1.701,1.998,3.529,1.998v2.126l-7.949.766v-3.741l-4.295,2.253c-2.209,1.147-3.654,1.488-5.016,1.488-2.295,0-4.08-.979-4.08-4.209v-11.563c0-2.168-1.998-2.721-3.826-2.721v-2.04c3.74,0,5.143-1.488,6.164-3.188h2.082v16.749c0,1.828.17,3.188,2.127,3.188.977,0,2.379-.34,4.889-1.657l1.955-1.021v-9.311c0-2.168-1.998-2.721-3.826-2.721v-2.04c3.74,0,5.145-1.488,6.164-3.188h2.082v18.832Z" style="fill: #848585; stroke-width: 0px;"/>
        <path d="m284.969,67.649c0,1.998,2.891,1.998,3.826,1.998v2.126h-12.074v-2.126c.936,0,3.826,0,3.826-1.998v-11.817c0-1.913-.936-2.636-2.252-2.636-.852,0-1.785.255-2.891.68l-4.252,1.701v12.072c0,1.998,2.891,1.998,3.826,1.998v2.126h-12.072v-2.126c1.02,0,3.783-.042,3.824-1.955v-10.926c0-2.168-1.998-2.721-3.824-2.721v-2.04c3.74,0,5.143-1.488,6.164-3.188h2.082v4.039l5.186-2.339c1.744-.765,3.402-1.275,4.762-1.275,2.594,0,3.869,1.871,3.869,4.677v13.73Z" style="fill: #848585; stroke-width: 0px;"/>
        <path d="m289.518,52.644v-2.168c4.166-.298,6.248-3.528,6.971-8.46h2.125v7.864h7.609v2.764h-7.609v12.328c0,2.721.682,3.911,2.721,3.911,1.361,0,2.807-.51,5.314-2.253l1.191,1.572c-3.359,3.231-5.953,4.337-8.418,4.337-2.551,0-5.229-1.19-5.229-6.164v-13.731h-4.676Z" style="fill: #848585; stroke-width: 0px;"/>
        <path d="m317.702,67.649c0,1.998,3.104,1.998,4.039,1.998v2.126h-12.498v-2.126c.936,0,4.037,0,4.037-1.998v-10.883c0-2.168-1.998-2.721-3.824-2.721v-2.04c3.74,0,5.143-1.488,6.164-3.188h2.082v18.832Zm-5.697-24.656c0-1.87,1.488-3.315,3.359-3.315,1.785,0,3.273,1.445,3.273,3.315s-1.488,3.358-3.273,3.358c-1.871,0-3.359-1.487-3.359-3.358Z" style="fill: #848585; stroke-width: 0px;"/>
        <path d="m331.264,67.649c0,1.998,3.102,1.998,4.037,1.998v2.126h-12.498v-2.126c.936,0,4.039,0,4.039-1.998v-18.492c0-2.21-1.871-2.848-3.826-2.848v-2.041c3.273,0,5.059-1.105,6.164-3.315h2.084v26.696Z" style="fill: #848585; stroke-width: 0px;"/>
        <path d="m359.788,66.332c0,2.806,3.613,3.019,5.271,3.019v2.423h-15.176v-2.423c1.658,0,5.314-.213,5.314-3.019v-14.794c0-1.232-.809-1.7-1.871-1.7h-4.549v-2.423c4.549,0,7.652-2.721,8.885-5.824h2.125v24.741Z" style="fill: #848585; stroke-width: 0px;"/>
        <path d="m389.758,63.271l-3.4,10.925h-1.871c0-1.657-1.189-2.423-3.443-2.423h-12.414v-3.061c2.68-3.316,5.061-5.271,7.611-7.354l1.699-1.403c3.529-2.933,5.441-5.483,5.441-9.012,0-3.656-2.041-6.122-5.059-6.122-2.977,0-5.484,2.381-6.461,7.482l-2.551-.808c.553-5.824,4.123-10.245,10.031-10.245,5.271,0,9.055,3.655,9.055,9.055,0,5.441-3.783,8.289-8.373,11.605l-1.828,1.317c-2.041,1.488-3.613,2.721-5.188,4.336h8.674c2.891,0,4.76-1.317,6.121-4.293h1.955Z" style="fill: #848585; stroke-width: 0px;"/>
        <path d="m394.01,69.053c0-1.87,1.529-3.315,3.357-3.315s3.316,1.445,3.316,3.315-1.488,3.358-3.316,3.358-3.357-1.488-3.357-3.358Z" style="fill: #848585; stroke-width: 0px;"/>
        <path d="m426.106,63.271l-3.4,10.925h-1.871c0-1.657-1.189-2.423-3.443-2.423h-12.414v-3.061c2.68-3.316,5.061-5.271,7.611-7.354l1.699-1.403c3.529-2.933,5.441-5.483,5.441-9.012,0-3.656-2.041-6.122-5.059-6.122-2.977,0-5.484,2.381-6.461,7.482l-2.551-.808c.553-5.824,4.123-10.245,10.031-10.245,5.271,0,9.055,3.655,9.055,9.055,0,5.441-3.783,8.289-8.373,11.605l-1.828,1.317c-2.041,1.488-3.613,2.721-5.188,4.336h8.674c2.891,0,4.76-1.317,6.121-4.293h1.955Z" style="fill: #848585; stroke-width: 0px;"/>
        <path d="m430.358,69.053c0-1.87,1.529-3.315,3.357-3.315s3.316,1.445,3.316,3.315-1.488,3.358-3.316,3.358-3.357-1.488-3.357-3.358Z" style="fill: #848585; stroke-width: 0px;"/>
        <path d="m462.454,63.271l-3.4,10.925h-1.871c0-1.657-1.189-2.423-3.443-2.423h-12.414v-3.061c2.68-3.316,5.061-5.271,7.611-7.354l1.699-1.403c3.529-2.933,5.441-5.483,5.441-9.012,0-3.656-2.041-6.122-5.059-6.122-2.977,0-5.484,2.381-6.461,7.482l-2.551-.808c.553-5.824,4.123-10.245,10.031-10.245,5.271,0,9.055,3.655,9.055,9.055,0,5.441-3.783,8.289-8.373,11.605l-1.828,1.317c-2.041,1.488-3.613,2.721-5.188,4.336h8.674c2.891,0,4.76-1.317,6.121-4.293h1.955Z" style="fill: #848585; stroke-width: 0px;"/>
        <path d="m466.663,56.895c0-8.63,5.355-15.644,11.137-15.644,5.697,0,10.926,7.014,10.926,15.644,0,8.758-5.229,15.645-10.926,15.645-5.824,0-11.137-6.887-11.137-15.645Zm16.324,0c0-6.844-.426-12.838-5.23-12.838-4.93,0-5.355,5.994-5.355,12.838,0,6.972.426,12.838,5.355,12.838,4.805,0,5.23-5.866,5.23-12.838Z" style="fill: #848585; stroke-width: 0px;"/>
        <path d="m514.104,63.271l-3.4,10.925h-1.869c0-1.657-1.191-2.423-3.443-2.423h-12.414v-3.061c2.678-3.316,5.059-5.271,7.609-7.354l1.701-1.403c3.527-2.933,5.441-5.483,5.441-9.012,0-3.656-2.041-6.122-5.059-6.122-2.977,0-5.484,2.381-6.463,7.482l-2.551-.808c.553-5.824,4.123-10.245,10.033-10.245,5.271,0,9.055,3.655,9.055,9.055,0,5.441-3.783,8.289-8.375,11.605l-1.828,1.317c-2.041,1.488-3.613,2.721-5.186,4.336h8.672c2.891,0,4.762-1.317,6.121-4.293h1.955Z" style="fill: #848585; stroke-width: 0px;"/>
        <path d="m515.764,64.632l15.643-23.041h3.656v19.385h5.951l-.934,3.656h-5.018v7.142h-4.633v-7.142h-14.666Zm5.568-3.656h9.098v-13.519l-9.098,13.519Z" style="fill: #848585; stroke-width: 0px;"/>
      </g>
    </g>
  </g>
</svg>