<svg id="Ebene_1" data-name="Ebene 1" xmlns="http://www.w3.org/2000/svg" viewBox="0 0 628.3 389.33"><defs><style>.cls-1{fill:#858585;}</style></defs><path class="cls-1" d="M617.14,253.69v11.4c0,24.09-22.65,34.23-64,34.23H511.25C430.8,300,417,349.49,417,349.49v0S403.23,300,322.78,299.32H280.94c-41.41,0-64.06-10.14-64.06-34.23v-3.76c.58-35.49,32.8-42.16,72.59-42.16H342.7c75.23,0,79.88-43.52,79.88-76.48v-7h0c0-36.34,32.46-43.11,72.61-43.11h53.24c75.23,0,79.87-43.52,79.87-76.49V0H617.14V11.41c0,24.08-22.65,34.23-64,34.23H511.25C430.8,46.31,417,95.8,417,95.8v0s-13.78-49.49-94.23-50.16H280.94c-41.41,0-64.06-10.15-64.06-34.23V0H205.73V16.05c0,33,4.64,76.49,79.87,76.49h53.23c39.73,0,71.91,6.64,72.59,42V138c0,24.08-22.65,34.23-64.06,34.23H305.53c-80.46.67-94.23,50.16-94.23,50.16v.23l0-.23s-13.78-49.49-94.23-50.16H75.21c-41.4,0-64-10.15-64-34.23V126.63H0v16.06c0,33,4.64,76.48,79.87,76.48h53.24c40.15,0,72.61,6.77,72.61,43.11h0v7.46c0,33,4.64,76.49,79.87,76.49h53.23c40.15,0,72.62,6.76,72.62,43.1h11.13c0-36.34,32.46-43.1,72.61-43.1h53.24c75.23,0,79.87-43.52,79.87-76.49V253.69Z"/></svg>