<svg id="Ebene_1" data-name="Ebene 1" xmlns="http://www.w3.org/2000/svg" viewBox="0 0 629.44 262.81"><defs><style>.cls-1{fill:#858585;}</style></defs><path class="cls-1" d="M629.44,142.91v-16H618.3v11.39c0,24-22.62,34.18-64,34.18H512.56c-80.35.67-94.11,50.1-94.11,50.1v0s-13.76-49.43-94.1-50.1H282.56c-41.35,0-64-10.13-64-34.18v-3.76c.58-35.44,32.75-42.1,72.49-42.1h53.16C419.37,92.41,424,49,424,16V0H412.86V11.39c0,24-22.62,34.18-64,34.18H307.12c-80.35.68-94.11,50.1-94.11,50.1v0s-13.76-49.42-94.1-50.1H77.12c-41.35,0-64-10.13-64-34.18V0H2V16C2,49,6.64,92.41,81.77,92.41h53.16c40.1,0,72.52,6.76,72.52,43.05h0v7.45c0,32.92,4.64,76.38,79.76,76.38h53.17c40.09,0,72.51,6.75,72.51,43H424c0-36.3,32.42-43,72.51-43h53.16c75.13,0,79.76-43.46,79.76-76.38"/></svg>