<svg id="Ebene_1" data-name="Ebene 1" xmlns="http://www.w3.org/2000/svg" viewBox="0 0 630.76 394.24"><defs><style>.cls-1{fill:#858585;}</style></defs><path class="cls-1" d="M630.76,258.78v16c0,32.93-4.64,76.39-79.76,76.39H497.83c-40.09,0-72.51,6.75-72.51,43H414.2c0-36.29-32.42-43-72.51-43H288.52c-75.12,0-79.76-43.46-79.76-76.39v-7.45h0c0-36.29-32.42-43-72.51-43H83.08C8,224.32,3.32,180.86,3.32,147.94v-16H14.47V143.3c0,24,22.61,34.18,64,34.18h41.78c80.34.67,94.1,50.1,94.1,50.1l0,.22v-.22s13.75-49.43,94.1-50.1H350.2c41.35,0,64-10.13,64-34.18V131.91h11.14v16c0,32.92-4.63,76.38-79.76,76.38H292.39c-39.73,0-71.91,6.65-72.48,42.1v3.75c0,24.06,22.62,34.19,64,34.19h41.78c80.34.67,94.1,50.09,94.1,50.09l0,.23v-.23s13.76-49.42,94.1-50.09h41.77c41.35,0,64-10.13,64-34.19V258.78ZM83.09,158.25h53.17c40.1,0,72.52,6.75,72.52,43.05h11.11c0-36.3,32.43-43.05,72.52-43.05h53.17c75.13,0,79.77-43.47,79.77-76.39v-16H414.2V77.22c0,24-22.61,34.19-64,34.19H308.45c-80.35.67-94.11,50.09-94.11,50.09v0s-13.76-49.42-94.11-50.09H78.44c-41.35,0-64-10.14-64-34.19V65.83H3.32v16C3.32,114.78,8,158.25,83.09,158.25Zm0-65.83h53.17c40.1,0,72.52,6.75,72.52,43.05h11.11c0-36.3,32.43-43,72.52-43h53.17c75.13,0,79.77-43.46,79.77-76.39V0H414.2V11.39c0,24.06-22.61,34.19-64,34.19H308.45c-80.35.67-94.11,50.1-94.11,50.1v0s-13.76-49.43-94.11-50.1H78.44c-41.35,0-64-10.13-64-34.19V0H3.32V16C3.32,49,8,92.42,83.09,92.42Z"/></svg>