<svg id="Ebene_1" data-name="Ebene 1" xmlns="http://www.w3.org/2000/svg" xmlns:xlink="http://www.w3.org/1999/xlink" viewBox="0 0 630.76 447.87"><defs><style>.cls-1{fill:#858585;}.cls-2{fill:url(#Unbenannter_Verlauf_45);}</style><linearGradient id="Unbenannter_Verlauf_45" x1="317.04" y1="447.87" x2="317.04" y2="53.62" gradientUnits="userSpaceOnUse"><stop offset="0.07" stop-color="#858584"/><stop offset="0.41" stop-color="#b8b8b7"/><stop offset="0.59" stop-color="#d3d3d2"/><stop offset="0.59" stop-color="#d2d2d1"/><stop offset="0.7" stop-color="#b0b0af"/><stop offset="0.81" stop-color="#989897"/><stop offset="0.92" stop-color="#8a8a89"/><stop offset="1" stop-color="#858584"/></linearGradient></defs><path class="cls-1" d="M346.67,51.1V66.34H336.42Zm0,19.36v8.05h5.22V70.46h5.66l1.05-4.12h-6.71V44.49h-4.12l-17.63,26Zm-19.16-1.53c-1.53,3.35-3.64,4.83-6.9,4.83h-9.77a42.48,42.48,0,0,1,5.84-4.88l2.06-1.49c5.18-3.73,9.44-6.94,9.44-13.08A9.75,9.75,0,0,0,318,44.11c-6.66,0-10.69,5-11.31,11.54l2.87.91c1.11-5.74,3.93-8.43,7.29-8.43s5.7,2.78,5.7,6.9-2.16,6.85-6.13,10.16l-1.92,1.58a52.52,52.52,0,0,0-8.58,8.29v3.45h14c2.54,0,3.88.86,3.88,2.73h2.11l3.83-12.31Zm-37.32,7.28c-5.56,0-6-6.61-6-14.47s.48-14.47,6-14.47,5.89,6.76,5.89,14.47-.48,14.47-5.89,14.47m.05,3.16c6.42,0,12.31-7.76,12.31-17.63s-5.89-17.63-12.31-17.63S277.69,52,277.69,61.74s6,17.63,12.55,17.63M272.18,68.93c-1.54,3.35-3.64,4.83-6.9,4.83H255.5a43.2,43.2,0,0,1,5.85-4.88l2.06-1.49c5.17-3.73,9.44-6.94,9.44-13.08a9.76,9.76,0,0,0-10.21-10.2c-6.66,0-10.68,5-11.3,11.54l2.87.91c1.1-5.74,3.93-8.43,7.28-8.43s5.7,2.78,5.7,6.9-2.15,6.85-6.13,10.16l-1.91,1.58a52.52,52.52,0,0,0-8.58,8.29v3.45h14c2.54,0,3.88.86,3.88,2.73h2.11l3.83-12.31Zm-28.75,10.3a3.76,3.76,0,0,0,3.74-3.79,3.76,3.76,0,0,0-7.52,0,3.79,3.79,0,0,0,3.78,3.79m-9.34-10.3c-1.53,3.35-3.64,4.83-6.9,4.83h-9.77a42.48,42.48,0,0,1,5.84-4.88l2.06-1.49c5.18-3.73,9.44-6.94,9.44-13.08a9.75,9.75,0,0,0-10.2-10.2c-6.66,0-10.69,5-11.31,11.54l2.88.91c1.1-5.74,3.92-8.43,7.28-8.43s5.7,2.78,5.7,6.9S227,61.88,223,65.19l-1.92,1.58a52.92,52.92,0,0,0-8.58,8.29v3.45h14c2.54,0,3.88.86,3.88,2.73h2.11l3.83-12.31Zm-28.74,10.3a3.75,3.75,0,0,0,3.73-3.79,3.71,3.71,0,0,0-3.73-3.74,3.76,3.76,0,0,0-3.79,3.74,3.8,3.8,0,0,0,3.79,3.79M196,68.93c-1.53,3.35-3.64,4.83-6.89,4.83h-9.78a43.2,43.2,0,0,1,5.85-4.88l2.06-1.49c5.17-3.73,9.43-6.94,9.43-13.08a9.75,9.75,0,0,0-10.2-10.2c-6.66,0-10.68,5-11.31,11.54l2.88.91c1.1-5.74,3.93-8.43,7.28-8.43S191,50.91,191,55s-2.15,6.85-6.13,10.16L183,66.77a52.89,52.89,0,0,0-8.57,8.29v3.45h14c2.54,0,3.88.86,3.88,2.73h2.11l3.83-12.31ZM165.87,44.49h-2.39a10.5,10.5,0,0,1-10,6.57v2.73h5.13c1.2,0,2.11.52,2.11,1.91V72.37c0,3.17-4.12,3.41-6,3.41v2.73h17.1V75.78c-1.87,0-5.94-.24-5.94-3.41Zm-29.27-.72h-2.35c-1.24,2.49-3.26,3.74-6.94,3.74v2.3c2.2,0,4.31.72,4.31,3.21V73.86c0,2.25-3.5,2.25-4.55,2.25v2.4h14.08v-2.4c-1.05,0-4.55,0-4.55-2.25Zm-13.85,8.87h-2.34c-1.15,1.91-2.73,3.59-7,3.59v2.3c2.06,0,4.31.62,4.31,3.07V73.86c0,2.25-3.5,2.25-4.55,2.25v2.4h14.09v-2.4c-1.06,0-4.56,0-4.56-2.25Zm-2.63-2.78a3.75,3.75,0,0,0,3.69-3.79,3.74,3.74,0,0,0-7.48,0,3.77,3.77,0,0,0,3.79,3.79M97.7,57V72.42c0,5.61,3,7,5.89,7s5.7-1.25,9.49-4.89l-1.34-1.77c-2.83,2-4.46,2.54-6,2.54-2.3,0-3.07-1.34-3.07-4.41V57h8.58V53.83h-8.58V45h-2.39c-.82,5.56-3.17,9.2-7.86,9.53V57Zm-9,1.44c0-3.17-1.44-5.27-4.36-5.27A14.28,14.28,0,0,0,79,54.55l-5.85,2.64V52.64H70.82c-1.15,1.91-2.73,3.59-6.94,3.59v2.3c2.06,0,4.31.62,4.31,3.07V73.91c0,2.15-3.16,2.2-4.31,2.2v2.4h13.6v-2.4c-1,0-4.31,0-4.31-2.25V60.25L78,58.34a9.34,9.34,0,0,1,3.26-.77c1.48,0,2.54.82,2.54,3V73.86c0,2.25-3.26,2.25-4.31,2.25v2.4h13.6v-2.4c-1,0-4.31,0-4.31-2.25ZM58.89,52.64H56.55c-1.15,1.91-2.73,3.59-6.95,3.59v2.3c2.06,0,4.31.62,4.31,3.07V72.09l-2.2,1.15c-2.83,1.48-4.41,1.87-5.51,1.87-2.2,0-2.4-1.54-2.4-3.6V52.64H41.46c-1.15,1.91-2.73,3.59-7,3.59v2.3c2.06,0,4.31.62,4.31,3.07v13c0,3.64,2,4.74,4.6,4.74a11.78,11.78,0,0,0,5.65-1.68l4.84-2.54v4.22l9-.86v-2.4c-2.06,0-4,0-4-2.25Z"/><path class="cls-1" d="M270.77,37.8l.29-1.58c.14-.72.57-.91,1-.91,1.19,0,3.21,1.53,6.9,1.53,5.36,0,8.62-3.16,8.62-8.1,0-4.36-2.59-7-7-7.52L276,20.65c-3-.39-5-.86-5-3.26s2.21-3.74,4.65-3.74c2.88,0,6.09,1.68,8.58,5.51h2.39l-2.87-9.53h-2l-.43,1.2a1.1,1.1,0,0,1-1.11.86c-1,0-2.63-.77-5-.77-4.26,0-8.38,2.49-8.38,7.62,0,4.7,3.3,6.71,7.38,7.19l4.74.57c3,.38,4.55,1.44,4.55,3.83s-1.77,4-4.65,4c-3.69,0-7.42-2.4-10.92-7.23h-2.39l3.11,10.92ZM260.28,16.05c0-3.16-1.44-5.27-4.36-5.27a14.21,14.21,0,0,0-5.37,1.44l-5.84,2.63V10.3h-2.35c-1.15,1.92-2.73,3.59-6.94,3.59v2.3c2.06,0,4.31.63,4.31,3.07V31.57c0,2.16-3.16,2.2-4.31,2.2v2.4H249v-2.4c-1.05,0-4.31,0-4.31-2.25V17.92L249.5,16a9.34,9.34,0,0,1,3.26-.77c1.48,0,2.54.82,2.54,3V31.52c0,2.25-3.26,2.25-4.31,2.25v2.4h13.6v-2.4c-1,0-4.31,0-4.31-2.25ZM220.52,34.3c-4.7,0-6.61-3.93-6.61-10.4s1.91-10.53,6.61-10.53,6.61,4.12,6.61,10.53-1.92,10.4-6.61,10.4m0,2.73A12.88,12.88,0,0,0,233.36,23.9a12.85,12.85,0,1,0-25.68,0A12.87,12.87,0,0,0,220.52,37M202.07,10.3h-2.34c-1.15,1.92-2.74,3.59-6.95,3.59v2.3c2.06,0,4.31.63,4.31,3.07V31.52c0,2.25-3.5,2.25-4.55,2.25v2.4h14.08v-2.4c-1.05,0-4.55,0-4.55-2.25Zm-2.63-2.78a3.75,3.75,0,0,0,3.69-3.78,3.74,3.74,0,1,0-7.48,0,3.77,3.77,0,0,0,3.79,3.78M177,14.61V30.09c0,5.6,3,6.94,5.89,6.94s5.7-1.24,9.49-4.88l-1.35-1.78c-2.82,2-4.45,2.54-6,2.54-2.3,0-3.07-1.34-3.07-4.4V14.61h8.57V11.5H182V2.63h-2.4c-.81,5.56-3.16,9.2-7.85,9.54v2.44ZM152.92,30c0-3.69,4.36-4.94,9.82-5.37v5.94a9,9,0,0,1-6.08,2.69c-2.25,0-3.74-1.11-3.74-3.26M171.51,30c-.67,2.68-1.63,3.21-2.44,3.21s-1.35-.53-1.35-2V17.44c0-4.79-2.39-6.8-7.81-6.8-5.79,0-12,2.2-12,7,0,2.2,1.29,3.73,3.35,3.73a2.78,2.78,0,0,0,3.07-2.68c0-1.15-.62-1.91-.62-2.78,0-1.72,2.44-2.58,5-2.58,3.16,0,4,1.29,4,4.79v3.78c-7.57.48-15.52,2.3-15.52,8.86,0,3.88,2.73,6.23,7.14,6.23a13.47,13.47,0,0,0,8.72-3.35A4.4,4.4,0,0,0,167.77,37c3.64,0,5.13-2.49,5.85-6.66ZM135,37a13.75,13.75,0,0,0,9.68-3.64l-1.34-2a11.27,11.27,0,0,1-6,1.72c-6.47,0-9.68-5.08-9.68-11.45,0-4.79,1.83-8.33,5.8-8.33,3.07,0,3.74,2.1,4.31,4.16s1.15,3.74,3.5,3.74a3.17,3.17,0,0,0,3.35-3.45c0-4.31-5.22-7.18-10.34-7.18-7.38,0-12.12,5.94-12.12,13.31C122.12,31.57,127.34,37,135,37M116.46,10.3h-2.34c-1.15,1.92-2.73,3.59-7,3.59v2.3c2.06,0,4.31.63,4.31,3.07V31.52c0,2.25-3.5,2.25-4.55,2.25v2.4H121v-2.4c-1.05,0-4.55,0-4.55-2.25Zm-2.63-2.78a3.75,3.75,0,0,0,3.69-3.78,3.74,3.74,0,1,0-7.48,0,3.77,3.77,0,0,0,3.79,3.78M101.76,1.44H99.41c-1.25,2.49-3.26,3.73-7,3.73v2.3c2.21,0,4.31.72,4.31,3.21V31.52c0,2.25-3.49,2.25-4.55,2.25v2.4h14.09v-2.4c-1.06,0-4.55,0-4.55-2.25ZM78.66,34.35A9.79,9.79,0,0,1,73,32.24V17.77c2.59-1.58,4.94-2.54,6.52-2.54,3.16,0,5.89,3.74,5.89,9.3,0,5.36-2.49,9.82-6.76,9.82m3.6-23.57c-2,0-4.27,1.2-9.25,4V10.3H70.66c-1.15,1.92-2.73,3.59-6.94,3.59v2.3c2.06,0,4.31.63,4.31,3.07V41.1c0,2.26-3.26,2.26-4.31,2.26v2.39h13.6V43.36c-1,0-4.31,0-4.31-2.26V35.69A15.94,15.94,0,0,0,79.19,37C85.08,37,90.93,33,90.93,23.57c0-8.53-5.22-12.79-8.67-12.79M50,34.35a9.79,9.79,0,0,1-5.66-2.11V17.77c2.59-1.58,4.94-2.54,6.52-2.54,3.16,0,5.89,3.74,5.89,9.3,0,5.36-2.49,9.82-6.75,9.82m3.59-23.57c-2,0-4.26,1.2-9.25,4V10.3H42c-1.15,1.92-2.73,3.59-6.95,3.59v2.3c2.06,0,4.31.63,4.31,3.07V41.1c0,2.26-3.26,2.26-4.31,2.26v2.39H48.63V43.36c-1.06,0-4.32,0-4.32-2.26V35.69A15.94,15.94,0,0,0,50.49,37c5.9,0,11.74-4.07,11.74-13.46,0-8.53-5.22-12.79-8.67-12.79m-36.7-2.3L21.17,21H12.5Zm18.45,25c-2.88,0-3.79-1-4.7-3.4L20.26,1.77h-4L6.56,28.89C5.32,32.34,3.83,33.44,1,33.44H0v2.73H14.42V33.44H13.27c-3.45,0-4.6-1.2-3.59-4.12l1.91-5.56H22.13l2,5.8c1.05,3.11-.29,3.88-2.83,3.88H19.55v2.73H36.12V33.44Z"/><path class="cls-2" d="M630.76,312.41v16c0,32.92-4.64,76.38-79.76,76.38H497.83c-40.09,0-72.51,6.76-72.51,43.05H414.2c0-36.29-32.42-43.05-72.51-43.05H288.52c-75.12,0-79.76-43.46-79.76-76.38V321h0c0-36.29-32.42-43.05-72.51-43.05H83.08C8,277.94,3.32,234.48,3.32,201.56v-16H14.47v11.39c0,24.05,22.61,34.19,64,34.19h41.78c80.34.67,94.1,50.09,94.1,50.09l0,.23v-.23s13.75-49.42,94.1-50.09H350.2c41.35,0,64-10.14,64-34.19V185.53h11.14v16c0,32.92-4.63,76.38-79.76,76.38H292.39c-39.73,0-71.91,6.66-72.48,42.1v3.76c0,24.05,22.62,34.18,64,34.18h41.78c80.34.67,94.1,50.1,94.1,50.1l0,.22v-.22s13.76-49.43,94.1-50.1h41.77c41.35,0,64-10.13,64-34.18V312.41ZM83.09,211.87h53.17c40.1,0,72.52,6.76,72.52,43h11.11c0-36.29,32.43-43,72.52-43h53.17c75.13,0,79.77-43.46,79.77-76.39v-16H414.2v11.4c0,24.05-22.61,34.18-64,34.18H308.45c-80.35.67-94.11,50.1-94.11,50.1v0S200.57,165.7,120.22,165H78.44c-41.35,0-64-10.13-64-34.18v-11.4H3.32v16C3.32,168.41,8,211.87,83.09,211.87Zm0-65.83h53.17c40.1,0,72.52,6.76,72.52,43.05h11.11c0-36.29,32.43-43.05,72.52-43.05h53.17c75.13,0,79.77-43.46,79.77-76.39v-16H414.2V65c0,24-22.61,34.18-64,34.18H308.45c-80.35.67-94.11,50.1-94.11,50.1v0s-13.76-49.43-94.11-50.1H78.44c-41.35,0-64-10.13-64-34.18V53.62H3.32v16C3.32,102.58,8,146,83.09,146Z"/></svg>