<svg id="Ebene_1" data-name="Ebene 1" xmlns="http://www.w3.org/2000/svg" viewBox="0 0 263.97 166.29"><defs><style>.cls-1{fill:#858585;}</style></defs><path class="cls-1" d="M264,81.88v10c0,20.52-2.88,47.6-49.7,47.6H181.14c-25,0-45.18,4.21-45.18,26.83H129c0-22.62-20.2-26.83-45.18-26.83H50.71C3.9,139.46,1,112.38,1,91.86v-10H8V89c0,15,14.09,21.3,39.86,21.3h26c50.07.41,58.64,31.21,58.64,31.21v0s8.57-30.8,58.64-31.21h26C242.94,110.28,257,104,257,89v-7.1ZM257,40.94V48c0,15-14.09,21.31-39.86,21.31h-26c-50.07.41-58.64,31.21-58.64,31.21v0s-8.57-30.8-58.64-31.21h-26C22.05,69.34,8,63,8,48V40.94H1v10c0,20.52,2.89,47.6,49.7,47.6H83.85c25,0,45.18,4.21,45.18,26.82H136c0-22.61,20.2-26.82,45.18-26.82h33.13c46.82,0,49.7-27.08,49.7-47.6v-10ZM257,0V7.1c0,15-14.09,21.3-39.86,21.3h-26c-50.07.42-58.64,31.22-58.64,31.22v0s-8.57-30.8-58.64-31.22h-26C22.05,28.4,8,22.09,8,7.1V0H1V10C1,30.5,3.9,57.58,50.71,57.58H83.85c25,0,45.18,4.21,45.18,26.83H136c0-22.62,20.2-26.83,45.18-26.83h33.13C261.09,57.58,264,30.5,264,10V0Z"/></svg>