<svg id="Ebene_1" data-name="Ebene 1" xmlns="http://www.w3.org/2000/svg" xmlns:xlink="http://www.w3.org/1999/xlink" viewBox="0 0 263.97 195.05"><defs><style>.cls-1{fill:url(#Unbenannter_Verlauf_58);}.cls-2{fill:#858585;}</style><linearGradient id="Unbenannter_Verlauf_58" x1="132.49" y1="195.05" x2="132.49" y2="28.77" gradientUnits="userSpaceOnUse"><stop offset="0.07" stop-color="#858584"/><stop offset="0.45" stop-color="#b8b8b7"/><stop offset="0.63" stop-color="#d3d3d2"/><stop offset="0.64" stop-color="#d2d2d1"/><stop offset="0.74" stop-color="#b0b0af"/><stop offset="0.84" stop-color="#989897"/><stop offset="0.93" stop-color="#8a8a89"/><stop offset="1" stop-color="#858584"/></linearGradient></defs><path class="cls-1" d="M264,110.64v10c0,20.52-2.88,47.6-49.7,47.6H181.14c-25,0-45.18,4.21-45.18,26.82H129c0-22.61-20.2-26.82-45.18-26.82H50.71C3.9,168.23,1,141.15,1,120.63v-10H8v7.1c0,15,14.09,21.3,39.86,21.3h26c50.07.42,58.64,31.22,58.64,31.22v0s8.57-30.8,58.64-31.22h26c25.77,0,39.86-6.31,39.86-21.3v-7.1ZM257,69.7v7.1c0,15-14.09,21.3-39.86,21.3h-26c-50.07.42-58.64,31.22-58.64,31.22v0s-8.57-30.8-58.64-31.22h-26C22.05,98.1,8,91.79,8,76.8V69.7H1v10c0,20.51,2.89,47.6,49.7,47.6H83.85c25,0,45.18,4.21,45.18,26.82H136c0-22.61,20.2-26.82,45.18-26.82h33.13c46.82,0,49.7-27.09,49.7-47.6v-10Zm0-40.93v7.09c0,15-14.09,21.31-39.86,21.31h-26c-50.07.41-58.64,31.21-58.64,31.21v0s-8.57-30.8-58.64-31.21h-26C22.05,57.17,8,50.85,8,35.86V28.77H1v10c0,20.52,2.89,47.6,49.7,47.6H83.85c25,0,45.18,4.21,45.18,26.82H136c0-22.61,20.2-26.82,45.18-26.82h33.13c46.82,0,49.7-27.08,49.7-47.6v-10Z"/><path class="cls-2" d="M180.15,28v7.85h-5.28Zm0,10V42.1h2.7V38h2.91l.54-2.12h-3.45V24.57h-2.13L171.64,38Zm-9.87-.79a3.62,3.62,0,0,1-3.56,2.49h-5a22,22,0,0,1,3-2.51l1.06-.77c2.67-1.93,4.86-3.58,4.86-6.74a5,5,0,0,0-5.26-5.26c-3.43,0-5.5,2.57-5.82,5.95l1.48.47c.57-3,2-4.35,3.75-4.35s2.94,1.44,2.94,3.56-1.11,3.53-3.16,5.23l-1,.82a27.2,27.2,0,0,0-4.42,4.27V42.1h7.21c1.31,0,2,.44,2,1.41h1.09l2-6.35ZM151,40.91c-2.86,0-3.11-3.4-3.11-7.45S148.18,26,151,26s3,3.48,3,7.46-.25,7.45-3,7.45m0,1.63c3.31,0,6.34-4,6.34-9.08s-3-9.09-6.34-9.09-6.47,4.07-6.47,9.09,3.09,9.08,6.47,9.08m-9.31-5.38a3.62,3.62,0,0,1-3.56,2.49h-5a22,22,0,0,1,3-2.51l1.06-.77c2.67-1.93,4.87-3.58,4.87-6.74a5,5,0,0,0-5.26-5.26c-3.44,0-5.51,2.57-5.83,5.95l1.48.47c.57-3,2-4.35,3.75-4.35s2.94,1.44,2.94,3.56-1.11,3.53-3.16,5.23l-1,.82a27.2,27.2,0,0,0-4.42,4.27V42.1h7.21c1.31,0,2,.44,2,1.41h1.09l2-6.35Zm-14.82,5.31a1.94,1.94,0,0,0,1.93-1.95,1.91,1.91,0,0,0-1.93-1.93,1.94,1.94,0,0,0-2,1.93,2,2,0,0,0,2,1.95m-4.81-5.31a3.62,3.62,0,0,1-3.56,2.49h-5a22,22,0,0,1,3-2.51l1.06-.77c2.67-1.93,4.87-3.58,4.87-6.74a5,5,0,0,0-5.26-5.26c-3.44,0-5.51,2.57-5.83,5.95l1.48.47c.57-3,2-4.35,3.75-4.35s2.94,1.44,2.94,3.56-1.11,3.53-3.16,5.23l-1,.82A27.2,27.2,0,0,0,111,40.32V42.1h7.21c1.31,0,2,.44,2,1.41h1.09l2-6.35Zm-14.81,5.31a1.93,1.93,0,0,0,1.92-1.95,1.94,1.94,0,0,0-3.87,0,2,2,0,0,0,1.95,1.95m-4.82-5.31A3.62,3.62,0,0,1,99,39.65h-5a22.61,22.61,0,0,1,3-2.51L98,36.37c2.67-1.93,4.87-3.58,4.87-6.74a5,5,0,0,0-5.26-5.26c-3.43,0-5.51,2.57-5.83,5.95l1.48.47c.57-3,2-4.35,3.75-4.35s2.94,1.44,2.94,3.56-1.11,3.53-3.16,5.23l-1,.82a26.77,26.77,0,0,0-4.41,4.27V42.1h7.2c1.31,0,2,.44,2,1.41h1.09l2-6.35ZM87,24.57H85.74A5.42,5.42,0,0,1,80.58,28v1.41h2.64c.61,0,1.08.27,1.08,1v8.59c0,1.63-2.12,1.75-3.08,1.75V42.1H90V40.69c-1,0-3.06-.12-3.06-1.75ZM71.88,24.2H70.67C70,25.48,69,26.12,67.09,26.12v1.19c1.14,0,2.23.37,2.23,1.65V39.7c0,1.16-1.81,1.16-2.35,1.16V42.1h7.26V40.86c-.54,0-2.35,0-2.35-1.16Zm-7.13,4.57H63.54A3.6,3.6,0,0,1,60,30.62V31.8c1.06,0,2.22.32,2.22,1.58V39.7c0,1.16-1.8,1.16-2.35,1.16V42.1h7.26V40.86c-.54,0-2.34,0-2.34-1.16Zm-1.36-1.44a1.92,1.92,0,0,0,1.9-1.95,1.93,1.93,0,0,0-3.85,0,1.93,1.93,0,0,0,2,1.95M51.83,31v8c0,2.89,1.56,3.58,3,3.58s2.94-.64,4.89-2.52l-.69-.91A5.47,5.47,0,0,1,56,40.42c-1.18,0-1.58-.69-1.58-2.27V31h4.42V29.38H54.4V24.81H53.17c-.42,2.87-1.63,4.75-4.05,4.92V31Zm-4.61.74C47.22,30.1,46.48,29,45,29a7.41,7.41,0,0,0-2.76.74l-3,1.36V28.77H38a3.59,3.59,0,0,1-3.58,1.85V31.8c1.06,0,2.23.32,2.23,1.58v6.35c0,1.11-1.63,1.13-2.23,1.13V42.1h7V40.86c-.55,0-2.23,0-2.23-1.16v-7l2.47-1a5,5,0,0,1,1.68-.39c.77,0,1.31.42,1.31,1.53V39.7c0,1.16-1.68,1.16-2.22,1.16V42.1h7V40.86c-.54,0-2.22,0-2.22-1.16Zm-15.38-3H30.63a3.61,3.61,0,0,1-3.58,1.85V31.8c1.06,0,2.22.32,2.22,1.58v5.41l-1.14.59a6.4,6.4,0,0,1-2.84,1c-1.13,0-1.23-.79-1.23-1.86V28.77H22.85a3.61,3.61,0,0,1-3.58,1.85V31.8c1.06,0,2.22.32,2.22,1.58V40.1c0,1.88,1,2.44,2.37,2.44a6,6,0,0,0,2.91-.86l2.5-1.31v2.17l4.61-.44V40.86c-1.06,0-2,0-2-1.16Z"/><path class="cls-2" d="M139.55,19.48l.15-.81c.08-.37.3-.47.5-.47.61,0,1.65.79,3.55.79,2.77,0,4.45-1.63,4.45-4.18a3.67,3.67,0,0,0-3.58-3.87l-2.4-.3c-1.53-.2-2.59-.44-2.59-1.68S140.76,7,142,7a5.44,5.44,0,0,1,4.42,2.84h1.24L146.2,5h-1l-.22.62c-.13.32-.3.44-.57.44a19.86,19.86,0,0,0-2.59-.39c-2.2,0-4.32,1.28-4.32,3.93,0,2.42,1.7,3.45,3.8,3.7l2.44.3c1.53.19,2.35.74,2.35,2s-.92,2-2.4,2c-1.9,0-3.82-1.23-5.63-3.73h-1.23l1.6,5.63Zm-5.4-11.21c0-1.63-.74-2.71-2.25-2.71a7.31,7.31,0,0,0-2.77.74l-3,1.35V5.31h-1.21a3.58,3.58,0,0,1-3.58,1.85V8.35c1.06,0,2.22.32,2.22,1.58v6.34c0,1.11-1.63,1.14-2.22,1.14v1.23h7V17.41c-.54,0-2.22,0-2.22-1.16v-7l2.47-1a4.77,4.77,0,0,1,1.68-.4c.77,0,1.31.42,1.31,1.53v6.87c0,1.16-1.68,1.16-2.22,1.16v1.23h7V17.41c-.54,0-2.22,0-2.22-1.16Zm-20.5,9.41c-2.42,0-3.4-2-3.4-5.36s1-5.43,3.4-5.43,3.41,2.12,3.41,5.43-1,5.36-3.41,5.36m0,1.41a6.64,6.64,0,0,0,6.62-6.77,6.62,6.62,0,1,0-13.23,0,6.64,6.64,0,0,0,6.61,6.77m-9.5-13.78h-1.21a3.6,3.6,0,0,1-3.58,1.85V8.35c1.06,0,2.22.32,2.22,1.58v6.32c0,1.16-1.8,1.16-2.35,1.16v1.23h7.26V17.41c-.54,0-2.34,0-2.34-1.16Zm-1.36-1.43a1.93,1.93,0,0,0,1.9-1.95,1.93,1.93,0,1,0-3.85,0,1.94,1.94,0,0,0,2,2M91.23,7.53v8c0,2.88,1.56,3.58,3,3.58s2.94-.65,4.89-2.52l-.69-.92A5.4,5.4,0,0,1,95.38,17c-1.18,0-1.58-.69-1.58-2.27V7.53h4.42V5.93H93.8V1.36H92.57c-.42,2.86-1.63,4.74-4,4.91V7.53Zm-12.42,8c0-1.9,2.25-2.54,5.07-2.76v3.06a4.7,4.7,0,0,1-3.14,1.38c-1.16,0-1.93-.57-1.93-1.68m9.58,0c-.34,1.38-.83,1.65-1.25,1.65s-.7-.27-.7-1V9c0-2.47-1.23-3.51-4-3.51-3,0-6.2,1.14-6.2,3.63A1.73,1.73,0,0,0,78,11a1.43,1.43,0,0,0,1.58-1.39c0-.59-.32-1-.32-1.43,0-.89,1.26-1.33,2.59-1.33,1.63,0,2.08.67,2.08,2.47v2c-3.91.25-8,1.18-8,4.57,0,2,1.4,3.21,3.68,3.21a7,7,0,0,0,4.49-1.73,2.28,2.28,0,0,0,2.42,1.73c1.88,0,2.64-1.29,3-3.44ZM69.58,19.09a7.09,7.09,0,0,0,5-1.88l-.69-1a5.8,5.8,0,0,1-3.12.89c-3.33,0-5-2.62-5-5.9,0-2.47.94-4.3,3-4.3C70.35,6.89,70.69,8,71,9S71.58,11,72.79,11a1.63,1.63,0,0,0,1.73-1.77c0-2.23-2.69-3.71-5.34-3.71-3.8,0-6.24,3.06-6.24,6.87a6.41,6.41,0,0,0,6.64,6.74M60,5.31H58.81a3.58,3.58,0,0,1-3.58,1.85V8.35c1.07,0,2.23.32,2.23,1.58v6.32c0,1.16-1.81,1.16-2.35,1.16v1.23h7.26V17.41c-.54,0-2.35,0-2.35-1.16ZM58.67,3.88a1.94,1.94,0,0,0,1.9-1.95,1.93,1.93,0,1,0-3.85,0,1.94,1.94,0,0,0,2,2M52.44.74H51.23C50.59,2,49.56,2.67,47.65,2.67V3.85c1.14,0,2.23.37,2.23,1.66V16.25c0,1.16-1.81,1.16-2.35,1.16v1.23h7.26V17.41c-.54,0-2.35,0-2.35-1.16Zm-11.9,17a5,5,0,0,1-2.91-1.08V9.16A7.53,7.53,0,0,1,41,7.85c1.63,0,3,1.93,3,4.79s-1.28,5.06-3.48,5.06M42.4,5.56c-1,0-2.2.61-4.77,2.07V5.31H36.42a3.59,3.59,0,0,1-3.58,1.85V8.35c1.06,0,2.22.32,2.22,1.58V21.19c0,1.16-1.68,1.16-2.22,1.16v1.23h7V22.35c-.54,0-2.22,0-2.22-1.16v-2.8a8.14,8.14,0,0,0,3.18.7c3,0,6-2.1,6-6.94,0-4.4-2.69-6.59-4.46-6.59M25.75,17.7a5,5,0,0,1-2.91-1.08V9.16A7.53,7.53,0,0,1,26.2,7.85c1.63,0,3,1.93,3,4.79S28,17.7,25.75,17.7M27.61,5.56c-1,0-2.2.61-4.77,2.07V5.31H21.63a3.59,3.59,0,0,1-3.58,1.85V8.35c1.06,0,2.22.32,2.22,1.58V21.19c0,1.16-1.68,1.16-2.22,1.16v1.23h7V22.35c-.54,0-2.22,0-2.22-1.16v-2.8a8.14,8.14,0,0,0,3.18.7c3,0,6.05-2.1,6.05-6.94,0-4.4-2.69-6.59-4.46-6.59M8.69,4.37l2.22,6.47H6.44ZM18.2,17.23a2.15,2.15,0,0,1-2.42-1.75L10.44.91H8.37l-5,14C2.74,16.67,2,17.23.52,17.23H0v1.41H7.43V17.23H6.84c-1.78,0-2.37-.61-1.85-2.12l1-2.86h5.43l1,3c.55,1.61-.14,2-1.45,2h-.92v1.41h8.55V17.23Z"/></svg>