<svg id="Ebene_1" data-name="Ebene 1" xmlns="http://www.w3.org/2000/svg" viewBox="0 0 134.79 271.85"><defs><style>.cls-1{fill:#848484;}.cls-2{fill:#fff;}</style></defs><path class="cls-1" d="M19.55,69.75l.08-.32c.05-.2.13-.24.24-.24a1.18,1.18,0,0,1,.48.14,3.91,3.91,0,0,0,1.39.24,2,2,0,0,0,2.24-2,1.77,1.77,0,0,0-1.73-1.87L21,65.55c-.7-.07-1.48-.17-1.48-.88s.55-1,1.31-1a2.76,2.76,0,0,1,2.3,1.49h.58L23,62.68h-.49l-.12.33a.26.26,0,0,1-.28.2,1.24,1.24,0,0,1-.35-.06,3.84,3.84,0,0,0-1-.14,2,2,0,0,0-2.21,2c0,1.32,1.09,1.64,2.05,1.74l1.14.11c.7.07,1.23.35,1.23,1s-.47,1-1.27,1a3.77,3.77,0,0,1-2.89-1.86h-.58l.78,2.7Zm-4.93-.91c-.45,0-1.14-.06-1.14-.59V62.83h-.56a1.79,1.79,0,0,1-1.75.89H10v.58h1.14c.52,0,1.16.19,1.16.8v3.15c0,.53-.71.59-1.14.59H9.64v.57h6.51v-.57Zm-1.74-6.75a.92.92,0,1,0-.92-.92.9.9,0,0,0,.92.92M4.09,69a1.54,1.54,0,0,1-1.66-1.54V64.8A6.06,6.06,0,0,1,4.37,64C5.09,64,6,65,6,66.54S5.17,69,4.09,69M5,63A6.66,6.66,0,0,0,2.43,64V60.58H1.88a1.67,1.67,0,0,1-1.64,1H0v.57H.23c.5,0,1.07.22,1.07.81v6.83h.47L2.2,69a2.71,2.71,0,0,0,1.93.68,3.06,3.06,0,0,0,3.15-3.35C7.28,64,5.78,63,5,63"/><path class="cls-1" d="M21,45.05v-.57c-.3,0-1.1,0-1.1-.57V40.24l1.43-.48a1.73,1.73,0,0,1,.6-.12c.4,0,.69.21.69.76v3.51c0,.56-.79.57-1.09.57v.57H25v-.57h-.28c-.31,0-1-.07-1-.57v-4c0-.8-.35-1.3-1.1-1.3a3.1,3.1,0,0,0-1.14.27l-1.61.63v-1h-.55a1.63,1.63,0,0,1-1.64.89h-.18v.57h.17c.5,0,1.07.22,1.07.8v3.17c0,.52-.64.57-1,.57h-.28v.57Zm-8.23-5.83a1.27,1.27,0,0,1,1.39,1.1c0,.32-.2.46-.57.46h-2.7a2,2,0,0,1,1.88-1.56m2.63,4.33a2.69,2.69,0,0,1-1.91.81,2.73,2.73,0,0,1-2.69-2.82v-.1h4.38c.29,0,.44-.15.44-.55a2.58,2.58,0,0,0-2.8-2.32,3.21,3.21,0,0,0-3.25,3.36,3.3,3.3,0,0,0,3.46,3.34A3.28,3.28,0,0,0,15.82,44ZM4.76,45.09c.88.1,1.55.22,1.55.79s-1,1-2,1c-1.27,0-2.11-.43-2.11-1.16a1.1,1.1,0,0,1,.47-.86c.14,0,.29,0,.46.06ZM4,42.28a1.42,1.42,0,0,1-1.4-1.54A1.46,1.46,0,0,1,4,39.16a1.47,1.47,0,0,1,1.39,1.58A1.43,1.43,0,0,1,4,42.28m3.1-3.34c.45,0,.73-.19.73-.58a.64.64,0,0,0-.72-.63,1.06,1.06,0,0,0-1,1.26l.05.43A2.76,2.76,0,0,0,4,38.59c-1.58,0-2.66,1-2.66,2.17a1.92,1.92,0,0,0,1,1.68l-.71.67a.92.92,0,0,0-.39.68c0,.32.18.68.88.92C1.44,45,1,45.43,1,46c0,.95,1.29,1.47,3,1.47,1.43,0,3.31-.36,3.31-2,0-.84-.52-1.35-1.77-1.5L3.44,43.8c-.56-.06-1-.15-1-.47a.72.72,0,0,1,.22-.45l.18-.2A3.62,3.62,0,0,0,4,42.85c1.56,0,2.61-.89,2.61-2.11,0-.47-.07-.93-.07-1.34s.17-.46.56-.46"/><path class="cls-1" d="M21,32.88v-.57c-.3,0-1.09,0-1.09-.58V28.07l1.42-.49a2,2,0,0,1,.6-.12c.4,0,.69.22.69.77v3.5c0,.56-.79.58-1.09.58v.57H25v-.57h-.27c-.32,0-1-.08-1-.58v-4c0-.81-.35-1.3-1.1-1.3a3.07,3.07,0,0,0-1.14.26l-1.6.64v-1h-.56a1.62,1.62,0,0,1-1.63.89h-.19v.57h.17c.5,0,1.07.22,1.07.81v3.16c0,.53-.64.58-1,.58h-.28v.57Zm-5-.57c-.34,0-.93,0-.93-.58V26.3h-.56a1.6,1.6,0,0,1-1.6.89h-.21v.57h.2c.5,0,1,.22,1,.81v2.69l-.87.47A2.44,2.44,0,0,1,12,32.1c-.43,0-.66-.23-.66-.78v-5h-.52a1.67,1.67,0,0,1-1.67.89H8.88v.57h.23c.5,0,1.07.22,1.07.81v3.24c0,.8.36,1.29,1.17,1.29a2.94,2.94,0,0,0,1.37-.4L14,32.05V33.1l2.43-.22v-.57Zm-11.93.13a1.55,1.55,0,0,1-1.66-1.55V28.26a6.24,6.24,0,0,1,1.94-.81c.72,0,1.62,1,1.62,2.55s-.82,2.44-1.9,2.44m.88-6a6.66,6.66,0,0,0-2.54,1.08V24.05H1.88A1.67,1.67,0,0,1,.24,25H0v.57H.23c.5,0,1.07.22,1.07.81v6.83h.47l.43-.79a2.76,2.76,0,0,0,1.93.68,3.06,3.06,0,0,0,3.15-3.35c0-2.25-1.5-3.32-2.31-3.32"/><path class="cls-1" d="M23.6,14.25a3.68,3.68,0,0,0-2.15,1.29l-.29.29v-1.7H20.6A1.67,1.67,0,0,1,19,15h-.85v.57H19c.5,0,1.07.22,1.07.8v3.17c0,.52-.65.57-1,.57h-.95v.57h5.34v-.57H22.12c-.25,0-1-.05-1-.57V16.63l.72-.67a1.32,1.32,0,0,1,.84-.45,1.23,1.23,0,0,1,.43.1,1.47,1.47,0,0,0,.53.11.69.69,0,0,0,.76-.73.75.75,0,0,0-.84-.74m-10.79.62A1.27,1.27,0,0,1,14.2,16c0,.32-.2.47-.57.47h-2.7a2,2,0,0,1,1.88-1.56m2.63,4.32a2.71,2.71,0,0,1-1.91.82,2.74,2.74,0,0,1-2.69-2.83v-.1h4.38c.29,0,.44-.14.44-.54a2.59,2.59,0,0,0-2.8-2.33,3.21,3.21,0,0,0-3.25,3.36,3.3,3.3,0,0,0,3.46,3.35,3.28,3.28,0,0,0,2.75-1.3ZM5.26,15H5.6c.69,0,.8.4.68,1l-.66,3-.87-3.22H3.69L2.87,19l-.69-3.15c-.12-.57.08-.85.69-.85h.27v-.57h-3V15H.4c.34,0,.49.23.59.65l1.25,5H3l1-3.79L5.08,20.7h.78L7,15.87c.13-.53.31-.87.72-.87h.2v-.57H5.26Z"/><path class="cls-1" d="M12.81,2.69a1.27,1.27,0,0,1,1.39,1.1c0,.31-.2.46-.57.46h-2.7a2,2,0,0,1,1.88-1.56M15.44,7a2.67,2.67,0,0,1-1.91.82A2.74,2.74,0,0,1,10.84,5V4.91h4.38c.29,0,.44-.15.44-.55A2.59,2.59,0,0,0,12.86,2,3.21,3.21,0,0,0,9.61,5.39a3.3,3.3,0,0,0,3.46,3.35,3.28,3.28,0,0,0,2.75-1.3ZM3.82,7.89A.73.73,0,0,1,3,7.09V4.26H4.26c1.23,0,2,.61,2,1.85s-.88,1.78-2,1.78ZM3,1.44A.74.74,0,0,1,3.82.63H4.2C5.41.63,6,1.13,6,2.12c0,1.23-.9,1.51-2,1.51H3ZM4.69,8.52c1.45,0,3-.62,3-2.42A2.18,2.18,0,0,0,6,3.93,1.91,1.91,0,0,0,7.38,2.09C7.38.57,6,0,4.33,0H.21V.63H.55c.51,0,1.19.06,1.19.81V7.09c0,.74-.68.8-1.19.8H.21v.63Z"/><path class="cls-1" d="M50.11,87.68v-.57H48.6c-.45,0-1.15-.07-1.15-.59V78.85h-.57a1.83,1.83,0,0,1-1.75,1H44v.57h1.15c.51,0,1.14.21,1.14.82v5.33c0,.52-.7.59-1.14.59H43.61v.57Zm-9.91-.57c-.45,0-1.15-.07-1.15-.59V81.1h-.56a1.79,1.79,0,0,1-1.75.89H35.58v.57h1.15c.51,0,1.15.2,1.15.81v3.15c0,.52-.7.59-1.14.59H35.22v.57h6.5v-.57Zm-1.74-6.75a.91.91,0,0,0,.9-.93.92.92,0,0,0-1.83,0,.91.91,0,0,0,.93.93m-6.47,5c-.06,1-.58,1.53-1.46,1.53s-1.32-.56-1.32-1.6V82.14h3.3v-.73h-3.3V79.15h-.56c-.22,1.4-.82,2.27-2.18,2.37v.62H28v3.53a2.09,2.09,0,0,0,2.29,2.23c1.5,0,2.25-1,2.2-2.54Z"/><path class="cls-1" d="M38.09,75.5v-.57c-.3,0-1.1,0-1.1-.58V70.69l1.43-.49a2,2,0,0,1,.6-.12c.4,0,.69.22.69.77v3.5c0,.57-.79.58-1.1.58v.57h3.47v-.57H41.8c-.31,0-1-.08-1-.58v-4c0-.81-.35-1.3-1.11-1.3a3.28,3.28,0,0,0-1.13.26L37,70v-1h-.56a1.62,1.62,0,0,1-1.63.88h-.18v.57h.17c.5,0,1.07.22,1.07.81v3.16c0,.53-.64.58-1,.58h-.28v.57Zm-5-.57c-.34,0-.94,0-.94-.58V68.93h-.55a1.61,1.61,0,0,1-1.6.88h-.21v.57H30c.5,0,1,.22,1,.81v2.69l-.86.47a2.44,2.44,0,0,1-1.12.37c-.43,0-.66-.23-.66-.78v-5h-.52a1.69,1.69,0,0,1-1.67.88h-.24v.57h.23c.5,0,1.07.22,1.07.81v3.24c0,.8.36,1.29,1.17,1.29a2.94,2.94,0,0,0,1.37-.4L31,74.67v1l2.44-.22v-.57Z"/><path class="cls-1" d="M62.18,51.49l.07-.32c0-.21.13-.24.24-.24a1.33,1.33,0,0,1,.48.13,3.91,3.91,0,0,0,1.39.24,2,2,0,0,0,2.24-2,1.77,1.77,0,0,0-1.73-1.86l-1.23-.14c-.7-.07-1.48-.17-1.48-.87s.55-1,1.31-1a2.77,2.77,0,0,1,2.3,1.48h.58l-.75-2.47h-.49l-.12.33c-.06.16-.13.21-.28.21a1.24,1.24,0,0,1-.35-.06,3.42,3.42,0,0,0-1-.15,2,2,0,0,0-2.21,2c0,1.32,1.09,1.65,2,1.75l1.14.11c.7.07,1.23.35,1.23,1s-.47,1-1.27,1a3.8,3.8,0,0,1-2.89-1.87h-.58l.78,2.71Zm-7-.35v-.57c-.31,0-1.1,0-1.1-.57V46.33l1.43-.48a1.72,1.72,0,0,1,.59-.12c.41,0,.7.21.7.76V50c0,.56-.79.57-1.1.57v.57h3.47v-.57h-.28c-.31,0-1-.07-1-.57V46c0-.8-.35-1.3-1.11-1.3a3.1,3.1,0,0,0-1.13.27L54,45.59v-1h-.56a1.63,1.63,0,0,1-1.63.89h-.18V46h.17c.5,0,1.07.22,1.07.8V50c0,.52-.64.57-1,.57h-.28v.57Zm-8.45-.43c-1.22,0-1.95-1-1.95-2.68s.73-2.72,1.95-2.72,2,1,2,2.72-.73,2.68-2,2.68m0,.65A3.32,3.32,0,0,0,50.05,48a3.36,3.36,0,1,0-6.72,0,3.3,3.3,0,0,0,3.36,3.33m-6.49-.79c-.45,0-1.15-.06-1.15-.58V44.57h-.56a1.8,1.8,0,0,1-1.75.89H35.58V46h1.15c.51,0,1.15.19,1.15.8V50c0,.52-.7.58-1.14.58H35.22v.57h6.5v-.57Zm-1.74-6.74a.92.92,0,0,0,.9-.93.92.92,0,0,0-1.83,0,.92.92,0,0,0,.93.93m-6.47,5a1.41,1.41,0,0,1-1.46,1.52c-.88,0-1.32-.56-1.32-1.59V45.6h3.3v-.73h-3.3V42.62h-.56c-.22,1.4-.82,2.27-2.18,2.36v.62H28v3.54a2.08,2.08,0,0,0,2.29,2.22c1.5,0,2.25-1,2.2-2.53Z"/><path class="cls-1" d="M37.47,38.35a.94.94,0,0,1-1.07-1c0-.83.87-1.25,2.84-1.42v1.6a2.67,2.67,0,0,1-1.77.77m3.91-1c-.15.7-.36.89-.61.89s-.35-.11-.35-.52V34c0-1.1-.88-1.52-2.13-1.52-1.48,0-3,.58-3,1.81,0,.53.28,1,.82,1a.7.7,0,0,0,.76-.7,1,1,0,0,0-.08-.39.91.91,0,0,1-.09-.35c0-.5.87-.67,1.42-.67.76,0,1.12.33,1.12,1v1.15c-1.55.1-4.17.37-4.17,2.26,0,1,.66,1.61,1.92,1.61a3.57,3.57,0,0,0,2.31-.86,1.08,1.08,0,0,0,1.15.86c.65,0,1.29-.36,1.44-1.68ZM30.09,39.19a3.36,3.36,0,0,0,2.78-1.31l-.38-.42a2.67,2.67,0,0,1-4.58-2,2.1,2.1,0,0,1,1.92-2.31c.78,0,1,.58,1.16,1.11s.31.93.87.93a.72.72,0,0,0,.76-.82c0-1.15-1.37-1.87-2.7-1.87a3.23,3.23,0,0,0-3.26,3.37,3.26,3.26,0,0,0,3.43,3.34"/><path class="cls-1" d="M48.72,26.22c-.45,0-1.14-.06-1.14-.59V20.21H47a1.8,1.8,0,0,1-1.76.89H44.11v.57h1.14c.51,0,1.16.2,1.16.81v3.15c0,.53-.71.59-1.15.59H43.74v.57h6.5v-.57ZM47,19.47a.92.92,0,1,0-.92-.92.9.9,0,0,0,.92.92m-5.4,7.32v-.57H40.07c-.45,0-1.14-.06-1.14-.59V18h-.57a1.81,1.81,0,0,1-1.75.95H35.45v.57h1.14c.51,0,1.15.21,1.15.82v5.33c0,.53-.71.59-1.15.59H35.08v.57Zm-11.72-.45a2.55,2.55,0,0,1-1.62-.67V22.11a5.77,5.77,0,0,1,1.81-.75c.82,0,1.64,1.12,1.64,2.58s-.83,2.4-1.83,2.4m.8-6a6.55,6.55,0,0,0-2.42,1V20.21h-.56a1.61,1.61,0,0,1-1.63.89H25.8v.57H26c.49,0,1.07.22,1.07.81v5.6c0,.52-.65.57-1,.57H25.8v.57h4v-.57H29.2c-.32,0-1,0-1-.57V26.6a3.9,3.9,0,0,0,1.69.41,3.06,3.06,0,0,0,3-3.34c0-2.21-1.48-3.33-2.32-3.33"/><path class="cls-1" d="M38.38,14.16a2.57,2.57,0,0,1-1.62-.67V9.94a5.55,5.55,0,0,1,1.82-.76c.81,0,1.63,1.12,1.63,2.58s-.83,2.4-1.83,2.4m.81-6a6.57,6.57,0,0,0-2.43,1V8H36.2a1.63,1.63,0,0,1-1.63.89h-.24V9.5h.23c.5,0,1.07.22,1.07.8v5.6c0,.53-.64.58-1,.58h-.34v.57h4v-.57h-.61c-.31,0-1-.05-1-.58V14.42a3.91,3.91,0,0,0,1.7.41,3.06,3.06,0,0,0,3-3.33c0-2.22-1.47-3.34-2.31-3.34M29.41,7.09l1.06,3.71H28.3Zm-.32,7.52V14h-.36c-1,0-1.27-.33-1-1.11l.4-1.36h2.57L31.09,13c.21.75-.1,1-.84,1h-.49v.63h4V14h-.27c-.59,0-.83-.22-1-.86L30.32,6H29.09L27,12.82c-.27.87-.63,1.16-1.32,1.16h-.2v.63Z"/><path class="cls-1" d="M56,141.46v4H53.12Zm1.2-1.54h-.92l-4.68,6.62H56v2h1.2v-2h1.36l.24-1h-1.6Zm-7.77,6.27c-.51.85-.82,1.23-1.44,1.23H44.86a11.46,11.46,0,0,1,1.54-1.24l.46-.33c1.41-1,2.63-1.87,2.63-3.45a2.5,2.5,0,0,0-2.66-2.58c-1.83,0-2.71,1.42-2.88,2.93l.67.24c.28-1.22.91-2.17,2-2.17a1.57,1.57,0,0,1,1.54,1.75c0,1.15-.76,1.87-1.79,2.71l-.39.31a17.94,17.94,0,0,0-2.3,2.15v.82h3.82c.61,0,1,.22,1,.7h.5l1-3.07Z"/><path class="cls-1" d="M55.21,135.86c-1.45,0-1.69-1.73-1.69-3.75s.24-3.74,1.69-3.74,1.69,1.74,1.69,3.74-.24,3.75-1.69,3.75m0,.75c1.85,0,3.18-2,3.18-4.5s-1.33-4.48-3.18-4.48-3.2,2-3.2,4.48,1.35,4.5,3.2,4.5M49.38,134c-.51.86-.82,1.23-1.44,1.23H44.86A13.28,13.28,0,0,1,46.4,134l.46-.33c1.41-1,2.63-1.86,2.63-3.45a2.5,2.5,0,0,0-2.66-2.58c-1.83,0-2.71,1.43-2.88,2.94l.67.23c.28-1.22.91-2.17,2-2.17a1.57,1.57,0,0,1,1.54,1.76c0,1.14-.76,1.86-1.79,2.7l-.39.32a17.81,17.81,0,0,0-2.3,2.14v.83h3.82c.61,0,1,.22,1,.69h.5l1-3.07Z"/><path class="cls-1" d="M55.21,124.39a1,1,0,0,0,.95-1,1,1,0,0,0-1.91,0,1,1,0,0,0,1,1m-5.83-2.56c-.51.86-.82,1.23-1.44,1.23H44.86a13.28,13.28,0,0,1,1.54-1.24l.46-.33c1.41-1,2.63-1.86,2.63-3.44a2.49,2.49,0,0,0-2.66-2.58c-1.83,0-2.71,1.42-2.88,2.93l.67.23c.28-1.22.91-2.17,2-2.17a1.58,1.58,0,0,1,1.54,1.76c0,1.14-.76,1.86-1.79,2.7l-.39.32a17.81,17.81,0,0,0-2.3,2.14v.83h3.82c.61,0,1,.22,1,.69h.5l1-3.07Z"/><path class="cls-1" d="M55.21,112.21a1,1,0,1,0-1-1,1,1,0,0,0,1,1m-5.83-2.55c-.51.85-.82,1.23-1.44,1.23H44.86a12.41,12.41,0,0,1,1.54-1.25l.46-.32c1.41-1,2.63-1.87,2.63-3.45a2.5,2.5,0,0,0-2.66-2.58c-1.83,0-2.71,1.42-2.88,2.93l.67.23c.28-1.21.91-2.16,2-2.16A1.57,1.57,0,0,1,48.14,106c0,1.14-.76,1.86-1.79,2.7l-.39.32a17.81,17.81,0,0,0-2.3,2.14V112h3.82c.61,0,1,.22,1,.69h.5l1-3.06ZM41.66,112v-.63h-1.1c-.49,0-1.46-.09-1.46-.87v-7.14h-.63A2.51,2.51,0,0,1,36.06,105h-.51v.63h1.8c.3,0,.53.13.53.49v4.44c0,.78-1,.87-1.47.87H35.33V112Z"/><path class="cls-2" d="M55.42,265.79a1.28,1.28,0,0,1,1.39,1.1c0,.32-.2.46-.58.46H53.54a2,2,0,0,1,1.88-1.56m2.63,4.33a2.69,2.69,0,0,1-1.91.81,2.74,2.74,0,0,1-2.7-2.82V268h4.39c.29,0,.44-.15.44-.55a2.59,2.59,0,0,0-2.8-2.32,3.21,3.21,0,0,0-3.25,3.36,3.48,3.48,0,0,0,6.2,2Zm-11.51,1a2.18,2.18,0,0,1-1.85-2.42,2.27,2.27,0,0,1,1.75-2.46,5.38,5.38,0,0,1,1.87.76v2.78c-.42.6-1,1.34-1.77,1.34m3.84-.05c-.35,0-.94,0-.94-.58V262.8h-.56a1.64,1.64,0,0,1-1.63.95H47v.57h.23c.5,0,1.08.22,1.08.81v1.09a7.08,7.08,0,0,0-2.33-.87,3.12,3.12,0,0,0-2.58,3.31,3,3,0,0,0,2.87,3.19,2.5,2.5,0,0,0,2-1.12v1.12l2.43-.22v-.57Z"/><path class="cls-2" d="M80.77,259.63a1,1,0,1,0-1-1,1,1,0,0,0,1,1m-4.83-.75a1,1,0,0,1-1.08-.55L73,255.6l1.49-1.34a1.63,1.63,0,0,1,1.17-.51h.16v-.57H72.42v.57h.47c.4,0,.55.13.55.34a.63.63,0,0,1-.27.48l-2.1,1.93v-5.88h-.56a1.66,1.66,0,0,1-1.64.95h-.24v.57h.23c.5,0,1.07.22,1.07.81v5.36c0,.52-.64.57-1,.57h-.34v.57H72v-.57h-.15c-.33,0-.81-.07-.81-.57v-1l1-.9L73.27,258a.88.88,0,0,1,.22.5c0,.14-.06.35-.48.35h-.33v.57h3.45v-.57ZM63.72,259c-1.21,0-1.95-1-1.95-2.68s.74-2.71,1.95-2.71,2,1,2,2.71-.73,2.68-2,2.68m0,.66a3.31,3.31,0,0,0,3.36-3.34,3.36,3.36,0,1,0-6.72,0,3.31,3.31,0,0,0,3.36,3.34M55.2,259c-1.22,0-2-1-2-2.68s.73-2.71,2-2.71,1.95,1,1.95,2.71S56.42,259,55.2,259m0,.66a3.32,3.32,0,0,0,3.36-3.34,3.36,3.36,0,1,0-6.72,0,3.31,3.31,0,0,0,3.36,3.34M46.7,259A1.54,1.54,0,0,1,45,257.47v-2.63A6.06,6.06,0,0,1,47,254c.72,0,1.62,1,1.62,2.56S47.78,259,46.7,259m.88-6A6.66,6.66,0,0,0,45,254.08v-3.46h-.56a1.64,1.64,0,0,1-1.63.95h-.24v.57h.23c.5,0,1.07.22,1.07.81v6.83h.46l.44-.79a2.69,2.69,0,0,0,1.93.68,3.07,3.07,0,0,0,3.15-3.35c0-2.25-1.5-3.32-2.31-3.32"/><path class="cls-2" d="M46,246.65a.94.94,0,0,1-1.07-1c0-.83.88-1.24,2.84-1.41v1.6a2.7,2.7,0,0,1-1.77.76m3.91-1c-.15.71-.35.89-.61.89s-.35-.11-.35-.51V242.3c0-1.09-.88-1.52-2.13-1.52-1.48,0-3,.59-3,1.82a.84.84,0,0,0,.82,1,.71.71,0,0,0,.76-.71,1,1,0,0,0-.08-.39.86.86,0,0,1-.09-.34c0-.5.87-.67,1.42-.67.76,0,1.12.33,1.12,1v1.14c-1.55.11-4.17.38-4.17,2.27,0,1,.66,1.6,1.92,1.6a3.57,3.57,0,0,0,2.31-.85,1.08,1.08,0,0,0,1.15.85c.65,0,1.29-.35,1.44-1.68Z"/><path class="cls-2" d="M62.16,235.44l.08-.32c0-.21.13-.24.24-.24A1.28,1.28,0,0,1,63,235a4,4,0,0,0,1.39.24,2,2,0,0,0,2.24-2,1.77,1.77,0,0,0-1.72-1.86l-1.24-.13c-.69-.08-1.47-.18-1.47-.88s.55-1,1.3-1a2.77,2.77,0,0,1,2.31,1.48h.58l-.75-2.47H65.1l-.12.33a.26.26,0,0,1-.28.21,1.24,1.24,0,0,1-.36-.06,3.29,3.29,0,0,0-1-.15,2,2,0,0,0-2.22,2c0,1.31,1.1,1.64,2.06,1.74l1.13.11c.71.07,1.23.35,1.23,1s-.46,1-1.26,1a3.79,3.79,0,0,1-2.89-1.87h-.58l.78,2.71Zm-4.61-2.66a1.43,1.43,0,0,1-1.46,1.53c-.88,0-1.32-.57-1.32-1.6v-3.16h3.3v-.72h-3.3v-2.26h-.56c-.22,1.4-.83,2.27-2.18,2.36v.62h1.55v3.54a2.08,2.08,0,0,0,2.29,2.22c1.5,0,2.25-1,2.2-2.53Zm-8.84,1.74c-.45,0-1.15-.06-1.15-.58v-5.42H47a1.78,1.78,0,0,1-1.75.89H44.09V230h1.15c.51,0,1.15.2,1.15.8v3.16c0,.52-.7.58-1.14.58H43.73v.58h6.5v-.58ZM47,227.78a.91.91,0,0,0,.9-.93.92.92,0,0,0-1.83,0,.92.92,0,0,0,.93.93"/><path class="cls-2" d="M45.89,221c-.14,0-.28-.17-.28-.76,0-1.55.92-2.78,1.58-2.78.25,0,.36.19.48.44-.43,1.09-1.28,3.1-1.78,3.1m.94,3.85c1.07,0,2.34-.43,3.21-2.45l-.36-.3A2.93,2.93,0,0,1,47.05,224c-1.86,0-3-1.73-3-4.27,0-2.82,1.31-4.7,3.08-4.7,1.56,0,2.56,1.43,2.56,3.38,0,1.54-.62,2.83-1.33,2.83-.34,0-.4-.3-.4-.56a5.22,5.22,0,0,1,.25-1.28l.69-2.45h-.39l-.36.35a1,1,0,0,0-.81-.36c-1.11,0-2.53,1.59-2.53,3.48,0,1.08.43,1.4.8,1.4.85,0,1.56-1.67,2-2.63h.21l-.49,1.37a1.42,1.42,0,0,0-.1.51.78.78,0,0,0,.87.82c1.08,0,2.18-1.27,2.18-3.73s-1.08-4-2.87-4c-2.1,0-3.89,2.18-3.89,5.85,0,2.56,1,4.82,3.38,4.82"/><path class="cls-2" d="M62.16,211.08l.08-.31c0-.21.13-.25.24-.25a1.22,1.22,0,0,1,.48.14,3.89,3.89,0,0,0,1.38.24,2,2,0,0,0,2.24-2A1.77,1.77,0,0,0,64.86,207l-1.23-.13c-.7-.07-1.48-.17-1.48-.88s.55-1,1.3-1a2.76,2.76,0,0,1,2.31,1.49h.58L65.59,204H65.1l-.12.33a.27.27,0,0,1-.28.2,1.24,1.24,0,0,1-.36-.06,3.7,3.7,0,0,0-1-.14,2,2,0,0,0-2.22,2c0,1.32,1.1,1.64,2.06,1.74l1.13.11c.71.07,1.23.36,1.23,1s-.46,1-1.26,1a3.77,3.77,0,0,1-2.89-1.86h-.58l.78,2.7Zm-4.48-6.79a3.66,3.66,0,0,0-2.14,1.29l-.29.29v-1.7h-.56a1.68,1.68,0,0,1-1.65.89h-.85v.57H53c.5,0,1.07.22,1.07.8v3.17c0,.52-.64.57-1,.57h-1v.57h5.35v-.57H56.21c-.26,0-1,0-1-.57v-2.93L56,206a1.27,1.27,0,0,1,.84-.45,1.18,1.18,0,0,1,.42.1,1.48,1.48,0,0,0,.54.11.68.68,0,0,0,.75-.73.75.75,0,0,0-.84-.74m-10.79.62A1.26,1.26,0,0,1,48.28,206c0,.32-.19.47-.57.47H45a2,2,0,0,1,1.87-1.56m2.63,4.32a2.69,2.69,0,0,1-1.91.82,2.74,2.74,0,0,1-2.69-2.83v-.1H49.3c.3,0,.44-.14.44-.54a2.59,2.59,0,0,0-2.8-2.33,3.22,3.22,0,0,0-3.25,3.36A3.3,3.3,0,0,0,47.15,211a3.26,3.26,0,0,0,2.75-1.3Z"/><path class="cls-2" d="M75.87,198c-.31,0-1-.07-1-.57v-4c0-.8-.35-1.3-1.1-1.3a3.1,3.1,0,0,0-1.14.27l-1.61.63v-3.27h-.55a1.61,1.61,0,0,1-1.6.95h-.24v.57h.23c.5,0,1,.22,1,.8v5.36c0,.52-.64.57-1,.57h-.28v.57h3.47V198c-.3,0-1.1,0-1.1-.57v-3.67l1.43-.48a1.86,1.86,0,0,1,.61-.13c.4,0,.68.22.68.77v3.51c0,.57-.79.57-1.09.57v.57h3.46V198Zm-13.71.91.08-.31c0-.21.13-.24.24-.24a1.28,1.28,0,0,1,.47.13,4,4,0,0,0,1.39.24,2,2,0,0,0,2.24-2,1.77,1.77,0,0,0-1.72-1.86l-1.23-.14c-.7-.07-1.48-.17-1.48-.87s.55-1,1.3-1a2.77,2.77,0,0,1,2.31,1.48h.58l-.75-2.47H65.1l-.12.33a.26.26,0,0,1-.28.21,1.74,1.74,0,0,1-.36-.06,3.29,3.29,0,0,0-1-.15,2,2,0,0,0-2.22,2c0,1.32,1.1,1.65,2.06,1.75l1.13.11c.71.07,1.23.35,1.23,1s-.46,1-1.26,1a3.79,3.79,0,0,1-2.89-1.87h-.58l.78,2.7ZM57.23,198c-.45,0-1.14-.06-1.14-.58V192h-.56a1.81,1.81,0,0,1-1.76.89H52.62v.57h1.14c.51,0,1.16.19,1.16.8v3.16c0,.52-.71.58-1.15.58H52.25v.57h6.5V198Zm-1.74-6.75a.92.92,0,1,0-.92-.92.9.9,0,0,0,.92.92m-5.39,7.32V198H48.59c-.46,0-1.15-.06-1.15-.58v-7.67h-.57a1.83,1.83,0,0,1-1.75.95H44v.57H45.1c.52,0,1.15.2,1.15.81v5.34c0,.52-.71.58-1.15.58H43.59v.57Z"/><path class="cls-2" d="M63.75,186a1.55,1.55,0,0,1-1.66-1.55v-2.63A6.11,6.11,0,0,1,64,181c.72,0,1.62,1,1.62,2.56s-.82,2.44-1.9,2.44m.87-6A6.81,6.81,0,0,0,62.09,181v-3.46h-.56a1.66,1.66,0,0,1-1.63.95h-.24v.57h.23c.5,0,1.07.22,1.07.8v6.83h.46l.44-.79a2.69,2.69,0,0,0,1.92.69,3.07,3.07,0,0,0,3.16-3.35c0-2.26-1.5-3.33-2.32-3.33m-6,5.89c-.34,0-.94,0-.94-.58v-5.43h-.56a1.59,1.59,0,0,1-1.59.89h-.21v.57h.2c.5,0,1,.22,1,.81v2.69l-.86.47a2.47,2.47,0,0,1-1.12.37c-.43,0-.66-.23-.66-.78v-5H53.4a1.67,1.67,0,0,1-1.67.89h-.24v.57h.23c.5,0,1.07.22,1.07.81v3.24c0,.8.36,1.29,1.17,1.29a2.86,2.86,0,0,0,1.37-.41l1.23-.64v1.05l2.44-.22v-.57Zm-11.74.12a2.57,2.57,0,0,1-1.62-.67v-3.56a5.55,5.55,0,0,1,1.82-.76c.81,0,1.63,1.13,1.63,2.59s-.83,2.4-1.83,2.4m.81-6a6.57,6.57,0,0,0-2.43,1v-1.14h-.56a1.61,1.61,0,0,1-1.63.89h-.24v.57h.23c.5,0,1.07.22,1.07.81v5.6c0,.52-.64.57-1,.57h-.34v.57h4v-.57h-.6c-.32,0-1-.05-1-.57v-1.49a3.78,3.78,0,0,0,1.7.42,3.06,3.06,0,0,0,3-3.34c0-2.22-1.47-3.34-2.31-3.34"/><path class="cls-2" d="M106.58,253.62a1.26,1.26,0,0,1,1.38,1.09c0,.32-.19.47-.57.47H104.7a2,2,0,0,1,1.88-1.56m2.63,4.32a2.68,2.68,0,0,1-4.61-2v-.1H109c.29,0,.43-.14.43-.54a2.58,2.58,0,0,0-2.8-2.33,3.21,3.21,0,0,0-3.25,3.36,3.3,3.3,0,0,0,3.46,3.35,3.26,3.26,0,0,0,2.75-1.3Zm-11.51,1a2.17,2.17,0,0,1-1.85-2.41,2.26,2.26,0,0,1,1.75-2.46,5.42,5.42,0,0,1,1.86.75v2.78c-.41.61-.95,1.34-1.76,1.34m3.83-.05c-.34,0-.93,0-.93-.57v-7.69H100a1.65,1.65,0,0,1-1.63.95h-.25v.57h.23c.5,0,1.07.22,1.07.81V254a7,7,0,0,0-2.32-.87,3.12,3.12,0,0,0-2.58,3.31,3,3,0,0,0,2.87,3.19,2.44,2.44,0,0,0,2-1.12v1.12l2.44-.22v-.57Z"/><path class="cls-2" d="M131.93,247.46a1,1,0,0,0,.95-1,1,1,0,0,0-1.91,0,1,1,0,0,0,1,1m-4.84-.76a1,1,0,0,1-1.07-.55l-1.9-2.72,1.5-1.34a1.59,1.59,0,0,1,1.17-.52H127V241h-3.38v.57h.48c.4,0,.55.14.55.35a.67.67,0,0,1-.27.47l-2.11,1.94v-5.88h-.56a1.66,1.66,0,0,1-1.63,1h-.24V240H120c.5,0,1.07.22,1.07.8v5.36c0,.52-.64.57-1,.57h-.34v.57h3.39v-.57H123c-.33,0-.82-.07-.82-.57v-1l1-.9,1.2,1.66a.88.88,0,0,1,.22.5c0,.15-.07.35-.48.35h-.33v.57h3.45v-.57Zm-12.21.14c-1.22,0-1.95-1-1.95-2.68s.73-2.72,1.95-2.72,2,1.05,2,2.72-.73,2.68-2,2.68m0,.65a3.31,3.31,0,0,0,3.36-3.33,3.36,3.36,0,1,0-6.72,0,3.3,3.3,0,0,0,3.36,3.33m-8.52-.65c-1.22,0-2-1-2-2.68s.73-2.72,2-2.72,2,1.05,2,2.72-.74,2.68-2,2.68m0,.65a3.32,3.32,0,0,0,3.36-3.33,3.36,3.36,0,1,0-6.72,0,3.3,3.3,0,0,0,3.36,3.33m-8.5-.65a1.55,1.55,0,0,1-1.66-1.55v-2.63a5.88,5.88,0,0,1,1.94-.82c.72,0,1.62,1,1.62,2.56s-.82,2.44-1.9,2.44m.87-6a6.71,6.71,0,0,0-2.53,1.08v-3.45h-.56a1.66,1.66,0,0,1-1.63,1h-.24V240H94c.5,0,1.07.22,1.07.8v6.83h.46l.44-.79a2.69,2.69,0,0,0,1.92.68,3.07,3.07,0,0,0,3.16-3.35c0-2.25-1.5-3.32-2.32-3.32"/><path class="cls-2" d="M97.14,234.48a.94.94,0,0,1-1.07-.95c0-.83.87-1.25,2.83-1.42v1.6a2.67,2.67,0,0,1-1.76.77m3.91-.95c-.15.7-.36.89-.61.89s-.36-.11-.36-.52v-3.77c0-1.1-.87-1.52-2.13-1.52-1.47,0-3,.58-3,1.81a.84.84,0,0,0,.81,1,.71.71,0,0,0,.77-.71,1.29,1.29,0,0,0-.08-.39.86.86,0,0,1-.09-.34c0-.5.87-.67,1.41-.67.77,0,1.12.33,1.12,1v1.14c-1.54.11-4.16.38-4.16,2.27,0,.95.66,1.6,1.92,1.6a3.57,3.57,0,0,0,2.31-.85,1.08,1.08,0,0,0,1.15.85c.65,0,1.29-.35,1.44-1.67Z"/><path class="cls-2" d="M113.32,223.26l.07-.32c0-.2.14-.24.25-.24a1.34,1.34,0,0,1,.47.13,3.72,3.72,0,0,0,1.39.25,2,2,0,0,0,2.24-2,1.77,1.77,0,0,0-1.73-1.87l-1.23-.13c-.69-.07-1.47-.17-1.47-.88s.55-1,1.3-1a2.75,2.75,0,0,1,2.3,1.49h.59l-.76-2.47h-.48l-.12.32c-.07.16-.14.21-.29.21a1.24,1.24,0,0,1-.35-.06,3.8,3.8,0,0,0-1-.15,2,2,0,0,0-2.22,2c0,1.31,1.1,1.64,2.06,1.74l1.13.11c.71.07,1.23.35,1.23,1s-.46,1-1.26,1a3.76,3.76,0,0,1-2.89-1.86H112l.77,2.7Zm-4.61-2.65a1.42,1.42,0,0,1-1.46,1.52c-.88,0-1.32-.56-1.32-1.6v-3.15h3.3v-.73h-3.3V214.4h-.56c-.22,1.4-.83,2.26-2.18,2.36v.62h1.55v3.53a2.09,2.09,0,0,0,2.29,2.23c1.49,0,2.25-1,2.2-2.53Zm-8.84,1.74c-.46,0-1.15-.06-1.15-.59v-5.42h-.56a1.79,1.79,0,0,1-1.75.89H95.25v.57H96.4c.51,0,1.15.2,1.15.81v3.15c0,.53-.7.59-1.14.59H94.89v.57h6.5v-.57Zm-1.75-6.75a.9.9,0,0,0,.9-.93.91.91,0,1,0-1.82,0,.91.91,0,0,0,.92.93"/><path class="cls-2" d="M97.05,208.82c-.14,0-.28-.17-.28-.76,0-1.54.92-2.78,1.57-2.78.26,0,.37.19.49.44-.44,1.09-1.28,3.1-1.78,3.1m.94,3.86c1.07,0,2.34-.44,3.2-2.46l-.35-.3a2.91,2.91,0,0,1-2.63,1.89c-1.86,0-3-1.73-3-4.27,0-2.81,1.31-4.7,3.08-4.7,1.56,0,2.56,1.44,2.56,3.38,0,1.54-.63,2.83-1.33,2.83-.34,0-.4-.29-.4-.56a4.79,4.79,0,0,1,.25-1.28l.68-2.45h-.39l-.35.35a1.07,1.07,0,0,0-.81-.36c-1.11,0-2.54,1.59-2.54,3.48,0,1.09.44,1.4.81,1.4.85,0,1.56-1.66,2-2.63h.2l-.48,1.37a1.47,1.47,0,0,0-.1.51.79.79,0,0,0,.86.83c1.09,0,2.18-1.28,2.18-3.74s-1.07-4-2.86-4c-2.11,0-3.89,2.18-3.89,5.86,0,2.55,1,4.82,3.38,4.82"/><path class="cls-2" d="M130.37,198.9l.07-.31c.05-.21.14-.25.25-.25a1.37,1.37,0,0,1,.47.14,4,4,0,0,0,1.39.24,2,2,0,0,0,2.24-2,1.77,1.77,0,0,0-1.73-1.86l-1.23-.14c-.69-.07-1.47-.17-1.47-.87s.55-1,1.3-1a2.77,2.77,0,0,1,2.3,1.48h.59l-.76-2.47h-.48l-.13.33c-.06.16-.13.21-.28.21a1.78,1.78,0,0,1-.35-.06,3.41,3.41,0,0,0-1-.15,2,2,0,0,0-2.22,2c0,1.32,1.09,1.65,2.06,1.75l1.13.1c.71.08,1.23.36,1.23,1s-.46,1-1.27,1a3.77,3.77,0,0,1-2.88-1.87H129l.78,2.7Zm-4.61-2.65a1.43,1.43,0,0,1-1.47,1.52c-.87,0-1.31-.56-1.31-1.59V193h3.3v-.73H123V190h-.56c-.22,1.4-.83,2.27-2.18,2.36V193h1.55v3.54a2.08,2.08,0,0,0,2.28,2.22c1.5,0,2.26-1,2.21-2.53Zm-11,2.31V198c-.31,0-1.1,0-1.1-.57v-3.67l1.43-.48a1.75,1.75,0,0,1,.59-.13c.41,0,.7.22.7.77v3.51c0,.56-.79.57-1.1.57v.57h3.47V198h-.28c-.32,0-1-.07-1-.57v-4c0-.8-.35-1.3-1.11-1.3a3.1,3.1,0,0,0-1.13.27l-1.61.63v-1h-.56a1.63,1.63,0,0,1-1.63.89h-.18v.57h.17c.5,0,1.07.22,1.07.8v3.17c0,.52-.65.57-1,.57h-.28v.57Zm-8.23-5.83a1.26,1.26,0,0,1,1.38,1.1c0,.31-.19.46-.57.46H104.7a2,2,0,0,1,1.88-1.56m2.63,4.32a2.69,2.69,0,0,1-1.92.82A2.74,2.74,0,0,1,104.6,195V195H109c.29,0,.43-.15.43-.55a2.58,2.58,0,0,0-2.8-2.33,3.22,3.22,0,0,0-3.25,3.36,3.3,3.3,0,0,0,3.46,3.35,3.26,3.26,0,0,0,2.75-1.3ZM97.7,198a2.17,2.17,0,0,1-1.85-2.41,2.27,2.27,0,0,1,1.75-2.46,5.42,5.42,0,0,1,1.86.75v2.78c-.41.61-.95,1.34-1.76,1.34m3.83,0c-.34,0-.93,0-.93-.57v-7.68H100a1.67,1.67,0,0,1-1.63.95h-.25v.57h.23c.5,0,1.07.22,1.07.8v1.1a6.86,6.86,0,0,0-2.32-.88,3.12,3.12,0,0,0-2.58,3.31,3,3,0,0,0,2.87,3.19,2.44,2.44,0,0,0,2-1.12v1.12l2.44-.22V198Z"/><path class="cls-2" d="M118.31,185.81c-.34,0-.93,0-.93-.57v-5.43h-.56a1.6,1.6,0,0,1-1.6.89H115v.57h.2c.5,0,1,.22,1,.81v2.69l-.86.47a2.44,2.44,0,0,1-1.12.37c-.43,0-.66-.23-.66-.78v-5h-.52a1.67,1.67,0,0,1-1.67.89h-.24v.57h.23c.5,0,1.07.22,1.07.81v3.24c0,.8.36,1.28,1.17,1.28a2.83,2.83,0,0,0,1.37-.4l1.23-.64v1l2.44-.21v-.58Zm-9.6-1.74a1.42,1.42,0,0,1-1.47,1.53c-.87,0-1.31-.56-1.31-1.6v-3.16h3.3v-.72h-3.3v-2.26h-.56c-.22,1.4-.83,2.27-2.18,2.37v.61h1.55v3.54A2.08,2.08,0,0,0,107,186.6c1.49,0,2.25-1,2.2-2.53Zm-12.44,2.66.08-.32c0-.21.13-.24.24-.24a1.28,1.28,0,0,1,.47.13,4,4,0,0,0,1.39.24,2,2,0,0,0,2.24-2A1.77,1.77,0,0,0,99,182.66l-1.23-.13c-.69-.08-1.47-.17-1.47-.88s.55-1,1.3-1a2.77,2.77,0,0,1,2.31,1.48h.58l-.75-2.47h-.49l-.12.33a.26.26,0,0,1-.28.21,1.24,1.24,0,0,1-.36-.06,3.29,3.29,0,0,0-1-.15,2,2,0,0,0-2.22,2c0,1.31,1.1,1.64,2.06,1.74l1.13.11c.71.07,1.23.35,1.23,1s-.46,1-1.26,1A3.76,3.76,0,0,1,95.53,184H95l.78,2.71Z"/></svg>