<svg id="Ebene_1" data-name="Ebene 1" xmlns="http://www.w3.org/2000/svg" viewBox="0 0 213.31 219.12"><defs><style>.cls-1{fill:#848484;}</style></defs><path class="cls-1" d="M12.49,173.46a1.27,1.27,0,0,1,1.39,1.1c0,.32-.19.46-.57.46H10.62a2,2,0,0,1,1.87-1.56m2.63,4.33a2.68,2.68,0,0,1-1.91.81,2.73,2.73,0,0,1-2.69-2.82v-.1H14.9c.3,0,.44-.14.44-.55a2.59,2.59,0,0,0-2.8-2.32,3.21,3.21,0,0,0-3.25,3.36,3.3,3.3,0,0,0,3.46,3.35,3.3,3.3,0,0,0,2.75-1.3ZM2.19,179.64l.07-.32c.05-.2.14-.24.25-.24a1.34,1.34,0,0,1,.47.13,3.72,3.72,0,0,0,1.39.25,2,2,0,0,0,2.24-2,1.77,1.77,0,0,0-1.73-1.87l-1.23-.13c-.69-.08-1.47-.17-1.47-.88s.55-1,1.3-1A2.75,2.75,0,0,1,5.78,175h.59l-.76-2.48H5.13l-.13.33c-.06.16-.13.21-.28.21a1.24,1.24,0,0,1-.35-.06,3.8,3.8,0,0,0-1-.15,2,2,0,0,0-2.22,2c0,1.31,1.1,1.64,2.06,1.74l1.13.11c.71.07,1.23.35,1.23,1s-.46,1.05-1.27,1.05a3.76,3.76,0,0,1-2.88-1.86H.86l.78,2.7Z"/><path class="cls-1" d="M19.24,167.46l.07-.31c.05-.21.14-.25.24-.25A1.18,1.18,0,0,1,20,167a4,4,0,0,0,1.39.24,2,2,0,0,0,2.24-2,1.76,1.76,0,0,0-1.73-1.86l-1.23-.14c-.69-.07-1.47-.17-1.47-.88s.54-1,1.3-1a2.78,2.78,0,0,1,2.3,1.49h.59l-.76-2.47h-.49l-.12.33a.25.25,0,0,1-.28.2,1.24,1.24,0,0,1-.35-.06,3.84,3.84,0,0,0-1-.14,2,2,0,0,0-2.21,2c0,1.32,1.09,1.65,2.06,1.74l1.13.11c.71.08,1.23.36,1.23,1s-.46,1-1.27,1a3.76,3.76,0,0,1-2.88-1.86h-.59l.78,2.7Zm-6.75-6.17a1.26,1.26,0,0,1,1.39,1.09c0,.32-.19.47-.57.47H10.62a2,2,0,0,1,1.87-1.56m2.63,4.32a2.69,2.69,0,0,1-1.91.82,2.74,2.74,0,0,1-2.69-2.83v-.1H14.9c.3,0,.44-.14.44-.54a2.59,2.59,0,0,0-2.8-2.33A3.22,3.22,0,0,0,9.29,164a3.3,3.3,0,0,0,3.46,3.35A3.27,3.27,0,0,0,15.5,166ZM7.24,162c0-.8-.29-1.33-1-1.33a2.45,2.45,0,0,0-.88.23l-1,.45a.9.9,0,0,0-1-.68,2.72,2.72,0,0,0-.88.26l-.9.39v-.79H1a1.51,1.51,0,0,1-1.41.89V162c.62,0,.93.18.93.8V166c0,.57-.48.57-.79.57v.57H2.32v-.57c-.26,0-.74,0-.74-.57v-4l.49-.19a2,2,0,0,1,.62-.14c.38,0,.68.24.68.79V166c0,.57-.55.57-.73.57v.57H5.15v-.57c-.2,0-.74,0-.74-.57v-4l.5-.2a2,2,0,0,1,.62-.14c.38,0,.68.24.68.79V166c0,.57-.5.57-.74.57v.57H8v-.57c-.27,0-.8,0-.8-.57Z"/><path class="cls-1" d="M33,154.37c-.32,0-1-.07-1-.57v-4c0-.8-.35-1.3-1.11-1.3a3.1,3.1,0,0,0-1.13.27l-1.61.63v-3.27h-.56a1.61,1.61,0,0,1-1.59.95h-.25v.57H26c.5,0,1,.22,1,.8v5.36c0,.52-.65.57-1,.57h-.28v.57h3.47v-.57c-.31,0-1.1,0-1.1-.57v-3.67l1.43-.48a1.76,1.76,0,0,1,.6-.13c.41,0,.69.22.69.77v3.51c0,.57-.8.57-1.1.57v.57h3.47v-.57Zm-11.7.79a3.35,3.35,0,0,0,2.77-1.3l-.37-.43a2.74,2.74,0,0,1-1.93.82,2.7,2.7,0,0,1-2.65-2.84,2.09,2.09,0,0,1,1.92-2.3c.78,0,1,.57,1.16,1.11s.3.92.86.92a.72.72,0,0,0,.77-.81c0-1.16-1.38-1.88-2.7-1.88a3.36,3.36,0,0,0,.17,6.71m-5.54-.79c-.34,0-.94,0-.94-.57v-5.43h-.56a1.61,1.61,0,0,1-1.6.89h-.2v.57h.19c.5,0,1,.22,1,.8v2.69l-.87.48a2.5,2.5,0,0,1-1.12.36c-.42,0-.66-.23-.66-.77v-5h-.52a1.69,1.69,0,0,1-1.67.89H8.56v.57h.23c.5,0,1.07.22,1.07.8v3.24c0,.81.37,1.29,1.17,1.29a3,3,0,0,0,1.38-.4l1.23-.64v1l2.43-.22v-.57Zm-12.2-.06a.74.74,0,0,1-.82-.8v-2.83H3.94c1.23,0,2,.61,2,1.85s-.88,1.78-2,1.78Zm-.82-6.45a.74.74,0,0,1,.82-.81h.37c1.21,0,1.78.5,1.78,1.49,0,1.23-.9,1.51-2,1.51h-1Zm1.68,7.08c1.45,0,3-.62,3-2.42a2.19,2.19,0,0,0-1.73-2.17,1.91,1.91,0,0,0,1.41-1.84c0-1.52-1.4-2.09-3-2.09H-.11v.63H.23c.51,0,1.19.06,1.19.81v5.65c0,.74-.68.8-1.19.8H-.11v.63Z"/><path class="cls-1" d="M23.28,124.14a3.61,3.61,0,0,0-2.14,1.29l-.29.29V124h-.56a1.66,1.66,0,0,1-1.65.89h-.85v.57h.84c.5,0,1.07.22,1.07.81v3.17c0,.52-.64.57-1,.57h-.95v.57h5.34V130H21.81c-.26,0-1-.05-1-.57v-2.93l.71-.67a1.27,1.27,0,0,1,.84-.45,1.18,1.18,0,0,1,.43.1,1.48,1.48,0,0,0,.54.11.68.68,0,0,0,.75-.73.74.74,0,0,0-.84-.74m-10.79.62a1.26,1.26,0,0,1,1.39,1.09c0,.32-.19.47-.57.47H10.62a2,2,0,0,1,1.87-1.56m2.63,4.32a2.69,2.69,0,0,1-1.91.82,2.74,2.74,0,0,1-2.69-2.83V127H14.9c.3,0,.44-.14.44-.54a2.59,2.59,0,0,0-2.8-2.33,3.21,3.21,0,0,0-3.25,3.36,3.3,3.3,0,0,0,3.46,3.35,3.28,3.28,0,0,0,2.75-1.3ZM4.44,130.63c.88.09,1.55.22,1.55.79s-1,1-2,1c-1.27,0-2.11-.42-2.11-1.15a1.15,1.15,0,0,1,.46-.87,3.2,3.2,0,0,0,.46.06Zm-.76-2.82a1.41,1.41,0,0,1-1.4-1.53,1.46,1.46,0,0,1,1.4-1.59,1.47,1.47,0,0,1,1.39,1.59A1.43,1.43,0,0,1,3.68,127.81Zm3.09-3.33c.45,0,.73-.2.73-.59a.64.64,0,0,0-.72-.63,1,1,0,0,0-1,1.26l0,.43a2.79,2.79,0,0,0-2.12-.83c-1.59,0-2.67,1-2.67,2.17A1.91,1.91,0,0,0,2,128l-.7.67a.89.89,0,0,0-.39.68c0,.32.18.68.87.93-.68.28-1.17.72-1.17,1.3,0,.95,1.29,1.47,3,1.47,1.43,0,3.32-.36,3.32-2,0-.84-.53-1.35-1.78-1.49l-2.07-.24c-.56-.06-1-.14-1-.47a.74.74,0,0,1,.22-.45l.18-.2a3.64,3.64,0,0,0,1.14.17c1.56,0,2.6-.88,2.6-2.1,0-.48-.07-.94-.07-1.34s.17-.46.56-.46"/><path class="cls-1" d="M14.31,117.84c-.45,0-1.15-.06-1.15-.59v-5.41H12.6a1.8,1.8,0,0,1-1.75.89H9.69v.57h1.15c.51,0,1.15.19,1.15.8v3.15c0,.53-.7.59-1.14.59H9.33v.57h6.5v-.57Zm-1.74-6.75a.92.92,0,1,0-.93-.92.91.91,0,0,0,.93.92m-7.71,7.32c.31,0,.48.07.55.32l.07.27H6l1-3H6.48A2.84,2.84,0,0,1,4,117.86H2.84c-.27,0-.33-.19-.19-.36l4.09-4.87v-.49H3c-.24,0-.31-.07-.38-.22l-.09-.25H2l-1,2.86h.55c.61-1,1.32-1.84,2.3-1.84h.83c.25,0,.32.19.18.36L.84,117.9v.51Z"/><path class="cls-1" d="M29.54,105.78a2.57,2.57,0,0,1-1.62-.67v-3.55a5.55,5.55,0,0,1,1.82-.76c.81,0,1.63,1.12,1.63,2.58s-.83,2.4-1.83,2.4m.8-6a6.61,6.61,0,0,0-2.42,1V99.66h-.56a1.63,1.63,0,0,1-1.63.89h-.24v.57h.23c.5,0,1.07.22,1.07.8v5.61c0,.52-.65.57-1,.57h-.34v.57h4v-.57h-.61c-.31,0-1,0-1-.57V106a3.9,3.9,0,0,0,1.69.41,3.06,3.06,0,0,0,3-3.33c0-2.22-1.47-3.34-2.32-3.34m-7.51,5.88c-.45,0-1.14-.06-1.14-.58V99.66h-.56a1.81,1.81,0,0,1-1.76.89H18.22v.57h1.14c.51,0,1.16.19,1.16.8v3.16c0,.52-.71.58-1.15.58H17.85v.57h6.5v-.57Zm-1.74-6.75a.92.92,0,1,0-.92-.92.9.9,0,0,0,.92.92m-8.6,1.49a1.26,1.26,0,0,1,1.39,1.1c0,.31-.19.46-.57.46H10.62a2,2,0,0,1,1.87-1.56m2.63,4.32a2.65,2.65,0,0,1-1.91.82,2.74,2.74,0,0,1-2.69-2.83v-.09H14.9c.3,0,.44-.15.44-.55a2.59,2.59,0,0,0-2.8-2.33,3.22,3.22,0,0,0-3.25,3.36,3.3,3.3,0,0,0,3.46,3.35,3.26,3.26,0,0,0,2.75-1.3Zm-11,1.51c.75,0,1.28.27,1.23,1H6l2-4H7.28c-1.06,1.42-1.78,2.38-2.62,2.38h-1a.74.74,0,0,1-.82-.8V99.15c0-.75.68-.81,1.19-.81h.34v-.63H0v.63H.34c.51,0,1.19.06,1.19.81v5.65c0,.74-.68.8-1.19.8H0v.63Z"/><path class="cls-1" d="M23.28,75.43a3.66,3.66,0,0,0-2.14,1.29l-.29.29v-1.7h-.56a1.67,1.67,0,0,1-1.65.88h-.85v.57h.84c.5,0,1.07.22,1.07.81v3.17c0,.52-.64.57-1,.57h-.95v.57h5.34v-.57H21.81c-.26,0-1,0-1-.57V77.81l.71-.67a1.32,1.32,0,0,1,.84-.45,1.18,1.18,0,0,1,.43.1,1.48,1.48,0,0,0,.54.11.68.68,0,0,0,.75-.73.74.74,0,0,0-.84-.74m-10.79.62a1.26,1.26,0,0,1,1.39,1.09c0,.32-.19.47-.57.47H10.62a2,2,0,0,1,1.87-1.56m2.63,4.32a2.69,2.69,0,0,1-1.91.82,2.74,2.74,0,0,1-2.69-2.83v-.1H14.9c.3,0,.44-.14.44-.54a2.59,2.59,0,0,0-2.8-2.33,3.21,3.21,0,0,0-3.25,3.36,3.3,3.3,0,0,0,3.46,3.35,3.27,3.27,0,0,0,2.75-1.3Zm-11.5,1A2.19,2.19,0,0,1,1.76,79a2.28,2.28,0,0,1,1.76-2.47,5.46,5.46,0,0,1,1.86.76V80c-.41.61-1,1.34-1.76,1.34m3.83,0c-.34,0-.94,0-.94-.57V73.05H6a1.64,1.64,0,0,1-1.63,1H4.08v.57h.23c.5,0,1.07.22,1.07.81v1.09a7.14,7.14,0,0,0-2.32-.87A3.13,3.13,0,0,0,.47,78.91,3,3,0,0,0,3.35,82.1a2.44,2.44,0,0,0,2-1.12V82.1l2.44-.22v-.57Z"/><path class="cls-1" d="M22.37,48.39c-1.48,0-2.51.79-2.51,2.07v.79H18v.61h1.83v4.52c0,.52-.64.57-1,.57H17.79v.57h5.87V57H22c-.32,0-1-.05-1-.57V51.86h2.58v-.61H21.08V50.11c0-.57.22-1.13,1-1.13a1.2,1.2,0,0,1,1.07.71c.21.32.41.63.85.63a.64.64,0,0,0,.67-.69c0-.86-1.23-1.24-2.26-1.24M15.71,57c-.34,0-.94,0-.94-.57V51h-.56a1.59,1.59,0,0,1-1.6.89h-.2v.57h.19c.5,0,1,.22,1,.8v2.7l-.87.47a2.4,2.4,0,0,1-1.12.37c-.42,0-.66-.23-.66-.78V51h-.52a1.67,1.67,0,0,1-1.67.89H8.56v.57h.23c.5,0,1.07.22,1.07.8v3.24c0,.81.37,1.29,1.17,1.29a2.86,2.86,0,0,0,1.38-.4l1.23-.64v1l2.43-.22V57ZM3.06,56.9A1,1,0,0,1,2,56c0-.82.88-1.24,2.84-1.41v1.6a2.66,2.66,0,0,1-1.76.76M7,56c-.14.71-.35.89-.61.89S6,56.73,6,56.33V52.56C6,51.46,5.13,51,3.87,51c-1.47,0-3,.58-3,1.81a.84.84,0,0,0,.81.95.71.71,0,0,0,.77-.71,1,1,0,0,0-.09-.39.84.84,0,0,1-.08-.34c0-.5.86-.67,1.41-.67.77,0,1.12.33,1.12,1v1.14C3.27,54,.66,54.25.66,56.14c0,1,.65,1.6,1.92,1.6a3.56,3.56,0,0,0,2.3-.85A1.09,1.09,0,0,0,6,57.74c.64,0,1.29-.35,1.43-1.68Z"/><path class="cls-1" d="M65.9,154.58a3.66,3.66,0,0,0-2.14,1.29l-.29.29v-1.7h-.56a1.68,1.68,0,0,1-1.65.89h-.85v.57h.84c.5,0,1.07.22,1.07.8v3.17c0,.52-.64.57-1,.57h-1V161h5.35v-.57H64.43c-.26,0-1-.05-1-.57V157l.71-.67a1.29,1.29,0,0,1,.84-.46,1.18,1.18,0,0,1,.43.1,1.48,1.48,0,0,0,.54.11.68.68,0,0,0,.75-.73.75.75,0,0,0-.84-.74m-9,5.88c-.45,0-1.15-.06-1.15-.58v-5.42h-.56a1.79,1.79,0,0,1-1.75.89H52.31v.57h1.15c.51,0,1.15.19,1.15.8v3.16c0,.52-.7.58-1.14.58H52V161h6.5v-.57Zm-1.74-6.75a.92.92,0,1,0-.93-.92.9.9,0,0,0,.93.92m-9.51,6.7a1,1,0,0,1-1.08-.95c0-.83.88-1.24,2.84-1.41v1.6a2.66,2.66,0,0,1-1.76.76m3.9-.95c-.14.71-.35.89-.6.89s-.36-.11-.36-.51v-3.78c0-1.09-.87-1.52-2.13-1.52-1.47,0-3,.59-3,1.82a.84.84,0,0,0,.81.95.71.71,0,0,0,.77-.71,1,1,0,0,0-.09-.39.84.84,0,0,1-.08-.34c0-.5.86-.67,1.41-.67.77,0,1.12.33,1.12,1v1.14c-1.55.11-4.16.38-4.16,2.27,0,.95.65,1.6,1.92,1.6a3.54,3.54,0,0,0,2.3-.85,1.09,1.09,0,0,0,1.16.85c.64,0,1.29-.35,1.44-1.68ZM38.76,161v-.63h-.7c-.51,0-1.19-.06-1.19-.8V157h1.45c.72,0,1,.62,1,1.29v.17h.56v-3.62h-.56V155c0,.67-.29,1.29-1,1.29H36.87V154a.75.75,0,0,1,.83-.81h1.06c.69,0,1.24.56,2.49,1.93h.64l-1.69-3.16h-.56c-.22.58-.61.6-1.26.6H34.07v.63h.34c.51,0,1.2.06,1.2.81v5.65c0,.74-.69.8-1.2.8h-.34V161Z"/><path class="cls-1" d="M67.11,136.11a1,1,0,0,1-1.07-.55l-1.9-2.73,1.49-1.34A1.63,1.63,0,0,1,66.8,131H67v-.57H63.59V131h.47c.41,0,.55.13.55.34a.62.62,0,0,1-.27.47l-2.1,1.94v-5.88h-.56a1.65,1.65,0,0,1-1.63,1H59.8v.57H60c.5,0,1.08.22,1.08.81v5.35c0,.53-.65.58-1,.58H59.8v.57h3.4v-.57h-.15c-.33,0-.81-.08-.81-.58v-1l1-.9,1.19,1.65a.91.91,0,0,1,.22.5c0,.15-.06.36-.47.36h-.33v.57H67.3v-.57Zm-12.22.13c-1.21,0-1.94-1-1.94-2.68s.73-2.72,1.94-2.72,2,1,2,2.72-.73,2.68-2,2.68m0,.66a3.31,3.31,0,0,0,3.36-3.34,3.36,3.36,0,1,0-6.72,0,3.31,3.31,0,0,0,3.36,3.34m-8.52-.66c-1.22,0-1.95-1-1.95-2.68s.73-2.72,1.95-2.72,2,1,2,2.72-.73,2.68-2,2.68m0,.66a3.31,3.31,0,0,0,3.36-3.34,3.36,3.36,0,1,0-6.72,0,3.31,3.31,0,0,0,3.36,3.34m-8.77-.85a.74.74,0,0,1-.81-.81v-2.82H38c1.23,0,2,.6,2,1.85s-.88,1.78-2,1.78Zm-.81-6.46a.73.73,0,0,1,.81-.8H38c1.21,0,1.78.5,1.78,1.48,0,1.23-.9,1.51-2,1.51h-1Zm1.68,7.09c1.45,0,3-.62,3-2.43a2.17,2.17,0,0,0-1.72-2.16,1.93,1.93,0,0,0,1.41-1.84c0-1.52-1.4-2.1-3-2.1H34v.64h.34c.51,0,1.19.06,1.19.8v5.65c0,.74-.68.81-1.19.81H34v.63Z"/><path class="cls-1" d="M89.69,112.36c.87.1,1.54.22,1.54.79s-1,1-2,1c-1.27,0-2.11-.43-2.11-1.16a1.12,1.12,0,0,1,.46-.86l.46.06Zm-.77-2.81a1.43,1.43,0,0,1-1.4-1.54,1.41,1.41,0,1,1,2.79,0A1.43,1.43,0,0,1,88.92,109.55ZM92,106.21c.45,0,.73-.2.73-.58A.64.64,0,0,0,92,105a1.06,1.06,0,0,0-1,1.27l.05.42a2.77,2.77,0,0,0-2.12-.82c-1.59,0-2.67,1-2.67,2.16a1.94,1.94,0,0,0,1,1.69l-.7.66a.92.92,0,0,0-.39.69c0,.31.18.68.87.92-.68.28-1.17.72-1.17,1.31,0,.95,1.29,1.47,3,1.47,1.42,0,3.31-.37,3.31-2,0-.84-.53-1.35-1.78-1.5l-2.07-.23c-.56-.06-1-.15-1-.48a.77.77,0,0,1,.22-.45l.18-.19a3.64,3.64,0,0,0,1.14.17c1.56,0,2.6-.89,2.6-2.11,0-.47-.07-.94-.07-1.34s.17-.46.56-.46m-9.51,5.54c-.45,0-1.15-.06-1.15-.58v-5.42H80.8a1.82,1.82,0,0,1-1.76.89H77.89v.57H79c.51,0,1.16.19,1.16.8v3.16c0,.52-.71.58-1.15.58H77.52v.57H84v-.57ZM80.76,105a.92.92,0,1,0-.93-.92.91.91,0,0,0,.93.92m-7.71,7.32c.32,0,.49.08.55.32l.07.27h.55l1-3h-.55a2.83,2.83,0,0,1-2.48,1.9H71c-.27,0-.33-.2-.18-.37l4.09-4.87v-.49H71.18c-.25,0-.32-.07-.38-.22l-.1-.25h-.49l-1,2.86h.55c.61-1,1.33-1.84,2.3-1.84h.83c.25,0,.33.19.18.36L69,111.81v.51Zm-9.41-.45A2.55,2.55,0,0,1,62,111.2v-3.55a5.52,5.52,0,0,1,1.81-.76c.82,0,1.64,1.12,1.64,2.58s-.83,2.4-1.83,2.4m.8-6a6.48,6.48,0,0,0-2.42,1v-1.14h-.56a1.63,1.63,0,0,1-1.63.89h-.25v.57h.23c.5,0,1.08.22,1.08.8v5.6c0,.53-.65.58-1,.58h-.34v.57h4v-.57H63c-.32,0-1,0-1-.58v-1.48a3.86,3.86,0,0,0,1.69.41,3.05,3.05,0,0,0,3-3.33c0-2.22-1.47-3.34-2.31-3.34m-7.51,5.88c-.45,0-1.15-.06-1.15-.58v-5.42h-.56a1.79,1.79,0,0,1-1.75.89H52.31v.57h1.15c.51,0,1.16.19,1.16.8v3.16c0,.52-.71.58-1.15.58H52v.57h6.5v-.57ZM55.19,105a.92.92,0,1,0-.93-.92.9.9,0,0,0,.93.92m-8.6,1.49a1.27,1.27,0,0,1,1.39,1.1c0,.31-.2.46-.57.46h-2.7a2,2,0,0,1,1.88-1.56m2.63,4.32a2.67,2.67,0,0,1-1.91.82,2.74,2.74,0,0,1-2.69-2.83v-.09H49c.29,0,.44-.15.44-.55a2.59,2.59,0,0,0-2.8-2.33,3.21,3.21,0,0,0-3.25,3.36,3.49,3.49,0,0,0,6.21,2Zm-11,1.51c.74,0,1.28.27,1.23,1h.56l2-4.06h-.63c-1.06,1.43-1.78,2.39-2.62,2.39h-1a.73.73,0,0,1-.81-.8v-5.65c0-.75.68-.81,1.19-.81h.34v-.63H34.1v.63h.34c.51,0,1.19.06,1.19.81v5.65c0,.74-.68.8-1.19.8H34.1v.63Z"/><path class="cls-1" d="M55.11,82.14a1.26,1.26,0,0,1,1.39,1.09c0,.32-.19.47-.57.47H53.24a2,2,0,0,1,1.87-1.56m2.63,4.32a2.69,2.69,0,0,1-1.91.82,2.74,2.74,0,0,1-2.69-2.83v-.1h4.38c.3,0,.44-.14.44-.55a2.58,2.58,0,0,0-2.8-2.32,3.21,3.21,0,0,0-3.25,3.36,3.49,3.49,0,0,0,6.21,2ZM50,87.4c-.32,0-1-.08-1-.57v-4c0-.81-.36-1.3-1.11-1.3a3.28,3.28,0,0,0-1.13.26l-1.61.64V79.14h-.56a1.6,1.6,0,0,1-1.6,1h-.24v.57H43c.5,0,1,.22,1,.81v5.36c0,.52-.65.57-1,.57h-.28V88h3.47V87.4c-.31,0-1.1,0-1.1-.57V83.16l1.42-.49a2.12,2.12,0,0,1,.61-.12c.41,0,.69.22.69.77v3.5c0,.58-.8.58-1.1.58V88h3.47V87.4Zm-9.8-1.74a1.42,1.42,0,0,1-1.46,1.52c-.88,0-1.32-.56-1.32-1.6V82.43h3.3V81.7h-3.3V79.45h-.56c-.22,1.4-.83,2.26-2.18,2.36v.62h1.55V86a2.09,2.09,0,0,0,2.29,2.23c1.49,0,2.25-1,2.2-2.53Z"/><path class="cls-1" d="M48.72,61.3a1.41,1.41,0,0,1-1.46,1.52c-.88,0-1.32-.56-1.32-1.59V58.07h3.3v-.73h-3.3V55.09h-.56c-.21,1.4-.82,2.27-2.17,2.36v.62h1.54v3.54A2.08,2.08,0,0,0,47,63.83c1.5,0,2.25-1,2.2-2.53ZM37.15,63a.94.94,0,0,1-1.07-1c0-.83.88-1.24,2.84-1.41v1.6a2.66,2.66,0,0,1-1.77.76m3.91-1c-.15.71-.35.89-.61.89s-.35-.11-.35-.51V58.65c0-1.1-.88-1.53-2.13-1.53-1.48,0-3,.59-3,1.82a.84.84,0,0,0,.82,1,.71.71,0,0,0,.76-.71,1,1,0,0,0-.08-.39.86.86,0,0,1-.09-.34c0-.5.87-.67,1.42-.67.77,0,1.12.33,1.12,1V60c-1.55.11-4.17.38-4.17,2.27,0,1,.66,1.6,1.93,1.6A3.56,3.56,0,0,0,39,63a1.08,1.08,0,0,0,1.16.85c.64,0,1.29-.35,1.43-1.68Z"/><path class="cls-1" d="M64.11,33.21c.88.09,1.55.22,1.55.79s-1,1-2,1c-1.26,0-2.1-.43-2.1-1.16A1.15,1.15,0,0,1,62,33a3.2,3.2,0,0,0,.46.06Zm-.76-2.82a1.42,1.42,0,0,1-1.41-1.53,1.41,1.41,0,1,1,2.79,0A1.42,1.42,0,0,1,63.35,30.39Zm3.09-3.33c.45,0,.73-.2.73-.59a.64.64,0,0,0-.72-.63,1.05,1.05,0,0,0-1,1.27l0,.42a2.75,2.75,0,0,0-2.11-.83c-1.59,0-2.67,1-2.67,2.17a1.91,1.91,0,0,0,1,1.68l-.71.67a.92.92,0,0,0-.39.68c0,.32.19.69.88.93-.68.28-1.17.72-1.17,1.3,0,.95,1.29,1.47,3,1.47,1.43,0,3.32-.36,3.32-2,0-.85-.53-1.36-1.78-1.5l-2.07-.23c-.56-.07-1-.15-1-.48A.74.74,0,0,1,62,31l.18-.19a4,4,0,0,0,1.14.17c1.55,0,2.6-.89,2.6-2.11,0-.48-.07-.94-.07-1.34s.17-.46.56-.46M56.93,32.6c-.45,0-1.15-.06-1.15-.59V26.59h-.56a1.78,1.78,0,0,1-1.75.89H52.31v.58h1.15c.51,0,1.16.19,1.16.8V32c0,.53-.71.59-1.15.59H52v.57h6.5V32.6Zm-1.74-6.75a.92.92,0,1,0-.93-.92.9.9,0,0,0,.93.92m-7.71,7.32c.32,0,.49.07.55.32l.07.26h.55l1-3H49.1a2.84,2.84,0,0,1-2.49,1.9H45.46c-.27,0-.33-.19-.19-.36l4.1-4.87V26.9H45.6c-.24,0-.31-.07-.37-.22l-.1-.26h-.49l-1,2.87h.55c.61-1,1.32-1.84,2.3-1.84h.83c.25,0,.33.19.18.36l-4.08,4.85v.51Zm-9.41-.45a2.55,2.55,0,0,1-1.62-.67V28.49a5.68,5.68,0,0,1,1.81-.75c.82,0,1.63,1.12,1.63,2.58s-.83,2.4-1.82,2.4m.8-6a6.48,6.48,0,0,0-2.42,1V26.6h-.56a1.64,1.64,0,0,1-1.64.88H34v.58h.23c.5,0,1.07.21,1.07.8v5.6c0,.53-.64.57-1,.57H34v.57h4V35h-.61c-.32,0-1,0-1-.57V33a3.86,3.86,0,0,0,1.69.41,3.06,3.06,0,0,0,3-3.34c0-2.21-1.47-3.33-2.31-3.33M31.36,32.6c-.46,0-1.15-.06-1.15-.59V26.59h-.56a1.79,1.79,0,0,1-1.75.89H26.74v.58h1.15c.51,0,1.15.19,1.15.8V32c0,.53-.7.59-1.14.59H26.38v.57h6.5V32.6Zm-1.75-6.75a.92.92,0,0,0,0-1.84.92.92,0,0,0,0,1.84M21,27.34a1.27,1.27,0,0,1,1.39,1.09c0,.32-.2.47-.58.47H19.14A2,2,0,0,1,21,27.34m2.63,4.32a2.71,2.71,0,0,1-1.91.82A2.75,2.75,0,0,1,19,29.65v-.1h4.39c.29,0,.44-.14.44-.54a2.59,2.59,0,0,0-2.8-2.33A3.21,3.21,0,0,0,17.82,30a3.29,3.29,0,0,0,3.45,3.35A3.26,3.26,0,0,0,24,32.09Zm-11,1.51c.74,0,1.28.27,1.23,1h.56l2-4.05H15.8c-1.05,1.43-1.77,2.39-2.61,2.39h-1a.74.74,0,0,1-.82-.81V26.08c0-.74.69-.8,1.2-.8h.34v-.63H8.52v.63h.35c.51,0,1.19.06,1.19.8v5.65c0,.75-.68.81-1.19.81H8.52v.63Z"/><path class="cls-1" d="M29.08,8.18a.74.74,0,0,1-.82-.8V4.55h1.26c1.23,0,2,.61,2,1.85s-.88,1.78-2,1.78Zm-.82-6.45a.74.74,0,0,1,.82-.81h.38c1.2,0,1.78.5,1.78,1.49,0,1.23-.91,1.51-2,1.51h-1Zm1.68,7.08c1.45,0,3-.62,3-2.42a2.18,2.18,0,0,0-1.73-2.17,1.9,1.9,0,0,0,1.41-1.83c0-1.53-1.39-2.1-3-2.1H25.46V.92h.34c.52,0,1.2.07,1.2.81V7.38c0,.74-.68.8-1.2.8h-.34v.63ZM20.81,9c1.58,0,2-.91,2.67-.91h.44V5.35c0-.57.26-.75.86-.75V4H21.07V4.6h.39c.52,0,1.16.12,1.16.75V6.61a1.68,1.68,0,0,1-1.8,1.77c-1.62,0-2.13-1.54-2.13-3.29V3.88c0-1.6.55-3.1,1.86-3.1.86,0,1.7.63,3,2.09h.57L22.94,0h-.47l-.13.22A.37.37,0,0,1,22,.4a1.31,1.31,0,0,1-.44-.1,3,3,0,0,0-1-.18c-2,0-3.43,2-3.43,4.41S18.42,9,20.81,9M12,8.81V8.18H11.7c-.47,0-1-.14-1-.8V4.66h3.07V7.38c0,.69-.49.8-1,.8H12.6v.63h3.75V8.18h-.08c-.54,0-1.2,0-1.2-.8V1.73c0-.77.66-.81,1.2-.81h.08V.29H12.6V.92h.25c.47,0,1,.13,1,.81V4H10.74V1.73c0-.67.49-.81,1-.81H12V.29H8.2V.92h.08c.54,0,1.19,0,1.19.81V7.38c0,.77-.65.8-1.19.8H8.2v.63Z"/><path class="cls-1" d="M212.82,121.41v-.57h-1.51c-.45,0-1.14-.06-1.14-.58v-7.67h-.57a1.85,1.85,0,0,1-1.76,1h-1.15v.57h1.14c.51,0,1.15.2,1.15.81v5.34c0,.52-.71.58-1.15.58h-1.51v.57Zm-8.52,0v-.57h-1.51c-.45,0-1.15-.06-1.15-.58v-7.67h-.57a1.83,1.83,0,0,1-1.75,1h-1.16v.57h1.15c.51,0,1.14.2,1.14.81v5.34c0,.52-.7.58-1.14.58H197.8v.57Zm-12.64-.62a.94.94,0,0,1-1.07-1c0-.83.87-1.24,2.84-1.41V120a2.7,2.7,0,0,1-1.77.76m3.91-1c-.15.71-.36.89-.61.89s-.35-.11-.35-.51v-3.78c0-1.09-.88-1.52-2.13-1.52-1.48,0-3,.59-3,1.82a.84.84,0,0,0,.82,1,.71.71,0,0,0,.76-.71,1,1,0,0,0-.08-.39.86.86,0,0,1-.09-.34c0-.5.87-.67,1.41-.67.77,0,1.13.33,1.13,1v1.14c-1.55.11-4.17.38-4.17,2.27,0,1,.66,1.6,1.92,1.6a3.57,3.57,0,0,0,2.31-.85,1.08,1.08,0,0,0,1.15.85c.65,0,1.29-.35,1.44-1.68Zm-12.07,1.57v-.63h-.24c-.48,0-1-.15-1-.8v-2.72h3.07V120c0,.69-.48.8-1,.8h-.24v.63h3.75v-.63h-.09c-.53,0-1.19,0-1.19-.8v-5.65c0-.77.66-.81,1.19-.81h.09v-.63h-3.75v.63h.24c.48,0,1,.12,1,.81v2.24h-3.07v-2.24c0-.67.49-.81,1-.81h.24v-.63h-3.75v.63h.09c.53,0,1.19,0,1.19.81V120c0,.76-.66.8-1.19.8h-.09v.63Z"/><path class="cls-1" d="M175.52,118.17a1.26,1.26,0,0,1,1.39,1.09c0,.32-.19.47-.57.47h-2.69a2,2,0,0,1,1.87-1.56m2.63,4.32a2.69,2.69,0,0,1-1.91.82,2.74,2.74,0,0,1-2.69-2.83v-.1h4.39c.29,0,.43-.14.43-.54a2.58,2.58,0,0,0-2.8-2.33,3.22,3.22,0,0,0-3.25,3.36,3.3,3.3,0,0,0,3.46,3.35,3.26,3.26,0,0,0,2.75-1.3Zm-8,1.51v-.57h-1.51c-.45,0-1.14-.06-1.14-.58v-7.68H167a1.83,1.83,0,0,1-1.76,1h-1.15v.57h1.14c.51,0,1.15.21,1.15.82v5.34c0,.52-.71.58-1.15.58H163.7V124Z"/><path class="cls-1" d="M174.61,111.2a.94.94,0,0,1-1.07-1c0-.83.88-1.24,2.84-1.41v1.6a2.68,2.68,0,0,1-1.77.76m3.91-1c-.15.71-.35.89-.61.89s-.35-.11-.35-.51v-3.78c0-1.09-.88-1.52-2.13-1.52-1.48,0-3,.59-3,1.82a.84.84,0,0,0,.82.95.71.71,0,0,0,.76-.71,1,1,0,0,0-.08-.39.86.86,0,0,1-.09-.34c0-.5.87-.67,1.42-.67.76,0,1.12.33,1.12,1v1.14c-1.55.11-4.17.38-4.17,2.27,0,1,.66,1.6,1.93,1.6a3.56,3.56,0,0,0,2.3-.85,1.08,1.08,0,0,0,1.15.85c.65,0,1.29-.35,1.44-1.68Zm-12.07,1.57v-.63h-.24c-.48,0-1-.15-1-.8v-2.72h3.07v2.72c0,.69-.49.8-1,.8h-.24v.63h3.75v-.63h-.09c-.53,0-1.19,0-1.19-.8v-5.65c0-.77.66-.81,1.19-.81h.09v-.63h-3.75v.63h.24c.48,0,1,.12,1,.81V107h-3.07v-2.24c0-.67.48-.81,1-.81h.24v-.63H162.7v.63h.09c.53,0,1.19,0,1.19.81v5.65c0,.76-.66.8-1.19.8h-.09v.63Z"/><path class="cls-1" d="M193.19,140.92A2,2,0,0,0,195,139a2,2,0,0,0-2.27-2,3.42,3.42,0,0,0-2.86,1.57l.4.52a3,3,0,0,1,2.07-1.11,1.23,1.23,0,0,1,1.33,1.26c0,1.19-1.44,1.59-2.43,1.86l.18.53a4.79,4.79,0,0,1,.79-.07,1.8,1.8,0,0,1,1.94,1.83,1.77,1.77,0,0,1-1.77,1.88,1.52,1.52,0,0,1-1.47-1.12c-.2-.42-.43-.81-.92-.81a.75.75,0,0,0-.74.85c0,1.18,1.62,1.78,3,1.78,1.81,0,3.25-1,3.25-2.83a2.05,2.05,0,0,0-2.24-2.24"/><path class="cls-1" d="M166.65,187.93a2.17,2.17,0,0,1-1.85-2.41,2.27,2.27,0,0,1,1.75-2.46,5.42,5.42,0,0,1,1.86.75v2.78c-.41.61-.95,1.34-1.76,1.34m3.83-.05c-.34,0-.94,0-.94-.57v-7.68H169a1.67,1.67,0,0,1-1.64,1h-.24v.57h.23c.5,0,1.07.22,1.07.8v1.1a6.86,6.86,0,0,0-2.32-.88,3.12,3.12,0,0,0-2.58,3.31,3,3,0,0,0,2.87,3.19,2.44,2.44,0,0,0,2-1.12v1.12l2.44-.22v-.57Zm-12.3.57v-.57c-.3,0-1.09,0-1.09-.57v-3.67l1.42-.48a1.81,1.81,0,0,1,.6-.13c.4,0,.69.22.69.77v3.51c0,.56-.79.57-1.09.57v.57h3.47v-.57h-.28c-.32,0-1-.07-1-.57v-4c0-.8-.36-1.3-1.11-1.3a3.1,3.1,0,0,0-1.13.27l-1.61.63v-1h-.56a1.63,1.63,0,0,1-1.63.89h-.19v.57h.17c.5,0,1.08.22,1.08.8v3.17c0,.52-.65.57-1,.57h-.28v.57Zm-9.14-.62a.94.94,0,0,1-1.07-1c0-.82.87-1.24,2.84-1.41v1.6a2.7,2.7,0,0,1-1.77.76m3.91-1c-.15.71-.36.89-.61.89s-.36-.11-.36-.51v-3.77c0-1.1-.87-1.53-2.13-1.53-1.47,0-3,.59-3,1.82a.84.84,0,0,0,.81.95.71.71,0,0,0,.77-.71,1.23,1.23,0,0,0-.08-.39.86.86,0,0,1-.09-.34c0-.5.87-.67,1.41-.67.77,0,1.13.33,1.13,1v1.14c-1.55.11-4.17.38-4.17,2.27,0,1,.66,1.6,1.92,1.6a3.57,3.57,0,0,0,2.31-.85,1.08,1.08,0,0,0,1.15.85c.65,0,1.29-.35,1.44-1.68Zm-9.39-.74a1.42,1.42,0,0,1-1.46,1.52c-.88,0-1.32-.56-1.32-1.59v-3.16h3.3v-.73h-3.3v-2.25h-.56c-.22,1.4-.82,2.27-2.18,2.36v.62h1.55v3.54a2.08,2.08,0,0,0,2.29,2.22c1.5,0,2.25-1,2.2-2.53ZM131,189.4l.13-.79c0-.29.18-.33.32-.33a1.86,1.86,0,0,1,.52.11,4,4,0,0,0,1.31.22,2.6,2.6,0,0,0,2.86-2.7,2.37,2.37,0,0,0-2.3-2.51l-1.55-.22c-.76-.11-1.53-.39-1.53-1.25a1.52,1.52,0,0,1,1.67-1.44c1,0,1.91.66,2.81,2.08h.6l-1.05-3.24h-.45l-.18.48c-.07.19-.17.25-.32.25a1.47,1.47,0,0,1-.38-.07,4,4,0,0,0-1.09-.16,2.5,2.5,0,0,0-2.68,2.5,2.24,2.24,0,0,0,2.23,2.23l1.4.19c1,.15,1.73.58,1.73,1.55a1.62,1.62,0,0,1-1.78,1.63c-1.29,0-2.42-1-3.45-2.65h-.61l1.28,4.12Z"/><path class="cls-1" d="M213,194c-.32,0-1-.07-1-.57v-4c0-.8-.35-1.3-1.11-1.3a3.1,3.1,0,0,0-1.13.27l-1.61.63v-3.27h-.56a1.61,1.61,0,0,1-1.59.95h-.25v.57h.23c.5,0,1,.22,1,.8v5.36c0,.52-.65.57-1,.57h-.28v.57h3.47V194c-.31,0-1.1,0-1.1-.57v-3.67l1.43-.48a1.76,1.76,0,0,1,.6-.13c.41,0,.69.22.69.77v3.51c0,.57-.8.57-1.1.57v.57h3.47V194Zm-9.8-1.74a1.42,1.42,0,0,1-1.46,1.52c-.88,0-1.32-.56-1.32-1.59V189h3.3v-.73h-3.3V186h-.56c-.22,1.4-.83,2.26-2.18,2.36V189h1.55v3.53a2.08,2.08,0,0,0,2.29,2.23c1.5,0,2.25-1,2.2-2.53Zm-10.88,1.88c-1.21,0-1.95-1-1.95-2.68s.74-2.72,1.95-2.72,2,1,2,2.72-.73,2.68-2,2.68m0,.65a3.31,3.31,0,0,0,3.36-3.33,3.36,3.36,0,1,0-6.72,0,3.31,3.31,0,0,0,3.36,3.33m-8.52-.65c-1.22,0-2-1-2-2.68s.73-2.72,2-2.72,1.95,1,1.95,2.72-.73,2.68-1.95,2.68m0,.65a3.32,3.32,0,0,0,3.36-3.33,3.36,3.36,0,1,0-6.72,0,3.3,3.3,0,0,0,3.36,3.33m-8.77-.85a.73.73,0,0,1-.81-.8v-2.83h1.25c1.23,0,2,.61,2,1.85s-.87,1.78-2,1.78Zm-.81-6.45a.74.74,0,0,1,.81-.81h.38c1.21,0,1.78.5,1.78,1.49,0,1.23-.9,1.51-2,1.51h-1Zm1.68,7.08c1.45,0,3-.62,3-2.42a2.18,2.18,0,0,0-1.72-2.17,1.91,1.91,0,0,0,1.41-1.84c0-1.52-1.4-2.09-3.05-2.09h-4.12v.63h.34c.51,0,1.19.06,1.19.81v5.65c0,.74-.68.8-1.19.8h-.34v.63Z"/><path class="cls-1" d="M210.24,214.05a2,2,0,0,0,1.75-1.9,2,2,0,0,0-2.26-2,3.4,3.4,0,0,0-2.86,1.56l.4.52a3,3,0,0,1,2.07-1.11,1.24,1.24,0,0,1,1.33,1.26c0,1.19-1.44,1.59-2.44,1.86l.19.53a4.79,4.79,0,0,1,.79-.07,1.79,1.79,0,0,1,1.93,1.83,1.77,1.77,0,0,1-1.76,1.88,1.54,1.54,0,0,1-1.48-1.12c-.19-.42-.42-.81-.91-.81a.75.75,0,0,0-.74.85c0,1.18,1.62,1.78,3,1.78,1.8,0,3.25-1,3.25-2.83a2.06,2.06,0,0,0-2.24-2.24m-9.36,4.33c-1.45,0-1.7-1.73-1.7-3.76s.25-3.74,1.7-3.74,1.69,1.75,1.69,3.74-.24,3.76-1.69,3.76m0,.74c1.85,0,3.18-2,3.18-4.5s-1.33-4.48-3.18-4.48-3.2,2-3.2,4.48,1.35,4.5,3.2,4.5m-7.7-5.07a2,2,0,0,0,1.76-1.9,2,2,0,0,0-2.27-2,3.42,3.42,0,0,0-2.86,1.56l.4.52a3,3,0,0,1,2.07-1.11,1.23,1.23,0,0,1,1.33,1.26c0,1.19-1.44,1.59-2.43,1.86l.18.53a4.79,4.79,0,0,1,.79-.07,1.8,1.8,0,0,1,1.94,1.83,1.77,1.77,0,0,1-1.77,1.88,1.52,1.52,0,0,1-1.47-1.12c-.2-.42-.43-.81-.92-.81a.75.75,0,0,0-.74.85c0,1.18,1.62,1.78,3,1.78,1.81,0,3.25-1,3.25-2.83a2.06,2.06,0,0,0-2.24-2.24m-9.35,5.07c1.59,0,2-.92,2.67-.92H187v-2.77c0-.56.26-.75.86-.75v-.58H184.1v.58h.39c.52,0,1.17.13,1.17.75v1.26a1.68,1.68,0,0,1-1.81,1.77c-1.62,0-2.13-1.53-2.13-3.29V214c0-1.61.55-3.11,1.87-3.11.85,0,1.69.63,3,2.1h.57L186,210.08h-.47l-.12.22a.37.37,0,0,1-.36.18,1.28,1.28,0,0,1-.44-.09,2.69,2.69,0,0,0-1-.19c-2,0-3.43,2-3.43,4.41s1.31,4.51,3.7,4.51"/></svg>