<svg id="Ebene_1" data-name="Ebene 1" xmlns="http://www.w3.org/2000/svg" viewBox="0 0 33.38 179.7"><defs><style>.cls-1{fill:#848484;}.cls-2{fill:#fff;}</style></defs><path class="cls-1" d="M30.21,171.91v4H27.38Zm1.19-1.55h-.91L25.8,177h4.41v2H31.4v-2h1.37l.24-1H31.4Zm-7.76,6.27c-.52.86-.82,1.23-1.44,1.23H19.12a14.1,14.1,0,0,1,1.53-1.24l.47-.33c1.41-1,2.62-1.86,2.62-3.45a2.5,2.5,0,0,0-2.65-2.58c-1.84,0-2.71,1.43-2.88,2.94l.67.23c.28-1.22.91-2.17,2-2.17A1.57,1.57,0,0,1,22.39,173c0,1.14-.75,1.86-1.79,2.7l-.38.32a18.53,18.53,0,0,0-2.31,2.14V179h3.83c.61,0,1,.22,1,.69h.5l1-3.07Z"/><path class="cls-1" d="M29.47,166.31c-1.45,0-1.69-1.73-1.69-3.76s.24-3.73,1.69-3.73,1.69,1.74,1.69,3.73-.24,3.76-1.69,3.76m0,.74c1.85,0,3.18-2,3.18-4.5s-1.33-4.48-3.18-4.48-3.2,2-3.2,4.48,1.35,4.5,3.2,4.5m-5.84-2.6c-.52.86-.82,1.23-1.44,1.23H19.12a14.1,14.1,0,0,1,1.53-1.24l.47-.33c1.41-1,2.62-1.86,2.62-3.44a2.49,2.49,0,0,0-2.65-2.58c-1.84,0-2.71,1.42-2.88,2.93l.67.23c.28-1.22.91-2.17,2-2.17a1.57,1.57,0,0,1,1.53,1.76c0,1.14-.75,1.86-1.79,2.7l-.38.32A18.53,18.53,0,0,0,17.91,166v.83h3.83c.61,0,1,.22,1,.69h.5l1-3.07Z"/><path class="cls-1" d="M29.47,154.83a1,1,0,1,0-1-1,1,1,0,0,0,1,1m-7.68-5a2,2,0,0,0,1.75-1.9,2,2,0,0,0-2.27-2,3.4,3.4,0,0,0-2.86,1.57l.4.51a3,3,0,0,1,2.07-1.11,1.24,1.24,0,0,1,1.33,1.27c0,1.18-1.44,1.58-2.43,1.85l.18.54a4.91,4.91,0,0,1,.79-.08,1.8,1.8,0,0,1,1.94,1.83,1.78,1.78,0,0,1-1.77,1.89,1.53,1.53,0,0,1-1.47-1.12c-.2-.43-.43-.82-.92-.82a.76.76,0,0,0-.74.85c0,1.18,1.62,1.78,3,1.78,1.81,0,3.25-1,3.25-2.82a2.06,2.06,0,0,0-2.23-2.25"/><path class="cls-1" d="M29.47,142.66a1,1,0,0,0,1-1,1,1,0,0,0-1.91,0,1,1,0,0,0,1,1m-7.68-5a2,2,0,0,0,1.75-1.9,2,2,0,0,0-2.27-2,3.42,3.42,0,0,0-2.86,1.57l.4.51a3,3,0,0,1,2.07-1.11A1.24,1.24,0,0,1,22.21,136c0,1.18-1.44,1.58-2.43,1.85l.18.54a4.79,4.79,0,0,1,.79-.07,1.86,1.86,0,0,1,.17,3.71,1.52,1.52,0,0,1-1.47-1.12c-.2-.43-.43-.82-.92-.82a.76.76,0,0,0-.74.86c0,1.18,1.62,1.77,3,1.77,1.81,0,3.25-1,3.25-2.82a2.05,2.05,0,0,0-2.23-2.24m-6.68,2.47c-.51.85-.81,1.23-1.44,1.23H10.6a11.4,11.4,0,0,1,1.53-1.24l.46-.33c1.41-1,2.63-1.86,2.63-3.45a2.5,2.5,0,0,0-2.65-2.58c-1.84,0-2.72,1.43-2.89,2.94l.67.23c.28-1.22.91-2.17,2-2.17a1.56,1.56,0,0,1,1.53,1.75c0,1.15-.76,1.87-1.79,2.71l-.39.31a18.63,18.63,0,0,0-2.3,2.15v.82h3.82c.61,0,.95.22.95.7h.5l1-3.07Z"/><path class="cls-2" d="M32,111.67A3.66,3.66,0,0,0,29.81,113l-.29.29v-1.7H29a1.67,1.67,0,0,1-1.65.88h-.85V113h.84c.5,0,1.07.22,1.07.81V117c0,.52-.64.57-1,.57h-.95v.57h5.35v-.57H30.48c-.26,0-1,0-1-.57v-2.93l.72-.67a1.27,1.27,0,0,1,.84-.45,1.18,1.18,0,0,1,.42.1,1.48,1.48,0,0,0,.54.11.68.68,0,0,0,.75-.73.74.74,0,0,0-.84-.74m-9,5.88c-.45,0-1.15-.06-1.15-.59v-5.42h-.56a1.78,1.78,0,0,1-1.75.89H18.36V113h1.15c.51,0,1.16.2,1.16.81V117c0,.53-.71.59-1.15.59H18v.57h6.5v-.57Zm-1.74-6.75a.92.92,0,1,0-.93-.92.9.9,0,0,0,.93.92m-9.51,6.7a1,1,0,0,1-1.08-1c0-.83.88-1.24,2.84-1.41v1.59a2.62,2.62,0,0,1-1.76.77m3.9-1c-.14.71-.35.89-.6.89s-.36-.11-.36-.51v-3.78c0-1.1-.87-1.52-2.13-1.52-1.47,0-3,.58-3,1.81,0,.53.28,1,.81,1a.7.7,0,0,0,.77-.7,1,1,0,0,0-.09-.39A1.05,1.05,0,0,1,11,113c0-.5.86-.67,1.41-.67.77,0,1.12.32,1.12,1v1.15c-1.54.11-4.16.37-4.16,2.26,0,1,.66,1.61,1.92,1.61a3.57,3.57,0,0,0,2.3-.85,1.1,1.1,0,0,0,1.16.85c.64,0,1.29-.35,1.44-1.68ZM4.81,118.12v-.63H4.12c-.52,0-1.2-.06-1.2-.81v-2.63H4.37c.72,0,1,.62,1,1.29v.17h.56V111.9H5.38v.17c0,.67-.29,1.29-1,1.29H2.92V111a.75.75,0,0,1,.83-.8H4.81c.69,0,1.24.56,2.5,1.92h.63L6.25,109H5.69c-.22.57-.61.6-1.26.6H.12v.63H.46c.51,0,1.2.06,1.2.8v5.65c0,.75-.69.81-1.2.81H.12v.63Z"/><path class="cls-2" d="M21.64,93.8c.88.1,1.55.22,1.55.79s-1,1-2.05,1c-1.27,0-2.11-.43-2.11-1.16a1.12,1.12,0,0,1,.46-.86c.15,0,.3,0,.47.06ZM20.87,91a1.42,1.42,0,0,1-1.4-1.54,1.41,1.41,0,1,1,2.79,0A1.43,1.43,0,0,1,20.87,91ZM24,87.65c.45,0,.73-.19.73-.58a.63.63,0,0,0-.71-.64,1.06,1.06,0,0,0-1,1.27l0,.43a2.76,2.76,0,0,0-2.12-.83c-1.58,0-2.66,1-2.66,2.17a1.93,1.93,0,0,0,1,1.68l-.7.67a.92.92,0,0,0-.39.68c0,.31.18.68.88.92-.69.28-1.17.72-1.17,1.31,0,1,1.29,1.47,3,1.47,1.42,0,3.31-.36,3.31-2,0-.84-.52-1.35-1.78-1.5l-2.07-.23c-.56-.06-1-.15-1-.47a.77.77,0,0,1,.22-.46l.18-.19a3.62,3.62,0,0,0,1.13.17c1.56,0,2.61-.89,2.61-2.11,0-.47-.08-.93-.08-1.34s.17-.46.56-.46M12.35,93.76v-.57c-.31,0-1.1,0-1.1-.57V89l1.43-.48a1.72,1.72,0,0,1,.59-.12c.41,0,.7.21.7.76v3.51c0,.56-.79.57-1.1.57v.57h3.47v-.57h-.28c-.32,0-1-.07-1-.57v-4c0-.8-.35-1.3-1.11-1.3a3.1,3.1,0,0,0-1.13.27l-1.61.63v-1h-.56a1.63,1.63,0,0,1-1.63.89H8.88v.57h.17c.5,0,1.07.22,1.07.8v3.17c0,.52-.65.57-1,.57H8.88v.57Zm-6.42-.57c-.45,0-1.15-.06-1.15-.58V87.19H4.23a1.82,1.82,0,0,1-1.76.89H1.32v.57H2.46c.51,0,1.16.19,1.16.8v3.16c0,.52-.71.58-1.15.58H1v.57h6.5v-.57ZM4.19,86.45a.91.91,0,0,0,.9-.93.89.89,0,0,0-.9-.91.91.91,0,0,0-.93.91.92.92,0,0,0,.93.93"/><path class="cls-2" d="M33.1,81c-.32,0-1-.08-1-.58v-4c0-.81-.35-1.31-1.1-1.31a3,3,0,0,0-1.13.27L28.29,76V72.76h-.56a1.61,1.61,0,0,1-1.6.95h-.24v.57h.23c.5,0,1,.22,1,.81v5.35c0,.53-.65.58-1,.58h-.28v.57h3.47V81c-.3,0-1.09,0-1.09-.58V76.78l1.42-.49a2.12,2.12,0,0,1,.61-.12c.4,0,.68.22.68.76v3.51c0,.58-.79.58-1.09.58v.57h3.47V81Zm-13.71.91.07-.32c.05-.21.13-.24.24-.24a1.33,1.33,0,0,1,.48.13,3.7,3.7,0,0,0,1.39.24,2,2,0,0,0,2.24-2,1.77,1.77,0,0,0-1.73-1.86l-1.23-.13c-.7-.08-1.48-.17-1.48-.88s.55-1,1.31-1A2.77,2.77,0,0,1,23,77.32h.58l-.75-2.47h-.49l-.12.33c-.06.16-.13.21-.28.21a1.24,1.24,0,0,1-.35-.06,3.81,3.81,0,0,0-1-.15,2,2,0,0,0-2.21,2c0,1.31,1.09,1.64,2.05,1.74l1.14.11c.7.07,1.23.35,1.23,1s-.47,1-1.27,1a3.77,3.77,0,0,1-2.89-1.86h-.58l.78,2.7ZM14.45,81c-.45,0-1.14-.07-1.14-.59V75h-.56A1.79,1.79,0,0,1,11,75.9H9.84v.57H11c.52,0,1.16.2,1.16.81v3.15c0,.52-.71.59-1.14.59H9.47v.57H16V81Zm-1.74-6.75a.9.9,0,0,0,.9-.93.91.91,0,1,0-1.82,0,.91.91,0,0,0,.92.93M7.32,81.59V81H5.81c-.45,0-1.15-.07-1.15-.59V72.76H4.09a1.83,1.83,0,0,1-1.75.95H1.18v.57H2.33c.51,0,1.14.21,1.14.82v5.33c0,.52-.71.59-1.14.59H.82v.57Z"/><path class="cls-2" d="M21,69a1.54,1.54,0,0,1-1.66-1.54V64.79A6.14,6.14,0,0,1,21.25,64c.72,0,1.62,1,1.62,2.56S22.05,69,21,69m.88-6A6.66,6.66,0,0,0,19.31,64V60.58h-.56a1.64,1.64,0,0,1-1.63,1h-.24v.57h.23c.5,0,1.07.22,1.07.81v6.83h.46l.44-.79a2.69,2.69,0,0,0,1.92.68,3.07,3.07,0,0,0,3.16-3.35c0-2.25-1.5-3.32-2.31-3.32m-6,5.88c-.34,0-.93,0-.93-.57V62.84h-.56a1.61,1.61,0,0,1-1.6.88h-.2v.57h.19c.5,0,1,.22,1,.81v2.69l-.86.48a2.54,2.54,0,0,1-1.12.36c-.43,0-.66-.23-.66-.78v-5h-.52A1.69,1.69,0,0,1,9,63.72H8.71v.57h.23c.5,0,1.07.22,1.07.81v3.24c0,.8.37,1.29,1.17,1.29a3,3,0,0,0,1.38-.4l1.22-.65v1l2.44-.22v-.57Zm-13-6.52a.74.74,0,0,1,.82-.8h.64c1.2,0,2,.44,2,1.68s-.8,1.72-2,1.72H2.8Zm1.89,7.09v-.63H4c-.51,0-1.19-.06-1.19-.81V65.55h2c1.48,0,2.89-.61,2.89-2.35s-1.41-2.31-3.13-2.31H0v.63H.34c.51,0,1.2.06,1.2.8V68c0,.75-.69.81-1.2.81H0v.63Z"/><path class="cls-2" d="M31.82,42.74a1.43,1.43,0,0,1-1.46,1.53c-.88,0-1.32-.57-1.32-1.6V39.51h3.3v-.72H29V36.53h-.56c-.22,1.4-.83,2.27-2.18,2.36v.62h1.55v3.54a2.08,2.08,0,0,0,2.29,2.22c1.5,0,2.25-1,2.2-2.53ZM20.87,45.06v-.58c-.3,0-1.1,0-1.1-.57V40.25l1.43-.49a2,2,0,0,1,.6-.12c.4,0,.69.22.69.76v3.51c0,.56-.79.57-1.09.57v.58h3.46v-.58h-.28c-.31,0-1-.07-1-.57v-4c0-.8-.35-1.3-1.1-1.3a3.1,3.1,0,0,0-1.14.27l-1.61.63v-1h-.55a1.63,1.63,0,0,1-1.64.89H17.4v.57h.17c.5,0,1.07.22,1.07.8v3.17c0,.53-.64.57-1,.57H17.4v.58Zm-8.23-5.84A1.28,1.28,0,0,1,14,40.32c0,.32-.2.46-.57.46h-2.7a2,2,0,0,1,1.88-1.56m2.63,4.33a2.69,2.69,0,0,1-1.91.81,2.73,2.73,0,0,1-2.69-2.82v-.1h4.38c.29,0,.44-.15.44-.55a2.58,2.58,0,0,0-2.8-2.32,3.21,3.21,0,0,0-3.25,3.36,3.3,3.3,0,0,0,3.46,3.34A3.28,3.28,0,0,0,15.65,44Zm-11.51,1a2.18,2.18,0,0,1-1.85-2.41,2.27,2.27,0,0,1,1.75-2.46,5.31,5.31,0,0,1,1.87.76v2.77c-.42.61-1,1.34-1.77,1.34m3.84-.05c-.34,0-.94,0-.94-.57V36.23H6.1a1.66,1.66,0,0,1-1.63,1H4.23v.57h.23c.5,0,1.07.22,1.07.8v1.1a7.21,7.21,0,0,0-2.33-.88A3.13,3.13,0,0,0,.62,42.08a3,3,0,0,0,2.87,3.19,2.49,2.49,0,0,0,2-1.11v1.11L8,45.06v-.58Z"/><path class="cls-2" d="M20.87,32.88v-.57c-.3,0-1.1,0-1.1-.58V28.07l1.43-.49a2,2,0,0,1,.6-.12c.4,0,.69.22.69.77v3.5c0,.57-.79.58-1.09.58v.57h3.46v-.57h-.28c-.31,0-1-.08-1-.58v-4c0-.81-.35-1.3-1.1-1.3a3.07,3.07,0,0,0-1.14.26l-1.61.64v-1h-.55a1.63,1.63,0,0,1-1.64.89H17.4v.57h.17c.5,0,1.07.22,1.07.81v3.16c0,.53-.64.58-1,.58H17.4v.57Zm-8.23-5.83A1.27,1.27,0,0,1,14,28.14c0,.32-.2.47-.57.47h-2.7a2,2,0,0,1,1.88-1.56m2.63,4.32a2.71,2.71,0,0,1-1.91.82,2.74,2.74,0,0,1-2.69-2.83v-.1h4.38c.29,0,.44-.14.44-.55a2.59,2.59,0,0,0-2.8-2.32,3.21,3.21,0,0,0-3.25,3.36A3.3,3.3,0,0,0,12.9,33.1a3.31,3.31,0,0,0,2.75-1.3ZM4.12,32.43a2.55,2.55,0,0,1-1.62-.67V28.2a5.68,5.68,0,0,1,1.81-.75c.82,0,1.63,1.12,1.63,2.58s-.83,2.4-1.82,2.4m.8-6a6.48,6.48,0,0,0-2.42,1V26.3H1.94a1.63,1.63,0,0,1-1.64.89H.06v.57H.29c.5,0,1.07.22,1.07.81v5.6c0,.52-.64.57-1,.57H.06v.57h4v-.57H3.46c-.32,0-1-.05-1-.57V32.68a3.74,3.74,0,0,0,1.69.42,3.06,3.06,0,0,0,3-3.34c0-2.22-1.47-3.33-2.31-3.33"/><path class="cls-2" d="M12.64,14.87A1.27,1.27,0,0,1,14,16c0,.32-.2.47-.57.47h-2.7a2,2,0,0,1,1.88-1.56m2.63,4.32a2.71,2.71,0,0,1-1.91.82,2.74,2.74,0,0,1-2.69-2.83v-.1h4.38c.29,0,.44-.14.44-.54a2.59,2.59,0,0,0-2.8-2.33,3.21,3.21,0,0,0-3.25,3.36,3.3,3.3,0,0,0,3.46,3.35,3.28,3.28,0,0,0,2.75-1.3Zm-11.51,1a2.18,2.18,0,0,1-1.85-2.41,2.26,2.26,0,0,1,1.75-2.46,5.46,5.46,0,0,1,1.87.75v2.78c-.42.61-1,1.34-1.77,1.34m3.84-.05c-.34,0-.94,0-.94-.57V11.87H6.1a1.64,1.64,0,0,1-1.63,1H4.23v.57h.23c.5,0,1.07.22,1.07.81v1.09a7.08,7.08,0,0,0-2.33-.87A3.13,3.13,0,0,0,.62,17.73a3,3,0,0,0,2.87,3.19,2.47,2.47,0,0,0,2-1.12v1.12L8,20.7v-.57Z"/><path class="cls-2" d="M12.35,8.52V8c-.31,0-1.1,0-1.1-.57V3.71l1.43-.48a1.75,1.75,0,0,1,.59-.13c.41,0,.7.22.7.77V7.38c0,.56-.79.57-1.1.57v.57h3.47V8h-.28c-.32,0-1-.07-1-.57v-4c0-.8-.35-1.3-1.11-1.3a3.1,3.1,0,0,0-1.13.27L11.25,3V2h-.56a1.63,1.63,0,0,1-1.63.89H8.88v.57h.17c.5,0,1.07.22,1.07.8V7.38c0,.52-.65.57-1,.57H8.88v.57Zm-5.43,0V7.89H5.72c-.51,0-1.19-.06-1.19-.8V1.44c0-.75.68-.81,1.19-.81h1.2V0h-6V.63H2.07c.51,0,1.19.06,1.19.81V7.09c0,.74-.68.8-1.19.8H.88v.63Z"/></svg>