<svg id="Ebene_1" data-name="Ebene 1" xmlns="http://www.w3.org/2000/svg" viewBox="0 0 245.52 313.31"><defs><style>.cls-1{fill:#848484;}.cls-2{fill:#fff;}</style></defs><path class="cls-1" d="M148.56,232.08a1.27,1.27,0,0,1,1.39,1.1c0,.32-.2.46-.58.46h-2.69a2,2,0,0,1,1.88-1.56m2.63,4.33a2.69,2.69,0,0,1-1.91.81,2.74,2.74,0,0,1-2.7-2.83v-.09H151c.29,0,.44-.15.44-.55a2.58,2.58,0,0,0-2.8-2.32,3.2,3.2,0,0,0-3.25,3.35,3.49,3.49,0,0,0,6.2,2.05Zm-9-.81a1.43,1.43,0,0,1-1.47,1.52c-.87,0-1.31-.56-1.31-1.59v-3.16h3.3v-.73h-3.3v-2.25h-.56c-.22,1.4-.83,2.27-2.18,2.36v.62h1.55v3.54a2.08,2.08,0,0,0,2.28,2.22c1.5,0,2.26-1,2.21-2.53Z"/><path class="cls-1" d="M155.3,226.08l.08-.32c0-.2.13-.24.24-.24a1.28,1.28,0,0,1,.47.13,3.76,3.76,0,0,0,1.39.25,2,2,0,0,0,2.24-2A1.77,1.77,0,0,0,158,222l-1.24-.13c-.69-.08-1.47-.17-1.47-.88s.55-1,1.3-1a2.76,2.76,0,0,1,2.31,1.49h.58l-.75-2.48h-.49l-.12.33a.26.26,0,0,1-.28.21,1.24,1.24,0,0,1-.36-.06,3.66,3.66,0,0,0-1-.15,2,2,0,0,0-2.22,2c0,1.31,1.1,1.64,2.06,1.74l1.13.11c.71.07,1.23.35,1.23,1s-.46,1.05-1.26,1.05a3.77,3.77,0,0,1-2.89-1.86H154l.78,2.7Zm-7.66-1a1,1,0,0,1-1.07-1c0-.83.88-1.25,2.84-1.42v1.6a2.63,2.63,0,0,1-1.77.77Zm3.91-1c-.14.7-.35.89-.61.89s-.35-.11-.35-.51v-3.78c0-1.1-.88-1.52-2.13-1.52-1.47,0-3,.58-3,1.81,0,.53.28.95.81.95a.71.71,0,0,0,.77-.7,1,1,0,0,0-.09-.39.89.89,0,0,1-.08-.35c0-.5.86-.67,1.41-.67.77,0,1.12.33,1.12,1v1.15c-1.55.1-4.16.37-4.16,2.26,0,1,.65,1.61,1.92,1.61a3.62,3.62,0,0,0,2.3-.85,1.1,1.1,0,0,0,1.16.85c.64,0,1.29-.36,1.43-1.68Zm-2.1-5.8a.9.9,0,1,0-.89-.9.87.87,0,0,0,.89.9m-2.27,0a.9.9,0,0,0,0-1.79.9.9,0,0,0,0,1.79M139.83,226c1.58,0,2-.92,2.66-.92h.44v-2.77c0-.56.27-.75.87-.75v-.58h-3.72v.58h.39c.53,0,1.17.13,1.17.75v1.26a1.68,1.68,0,0,1-1.8,1.77c-1.62,0-2.13-1.53-2.13-3.29v-1.2c0-1.61.55-3.11,1.86-3.11.85,0,1.69.63,3,2.1h.57L142,216.92h-.48l-.12.22a.36.36,0,0,1-.35.18,1.23,1.23,0,0,1-.44-.09,2.69,2.69,0,0,0-1-.19c-2,0-3.43,2-3.43,4.41s1.31,4.51,3.7,4.51"/><path class="cls-1" d="M159.69,307.51a1,1,0,0,0,.95-1,1,1,0,0,0-1.91,0,1,1,0,0,0,1,1m-2.83,0a1,1,0,0,0,.95-1,.94.94,0,0,0-.95-.95,1,1,0,0,0-1,.95,1,1,0,0,0,1,1m-2.81,0a1,1,0,0,0,.95-1,1,1,0,0,0-1.91,0,1,1,0,0,0,1,1"/><path class="cls-2" d="M236.06,276.52a3.66,3.66,0,0,0-2.14,1.29l-.29.29v-1.7h-.56a1.67,1.67,0,0,1-1.65.88h-.85v.58h.84c.5,0,1.07.21,1.07.8v3.17c0,.52-.64.57-1,.57h-1V283h5.35v-.57h-1.33c-.26,0-1,0-1-.57V278.9l.72-.67a1.27,1.27,0,0,1,.84-.45,1.18,1.18,0,0,1,.42.1,1.48,1.48,0,0,0,.54.11.68.68,0,0,0,.75-.73.75.75,0,0,0-.84-.74m-10.79.62a1.26,1.26,0,0,1,1.39,1.09c0,.32-.19.47-.57.47H223.4a2,2,0,0,1,1.87-1.56m2.63,4.32a2.69,2.69,0,0,1-1.91.82,2.74,2.74,0,0,1-2.69-2.83v-.1h4.39c.29,0,.43-.14.43-.54a2.58,2.58,0,0,0-2.8-2.33,3.21,3.21,0,0,0-3.25,3.36,3.3,3.3,0,0,0,3.46,3.35,3.26,3.26,0,0,0,2.75-1.3Zm-9-.8a1.41,1.41,0,0,1-1.46,1.52c-.88,0-1.32-.56-1.32-1.6v-3.15h3.3v-.73h-3.3v-2.25h-.56c-.21,1.4-.82,2.26-2.17,2.36v.62h1.54V281a2.09,2.09,0,0,0,2.29,2.23c1.5,0,2.25-1,2.2-2.53Zm-11.57,1.69a.94.94,0,0,1-1.07-1c0-.83.88-1.24,2.84-1.41v1.59a2.63,2.63,0,0,1-1.77.77m3.91-1c-.15.71-.35.89-.61.89s-.35-.11-.35-.51V278c0-1.09-.88-1.52-2.13-1.52-1.48,0-3,.58-3,1.81,0,.53.28,1,.82,1a.71.71,0,0,0,.77-.71,1,1,0,0,0-.09-.39.86.86,0,0,1-.09-.34c0-.5.87-.67,1.42-.67.77,0,1.12.33,1.12,1v1.15c-1.55.11-4.17.38-4.17,2.26,0,.95.66,1.61,1.93,1.61a3.62,3.62,0,0,0,2.3-.85,1.09,1.09,0,0,0,1.16.85c.64,0,1.29-.35,1.43-1.68Zm-12.83-5.52a.73.73,0,0,1,.81-.8h.65c1.19,0,2,.44,2,1.68s-.81,1.72-2,1.72h-1.46Zm1.88,7.09v-.63h-.69c-.51,0-1.19-.06-1.19-.81v-2.42h2c1.48,0,2.89-.61,2.89-2.35s-1.41-2.31-3.13-2.31h-4.54v.63h.34c.51,0,1.19.06,1.19.8v5.65c0,.75-.68.81-1.19.81h-.34V283Zm-17.91,0v-.57c-.3,0-1.1,0-1.1-.57v-3.67l1.43-.49a2,2,0,0,1,.6-.12c.4,0,.69.22.69.77v3.51c0,.56-.79.57-1.09.57V283h3.47v-.57h-.29c-.31,0-1-.07-1-.57v-4c0-.8-.35-1.3-1.1-1.3a3.1,3.1,0,0,0-1.14.27l-1.61.63v-1h-.55a1.64,1.64,0,0,1-1.64.88h-.18v.58h.17c.5,0,1.07.21,1.07.8v3.17c0,.52-.64.57-1,.57h-.28V283Zm-8.23-5.83a1.27,1.27,0,0,1,1.39,1.09c0,.32-.2.47-.57.47h-2.7a2,2,0,0,1,1.88-1.56m2.63,4.32a2.71,2.71,0,0,1-1.91.82,2.74,2.74,0,0,1-2.69-2.83v-.1h4.38c.29,0,.44-.14.44-.54a2.59,2.59,0,0,0-2.8-2.33,3.21,3.21,0,0,0-3.25,3.36,3.49,3.49,0,0,0,6.21,2.05Zm-11.35,1.07a1.54,1.54,0,0,1-1.66-1.54v-2.63a6.06,6.06,0,0,1,1.94-.82c.72,0,1.62,1,1.62,2.56s-.81,2.43-1.9,2.43m.88-6a6.66,6.66,0,0,0-2.54,1.08v-3.46h-.56a1.64,1.64,0,0,1-1.63.95h-.24v.57h.23c.5,0,1.07.22,1.07.81v6.83h.47l.43-.79a2.71,2.71,0,0,0,1.93.68,3.06,3.06,0,0,0,3.15-3.35c0-2.25-1.5-3.32-2.31-3.32m-6,5.88c-.35,0-.94,0-.94-.57V276.4h-.56a1.6,1.6,0,0,1-1.6.88H157v.58h.19c.5,0,1,.21,1,.8v2.69l-.87.48a2.5,2.5,0,0,1-1.12.36c-.43,0-.66-.23-.66-.78v-5h-.52a1.69,1.69,0,0,1-1.67.88h-.24v.58h.23c.5,0,1.07.21,1.07.8v3.24c0,.8.37,1.29,1.17,1.29a3,3,0,0,0,1.38-.4l1.23-.65v1.05l2.43-.22v-.57Zm-13.16-6.52a.74.74,0,0,1,.82-.8h.18c1.2,0,2,.44,2,1.69s-.81,1.68-2,1.68h-1Zm5,6.46a1.41,1.41,0,0,1-1.41-.82L149.32,279a2.24,2.24,0,0,0,2.18-2.27c0-1.73-1.46-2.32-3-2.32h-4.17v.63h.35c.51,0,1.19.06,1.19.8v5.65c0,.75-.68.81-1.19.81h-.35V283h4.33v-.63h-.33c-.5,0-1.2-.06-1.2-.81v-2.44h.8l1.71,3.18a1.4,1.4,0,0,1,.19.7h2.53v-.63Z"/><path class="cls-2" d="M227.54,264.34a3.63,3.63,0,0,0-2.14,1.29l-.3.29v-1.7h-.56a1.66,1.66,0,0,1-1.64.89h-.85v.57h.84c.5,0,1.07.22,1.07.8v3.17c0,.52-.64.57-1,.57h-.95v.57h5.34v-.57h-1.32c-.26,0-1-.05-1-.57v-2.92l.72-.67a1.27,1.27,0,0,1,.84-.45,1.22,1.22,0,0,1,.43.09,1.47,1.47,0,0,0,.53.11.69.69,0,0,0,.76-.73.75.75,0,0,0-.84-.74m-10.79.62a1.27,1.27,0,0,1,1.39,1.1c0,.31-.2.46-.57.46h-2.7a2,2,0,0,1,1.88-1.56m2.63,4.32a2.67,2.67,0,0,1-1.91.82,2.74,2.74,0,0,1-2.69-2.83v-.09h4.38c.29,0,.44-.15.44-.55a2.59,2.59,0,0,0-2.8-2.33,3.22,3.22,0,0,0-3.25,3.36,3.49,3.49,0,0,0,6.21,2ZM208,270.36a1.54,1.54,0,0,1-1.65-1.55v-2.63a6.16,6.16,0,0,1,1.93-.82c.72,0,1.62,1,1.62,2.56s-.81,2.44-1.9,2.44m.88-6a6.76,6.76,0,0,0-2.53,1.08V262h-.56a1.67,1.67,0,0,1-1.64.95h-.24v.57h.23c.5,0,1.07.22,1.07.8v6.83h.47l.43-.79a2.71,2.71,0,0,0,1.93.68,3.06,3.06,0,0,0,3.15-3.35c0-2.25-1.49-3.32-2.31-3.32m-10.12,5.83a.94.94,0,0,1-1.07-.95c0-.83.87-1.24,2.84-1.41v1.6a2.7,2.7,0,0,1-1.77.76m3.91-.95c-.15.71-.36.89-.61.89s-.35-.11-.35-.51v-3.77c0-1.1-.88-1.53-2.13-1.53-1.48,0-3,.59-3,1.82a.84.84,0,0,0,.82.95.71.71,0,0,0,.76-.71,1,1,0,0,0-.08-.39.86.86,0,0,1-.09-.34c0-.5.87-.67,1.41-.67.77,0,1.13.33,1.13,1v1.14c-1.55.11-4.17.38-4.17,2.27,0,.95.66,1.6,1.92,1.6a3.57,3.57,0,0,0,2.31-.85,1.08,1.08,0,0,0,1.15.85c.65,0,1.29-.35,1.44-1.68Zm-12,.94a.74.74,0,0,1-.82-.8v-2.83h1.25c1.23,0,2,.61,2,1.85s-.88,1.78-2,1.78Zm-.82-6.45a.74.74,0,0,1,.82-.81h.37c1.21,0,1.78.5,1.78,1.49,0,1.23-.9,1.51-2,1.51h-1Zm1.68,7.08c1.45,0,3-.62,3-2.42a2.19,2.19,0,0,0-1.73-2.17,1.91,1.91,0,0,0,1.41-1.84c0-1.52-1.4-2.09-3-2.09H187.1v.63h.34c.51,0,1.19.06,1.19.81v5.65c0,.74-.68.8-1.19.8h-.34v.63Zm-14.25,0v-.57h-1.51c-.45,0-1.14-.06-1.14-.58V262h-.57a1.85,1.85,0,0,1-1.76.95H171.2v.57h1.14c.51,0,1.15.2,1.15.81v5.34c0,.52-.71.58-1.15.58h-1.51v.57Zm-9.91-.57c-.45,0-1.14-.06-1.14-.58v-5.42h-.56a1.82,1.82,0,0,1-1.76.89h-1.15v.57H164c.51,0,1.16.19,1.16.8v3.16c0,.52-.71.58-1.15.58h-1.52v.57h6.5v-.57Zm-1.74-6.75a.92.92,0,1,0-.93-.92.91.91,0,0,0,.93.92m-5.19,6.75c-.32,0-1-.07-1-.57v-4c0-.8-.35-1.3-1.11-1.3a3.1,3.1,0,0,0-1.13.27l-1.61.63V262h-.56a1.6,1.6,0,0,1-1.59.95h-.25v.57h.23c.5,0,1,.22,1,.8v5.36c0,.52-.65.57-1,.57h-.28v.57h3.47v-.57c-.31,0-1.1,0-1.1-.57V266l1.43-.48a1.81,1.81,0,0,1,.61-.13c.4,0,.68.22.68.77v3.51c0,.57-.79.57-1.1.57v.57h3.47v-.57Zm-13.25-6.51a.74.74,0,0,1,.82-.81h.64c1.2,0,2,.44,2,1.68s-.8,1.72-2,1.72h-1.46Zm1.89,7.08v-.63h-.69c-.52,0-1.2-.06-1.2-.8v-2.43h2c1.47,0,2.88-.6,2.88-2.35s-1.41-2.31-3.13-2.31h-4.54v.63h.34c.52,0,1.2.06,1.2.81v5.65c0,.74-.68.8-1.2.8h-.34v.63Z"/><path class="cls-2" d="M245.52,258.62v-.57H244c-.45,0-1.14-.07-1.14-.59v-7.67h-.57a1.83,1.83,0,0,1-1.75,1h-1.16v.57h1.14c.51,0,1.15.21,1.15.82v5.33c0,.52-.71.59-1.15.59H239v.57ZM232.89,258a1,1,0,0,1-1.08-.95c0-.83.88-1.25,2.84-1.42v1.6a2.62,2.62,0,0,1-1.76.77m3.9-.95c-.14.7-.35.89-.61.89s-.35-.11-.35-.52v-3.77c0-1.1-.87-1.52-2.13-1.52-1.47,0-3,.58-3,1.81,0,.53.28.95.81.95a.7.7,0,0,0,.77-.71,1.06,1.06,0,0,0-.09-.39.81.81,0,0,1-.08-.34c0-.5.86-.67,1.41-.67.77,0,1.12.33,1.12,1V255c-1.55.11-4.16.38-4.16,2.27,0,.95.65,1.61,1.92,1.61a3.56,3.56,0,0,0,2.3-.86,1.1,1.1,0,0,0,1.16.86c.64,0,1.29-.36,1.43-1.68Zm-9.25-4.89a3.63,3.63,0,0,0-2.14,1.29l-.3.3V252h-.56a1.66,1.66,0,0,1-1.64.89h-.85v.57h.84c.5,0,1.07.22,1.07.81v3.16c0,.53-.65.58-1,.58h-.95v.57h5.34v-.57h-1.32c-.26,0-1-.05-1-.58v-2.92l.72-.67a1.27,1.27,0,0,1,.84-.45,1.23,1.23,0,0,1,.43.1,1.47,1.47,0,0,0,.53.11.69.69,0,0,0,.76-.73.76.76,0,0,0-.84-.75M215.84,258a1,1,0,0,1-1.08-.95c0-.83.88-1.25,2.84-1.42v1.6a2.62,2.62,0,0,1-1.76.77m3.91-.95c-.15.7-.36.89-.61.89s-.36-.11-.36-.52v-3.77c0-1.1-.87-1.52-2.13-1.52-1.47,0-3,.58-3,1.81,0,.53.28.95.81.95a.7.7,0,0,0,.77-.71,1.06,1.06,0,0,0-.09-.39,1,1,0,0,1-.08-.34c0-.5.86-.67,1.41-.67.77,0,1.12.33,1.12,1V255c-1.54.11-4.16.38-4.16,2.27,0,.95.66,1.61,1.92,1.61a3.51,3.51,0,0,0,2.3-.86,1.1,1.1,0,0,0,1.16.86c.65,0,1.29-.36,1.44-1.68Zm-8.25-3.54c0-.8-.29-1.32-1.06-1.32a2.45,2.45,0,0,0-.87.23l-1,.45a.9.9,0,0,0-1-.68,2.62,2.62,0,0,0-.88.25l-.9.39V252h-.55a1.51,1.51,0,0,1-1.41.89v.57c.62,0,.93.18.93.81v3.16c0,.58-.48.58-.8.58v.57h2.57v-.57c-.27,0-.74,0-.74-.58v-4l.49-.18a2.08,2.08,0,0,1,.62-.15c.38,0,.68.25.68.79v3.57c0,.58-.55.58-.73.58v.57h2.51v-.57c-.2,0-.75,0-.75-.58v-4l.5-.19a1.84,1.84,0,0,1,.63-.15c.37,0,.68.25.68.79v3.57c0,.58-.5.58-.75.58v.57h2.57v-.57c-.27,0-.79,0-.79-.58Zm-12.25-2.42,1.06,3.72h-2.17Zm-.31,7.53V258h-.37c-1,0-1.27-.32-1-1.1l.41-1.37h2.57l.42,1.49c.21.74-.1,1-.84,1h-.49v.64h4V258h-.26c-.6,0-.83-.21-1-.86L200.17,250h-1.23l-2.09,6.82c-.27.86-.63,1.15-1.31,1.15h-.21v.64Zm-17.2-.62a.94.94,0,0,1-1.07-.95c0-.83.88-1.25,2.84-1.42v1.6a2.65,2.65,0,0,1-1.77.77m3.91-.95c-.15.7-.35.89-.61.89s-.35-.11-.35-.52v-3.77c0-1.1-.88-1.52-2.13-1.52-1.48,0-3,.58-3,1.81,0,.53.28.95.82.95a.7.7,0,0,0,.76-.71,1,1,0,0,0-.08-.39.82.82,0,0,1-.09-.34c0-.5.87-.67,1.42-.67.76,0,1.12.33,1.12,1V255c-1.55.11-4.17.38-4.17,2.27,0,.95.66,1.61,1.93,1.61a3.56,3.56,0,0,0,2.3-.86,1.08,1.08,0,0,0,1.15.86c.65,0,1.29-.36,1.44-1.68Zm-9.26-4.89a3.66,3.66,0,0,0-2.14,1.29l-.29.3V252h-.56a1.66,1.66,0,0,1-1.64.89h-.86v.57h.84c.5,0,1.08.22,1.08.81v3.16c0,.53-.65.58-1,.58h-.95v.57h5.35v-.57h-1.33c-.25,0-1-.05-1-.58v-2.92l.72-.67a1.25,1.25,0,0,1,.84-.45,1.13,1.13,0,0,1,.42.1,1.48,1.48,0,0,0,.54.11.68.68,0,0,0,.75-.73.75.75,0,0,0-.84-.75M164.69,258a1,1,0,0,1-1.07-.95c0-.83.88-1.25,2.84-1.42v1.6a2.63,2.63,0,0,1-1.77.77m3.91-.95c-.15.7-.35.89-.61.89s-.35-.11-.35-.52v-3.77c0-1.1-.88-1.52-2.13-1.52-1.48,0-3,.58-3,1.81,0,.53.28.95.82.95a.71.71,0,0,0,.77-.71,1.06,1.06,0,0,0-.09-.39.82.82,0,0,1-.09-.34c0-.5.87-.67,1.42-.67.77,0,1.12.33,1.12,1V255c-1.55.11-4.17.38-4.17,2.27,0,.95.66,1.61,1.93,1.61a3.56,3.56,0,0,0,2.3-.86,1.09,1.09,0,0,0,1.16.86c.64,0,1.29-.36,1.43-1.68Zm-8.32,1.57v-.57h-1.51c-.45,0-1.14-.07-1.14-.59v-7.67h-.57a1.84,1.84,0,0,1-1.76,1h-1.15v.57h1.14c.51,0,1.15.21,1.15.82v5.33c0,.52-.71.59-1.15.59h-1.51v.57Zm-11.14.22a3.12,3.12,0,0,0,3-1.95l-.48-.34a2.5,2.5,0,0,1-2.2,1.3c-1.59,0-3-1.38-3-4.13,0-2,.73-3.14,1.83-3.14.84,0,1.76.66,3.19,2.09h.57l-1.22-2.87h-.47l-.11.2a.4.4,0,0,1-.38.2,1.83,1.83,0,0,1-.5-.09,3,3,0,0,0-1-.19c-1.94,0-3.28,1.87-3.28,4.35,0,2.75,1.63,4.57,4,4.57"/><path class="cls-1" d="M206.2,232l.07-.31c0-.21.14-.24.24-.24a1.28,1.28,0,0,1,.47.13,3.87,3.87,0,0,0,1.37.24,2,2,0,0,0,2.21-2,1.75,1.75,0,0,0-1.71-1.84l-1.21-.13c-.68-.07-1.45-.17-1.45-.86s.54-1,1.28-1a2.73,2.73,0,0,1,2.27,1.46h.58l-.74-2.43h-.49l-.12.32c-.06.16-.13.21-.27.21a1.78,1.78,0,0,1-.35-.06,3.28,3.28,0,0,0-1-.15,2,2,0,0,0-2.18,2c0,1.29,1.08,1.62,2,1.71l1.12.11c.7.07,1.21.35,1.21,1s-.45,1-1.25,1a3.72,3.72,0,0,1-2.84-1.83h-.57l.76,2.66Zm-4.54-2.62a1.4,1.4,0,0,1-1.45,1.5c-.86,0-1.29-.55-1.29-1.57v-3.11h3.25v-.72h-3.25v-2.22h-.55c-.22,1.39-.82,2.24-2.15,2.33v.61h1.52v3.48a2.06,2.06,0,0,0,2.26,2.2c1.47,0,2.22-1,2.17-2.5ZM189.4,232l.07-.31c.05-.21.14-.24.24-.24a1.28,1.28,0,0,1,.47.13,3.87,3.87,0,0,0,1.37.24,2,2,0,0,0,2.21-2,1.75,1.75,0,0,0-1.71-1.84l-1.21-.13c-.68-.07-1.45-.17-1.45-.86s.54-1,1.28-1a2.73,2.73,0,0,1,2.27,1.46h.58l-.74-2.43h-.49l-.12.32c-.06.16-.13.21-.27.21a1.78,1.78,0,0,1-.35-.06,3.28,3.28,0,0,0-1-.15,2,2,0,0,0-2.18,2c0,1.29,1.08,1.62,2,1.71l1.12.11c.7.07,1.21.35,1.21,1s-.45,1-1.25,1a3.72,3.72,0,0,1-2.84-1.83h-.57l.76,2.66Zm-6.65-6.09a1.26,1.26,0,0,1,1.37,1.09c0,.31-.19.45-.56.45h-2.65a1.94,1.94,0,0,1,1.84-1.54m2.6,4.27a2.65,2.65,0,0,1-4.54-2v-.09h4.32c.29,0,.43-.15.43-.54a2.55,2.55,0,0,0-2.76-2.29,3.17,3.17,0,0,0-3.2,3.31,3.44,3.44,0,0,0,6.12,2Zm-7.83.92c-.33,0-.92,0-.92-.56v-5.35h-.55a1.6,1.6,0,0,1-1.58.87h-.2v.56h.19c.49,0,1,.22,1,.79V230l-.85.47a2.46,2.46,0,0,1-1.1.36c-.42,0-.65-.23-.65-.77v-4.94h-.52a1.66,1.66,0,0,1-1.64.87h-.24v.56h.23c.49,0,1,.22,1,.79v3.2c0,.79.36,1.27,1.15,1.27a2.88,2.88,0,0,0,1.36-.4l1.21-.63v1l2.4-.22v-.56Zm-11.77.78c1.56,0,2-.9,2.63-.9h.43v-2.74c0-.55.26-.73.85-.73v-.57H166v.57h.39c.51,0,1.15.12,1.15.73v1.25a1.65,1.65,0,0,1-1.78,1.74c-1.59,0-2.1-1.51-2.1-3.24v-1.19c0-1.58.54-3.06,1.84-3.06.84,0,1.67.63,3,2.07h.56l-1.2-2.83h-.47l-.12.21a.35.35,0,0,1-.35.18,1.23,1.23,0,0,1-.43-.09,2.65,2.65,0,0,0-1-.18c-2,0-3.39,1.94-3.39,4.34s1.3,4.44,3.65,4.44"/><path class="cls-1" d="M21.09,47.72v-.57c-.31,0-1.1,0-1.1-.57V42.91l1.43-.48a1.76,1.76,0,0,1,.6-.13c.4,0,.69.22.69.77v3.51c0,.56-.79.57-1.1.57v.57h3.47v-.57H24.8c-.31,0-1-.07-1-.57v-4c0-.8-.35-1.3-1.11-1.3a3.1,3.1,0,0,0-1.13.27L20,42.17v-1h-.56A1.63,1.63,0,0,1,17.8,42h-.18v.57h.17c.5,0,1.07.22,1.07.8v3.17c0,.52-.64.57-1,.57h-.28v.57Zm-8.23-5.83A1.27,1.27,0,0,1,14.25,43c0,.31-.2.46-.58.46H11a2,2,0,0,1,1.88-1.56m2.63,4.32a2.67,2.67,0,0,1-1.91.82,2.74,2.74,0,0,1-2.7-2.83v-.09h4.39c.29,0,.44-.15.44-.55a2.59,2.59,0,0,0-2.8-2.33,3.21,3.21,0,0,0-3.25,3.36,3.29,3.29,0,0,0,3.45,3.35,3.26,3.26,0,0,0,2.75-1.3Zm-9-.8A1.43,1.43,0,0,1,5,46.93c-.87,0-1.31-.56-1.31-1.59V42.18H7v-.73H3.69V39.2H3.13C2.91,40.6,2.3,41.46,1,41.56v.62H2.5v3.53a2.08,2.08,0,0,0,2.28,2.23c1.5,0,2.26-1,2.21-2.53Z"/><path class="cls-1" d="M23.2,35c-.46,0-1.15-.06-1.15-.58V29h-.56a1.8,1.8,0,0,1-1.75.89H18.58v.57h1.15c.51,0,1.15.19,1.15.8v3.16c0,.52-.7.58-1.14.58H18.22v.57h6.5V35Zm-1.75-6.74a.92.92,0,0,0,.91-.93.92.92,0,0,0-1.83,0,.91.91,0,0,0,.92.93m-8.59,1.48a1.27,1.27,0,0,1,1.39,1.1c0,.32-.2.46-.58.46H11a2,2,0,0,1,1.88-1.56M15.49,34a2.69,2.69,0,0,1-1.91.81A2.74,2.74,0,0,1,10.88,32v-.1h4.39c.29,0,.44-.15.44-.55a2.58,2.58,0,0,0-2.8-2.32,3.21,3.21,0,0,0-3.25,3.36,3.29,3.29,0,0,0,3.45,3.34,3.26,3.26,0,0,0,2.75-1.3ZM5.22,35.54c.32,0,.49.08.55.32l.07.27h.55l1-3H6.84A2.83,2.83,0,0,1,4.36,35H3.2c-.27,0-.33-.2-.18-.37l4.09-4.87v-.49H3.35c-.25,0-.32-.07-.38-.21l-.1-.26H2.39l-1,2.86H2c.61-1,1.33-1.84,2.3-1.84H5.1c.26,0,.33.2.18.37L1.2,35v.51Z"/><path class="cls-1" d="M36.65,23.71l.07-.32c.05-.2.14-.24.25-.24a1.34,1.34,0,0,1,.47.13,3.72,3.72,0,0,0,1.39.25,2,2,0,0,0,2.24-2,1.77,1.77,0,0,0-1.73-1.87l-1.23-.13c-.69-.08-1.47-.17-1.47-.88s.55-1,1.3-1a2.76,2.76,0,0,1,2.31,1.49h.58l-.76-2.48h-.48l-.12.33c-.07.16-.14.21-.28.21a1.24,1.24,0,0,1-.36-.06,3.73,3.73,0,0,0-1-.15,2,2,0,0,0-2.22,2c0,1.31,1.1,1.64,2.06,1.74l1.13.11c.71.07,1.23.35,1.23,1s-.46,1.05-1.26,1.05A3.77,3.77,0,0,1,35.91,21h-.58l.77,2.7Zm-6.27-.31c.88.1,1.55.22,1.55.8s-1,1-2.05,1c-1.26,0-2.11-.42-2.11-1.15a1.12,1.12,0,0,1,.47-.87,3,3,0,0,0,.46.06Zm-.77-2.81a1.42,1.42,0,0,1-1.4-1.53,1.41,1.41,0,1,1,2.79,0A1.42,1.42,0,0,1,29.61,20.59Zm3.1-3.34c.45,0,.73-.19.73-.58a.64.64,0,0,0-.72-.63,1.06,1.06,0,0,0-1,1.26l.05.43a2.76,2.76,0,0,0-2.12-.83c-1.58,0-2.66,1-2.66,2.17a1.89,1.89,0,0,0,1,1.68l-.71.67a.92.92,0,0,0-.39.68c0,.32.19.68.88.93-.68.28-1.17.72-1.17,1.3,0,1,1.29,1.47,3,1.47,1.43,0,3.31-.36,3.31-2,0-.84-.52-1.35-1.77-1.49l-2.07-.24c-.56-.06-1-.14-1-.47a.74.74,0,0,1,.22-.45l.18-.2a3.62,3.62,0,0,0,1.13.17c1.56,0,2.61-.88,2.61-2.1,0-.48-.07-.94-.07-1.34s.17-.47.56-.47M21.09,23.37V22.8c-.3,0-1.1,0-1.1-.58V18.56l1.43-.49A2,2,0,0,1,22,18c.4,0,.69.22.69.77v3.5c0,.56-.79.58-1.1.58v.57h3.47V22.8H24.8c-.31,0-1-.08-1-.58v-4c0-.81-.35-1.3-1.11-1.3a3.07,3.07,0,0,0-1.13.26L20,17.81v-1h-.56a1.61,1.61,0,0,1-1.63.89h-.18v.57h.17c.5,0,1.07.22,1.07.81v3.16c0,.53-.64.58-1,.58h-.28v.57Zm-5-.57c-.34,0-.94,0-.94-.58V16.79h-.56a1.58,1.58,0,0,1-1.59.89h-.21v.57H13c.5,0,1,.22,1,.81v2.69l-.86.47a2.47,2.47,0,0,1-1.12.37c-.43,0-.66-.23-.66-.78v-5h-.52a1.67,1.67,0,0,1-1.67.89H8.93v.57h.23c.5,0,1.07.22,1.07.81V22.3c0,.8.36,1.29,1.17,1.29a2.94,2.94,0,0,0,1.37-.4L14,22.54v1.05l2.44-.22V22.8ZM4,23.37V22.8c-.3,0-1.1,0-1.1-.58V18.56l1.43-.49A2,2,0,0,1,5,18c.4,0,.69.22.69.77v3.5c0,.56-.79.58-1.09.58v.57H8V22.8H7.75c-.31,0-1-.08-1-.58v-4c0-.81-.35-1.3-1.1-1.3a3.07,3.07,0,0,0-1.14.26l-1.61.63v-1H2.39a1.63,1.63,0,0,1-1.64.89H.57v.57H.74c.5,0,1.07.22,1.07.81v3.16c0,.53-.64.58-1,.58H.57v.57Z"/><path class="cls-1" d="M22.73,2.06c-1.47,0-2.5.79-2.5,2.07v.79H18.4v.61h1.83v4.52c0,.52-.65.57-1,.57h-1.1v.57H24v-.57H22.4c-.31,0-1,0-1-.57V5.53H24V4.92H21.44V3.77c0-.57.22-1.13,1-1.13a1.23,1.23,0,0,1,1.08.72c.2.32.41.62.85.62A.64.64,0,0,0,25,3.3c0-.87-1.23-1.24-2.27-1.24m-8.52,0c-1.47,0-2.51.79-2.51,2.07v.79H9.88v.61H11.7v4.52c0,.52-.64.57-1,.57H9.63v.57H15.5v-.57H13.88c-.32,0-1,0-1-.57V5.53H15.5V4.92H12.92V3.77c0-.57.22-1.13,1-1.13A1.2,1.2,0,0,1,15,3.36c.21.32.42.62.85.62a.63.63,0,0,0,.67-.68c0-.87-1.23-1.24-2.26-1.24M4.13,10.75c-1.35,0-2.06-1.12-2.06-3.4V6.5c0-2.28.71-3.4,2.06-3.4s2,1.12,2,3.4v.85c0,2.28-.68,3.4-2,3.4m0,.66c2.31,0,3.64-2.13,3.64-4.48S6.44,2.45,4.13,2.45.46,4.58.46,6.93s1.34,4.48,3.67,4.48M5.25,1.79a.88.88,0,0,0,.89-.9.89.89,0,1,0-1.78,0,.88.88,0,0,0,.89.9M3,1.79a.88.88,0,0,0,.89-.9A.87.87,0,0,0,3,0a.87.87,0,0,0-.89.89.88.88,0,0,0,.89.9"/><path class="cls-1" d="M79.24,42l.07-.31c0-.21.14-.25.25-.25a1.37,1.37,0,0,1,.47.14,4,4,0,0,0,1.39.24,2,2,0,0,0,2.24-2,1.77,1.77,0,0,0-1.73-1.86l-1.23-.14c-.69-.07-1.47-.17-1.47-.87s.55-1,1.3-1a2.74,2.74,0,0,1,2.3,1.48h.59l-.76-2.47h-.48l-.12.33c-.07.16-.14.21-.28.21a1.74,1.74,0,0,1-.36-.06,3.35,3.35,0,0,0-1-.15,2,2,0,0,0-2.22,2c0,1.32,1.1,1.65,2.06,1.75l1.13.1c.71.08,1.23.36,1.23,1s-.46,1-1.26,1a3.79,3.79,0,0,1-2.89-1.87h-.58l.77,2.7Zm-4.48-6.79a3.63,3.63,0,0,0-2.14,1.29l-.3.29v-1.7h-.55a1.68,1.68,0,0,1-1.65.89h-.85v.57h.84c.5,0,1.07.22,1.07.8v3.17c0,.52-.64.57-1,.57h-1v.57h5.34v-.57H73.29c-.26,0-1-.05-1-.57V37.57L73,36.9a1.27,1.27,0,0,1,.84-.45,1.18,1.18,0,0,1,.43.09,1.48,1.48,0,0,0,.54.11.68.68,0,0,0,.75-.73.75.75,0,0,0-.84-.74m-7.57,5.88c-.35,0-.94,0-.94-.57V35.06h-.56a1.61,1.61,0,0,1-1.6.89h-.2v.57h.19c.5,0,1,.22,1,.8V40l-.87.48a2.52,2.52,0,0,1-1.12.37c-.43,0-.66-.24-.66-.78v-5H62a1.69,1.69,0,0,1-1.67.89H60v.57h.23c.5,0,1.07.22,1.07.8v3.24c0,.81.37,1.29,1.17,1.29a2.86,2.86,0,0,0,1.38-.4l1.23-.64v1l2.43-.22v-.57Zm-12,.14c-1.22,0-1.95-1-1.95-2.68S54,35.8,55.23,35.8s2,1.05,2,2.72-.73,2.68-2,2.68m0,.65a3.32,3.32,0,0,0,3.36-3.33,3.36,3.36,0,1,0-6.72,0,3.3,3.3,0,0,0,3.36,3.33m-4.9-.79c-.31,0-1-.07-1-.57v-4c0-.8-.35-1.3-1.11-1.3a3.1,3.1,0,0,0-1.13.27l-1.61.63V32.81H45a1.6,1.6,0,0,1-1.59.95h-.24v.57h.23c.5,0,1,.22,1,.8v5.36c0,.52-.64.57-1,.57h-.28v.57h3.47v-.57c-.31,0-1.1,0-1.1-.57V36.82L47,36.34a1.81,1.81,0,0,1,.61-.13c.4,0,.68.22.68.77v3.51c0,.57-.79.57-1.1.57v.57h3.47v-.57Z"/><path class="cls-1" d="M64.45,29.49c.87.1,1.54.22,1.54.8s-1,1-2,1c-1.27,0-2.11-.42-2.11-1.16a1.13,1.13,0,0,1,.46-.86c.15,0,.3.05.47.06Zm-.77-2.81a1.42,1.42,0,0,1-1.4-1.53,1.41,1.41,0,1,1,2.79,0,1.42,1.42,0,0,1-1.39,1.53m3.09-3.34c.45,0,.73-.19.73-.58a.64.64,0,0,0-.72-.63,1,1,0,0,0-1,1.26l0,.43A2.76,2.76,0,0,0,63.68,23C62.1,23,61,24,61,25.16a1.94,1.94,0,0,0,1,1.68l-.7.67a.89.89,0,0,0-.39.68c0,.32.18.68.87.93-.68.28-1.16.71-1.16,1.3,0,.95,1.29,1.47,3,1.47,1.42,0,3.31-.36,3.31-2,0-.84-.52-1.35-1.78-1.5l-2.07-.23c-.56-.06-1-.14-1-.47a.74.74,0,0,1,.22-.45l.19-.2a3.62,3.62,0,0,0,1.13.17c1.56,0,2.6-.89,2.6-2.1,0-.48-.07-.94-.07-1.34s.17-.47.56-.47M55.16,29.46v-.57c-.31,0-1.1,0-1.1-.58V24.65l1.42-.49a2.06,2.06,0,0,1,.6-.12c.4,0,.7.22.7.76v3.51c0,.56-.8.58-1.1.58v.57h3.47v-.57h-.28c-.32,0-1-.08-1-.58v-4c0-.81-.36-1.31-1.11-1.31a3.1,3.1,0,0,0-1.13.27l-1.61.63v-1H53.5a1.61,1.61,0,0,1-1.63.89h-.18v.57h.17c.5,0,1.07.22,1.07.81v3.16c0,.53-.65.58-1,.58h-.28v.57Zm-6.42-.57c-.45,0-1.15-.07-1.15-.59V22.88H47a1.78,1.78,0,0,1-1.75.89H44.12v.57h1.15c.51,0,1.15.2,1.15.81V28.3c0,.52-.7.59-1.14.59H43.76v.57h6.5v-.57ZM47,22.14a.9.9,0,0,0,.9-.93.92.92,0,0,0-1.83,0,.91.91,0,0,0,.93.93"/><path class="cls-1" d="M72.2,17.28v-.57c-.3,0-1.09,0-1.09-.57V12.47L72.53,12a2.06,2.06,0,0,1,.6-.12c.4,0,.69.22.69.77v3.51c0,.56-.79.57-1.09.57v.57H76.2v-.57h-.28c-.32,0-1-.07-1-.57v-4c0-.8-.35-1.3-1.1-1.3a3.23,3.23,0,0,0-1.13.26l-1.61.64v-1h-.56a1.63,1.63,0,0,1-1.63.88h-.19v.57h.17c.5,0,1.08.22,1.08.81v3.17c0,.52-.65.57-1,.57h-.28v.57ZM64,11.45a1.27,1.27,0,0,1,1.39,1.09c0,.32-.19.47-.57.47H62.1A2,2,0,0,1,64,11.45m2.63,4.32a2.69,2.69,0,0,1-1.91.82A2.74,2.74,0,0,1,62,13.76v-.1h4.38c.29,0,.44-.14.44-.54A2.59,2.59,0,0,0,64,10.79a3.21,3.21,0,0,0-3.25,3.36,3.49,3.49,0,0,0,6.21,2ZM55.45,16.83a2.55,2.55,0,0,1-1.62-.67V12.6a5.68,5.68,0,0,1,1.81-.75c.82,0,1.63,1.12,1.63,2.58s-.82,2.4-1.82,2.4m.8-6a6.48,6.48,0,0,0-2.42,1V10.71h-.56a1.62,1.62,0,0,1-1.63.88h-.25v.57h.23c.5,0,1.08.22,1.08.81v5.6c0,.53-.65.57-1,.57h-.34v.57h4v-.57h-.61c-.32,0-1,0-1-.57V17.09a3.86,3.86,0,0,0,1.69.41,3.05,3.05,0,0,0,3-3.34c0-2.21-1.47-3.33-2.31-3.33m-9.53,6c-1.36,0-2.06-1.12-2.06-3.4v-.85c0-2.28.7-3.4,2.06-3.4s2,1.12,2,3.4v.85c0,2.28-.68,3.4-2,3.4m0,.66c2.31,0,3.64-2.13,3.64-4.48S49,8.54,46.72,8.54,43.05,10.67,43.05,13s1.34,4.48,3.67,4.48"/><path class="cls-2" d="M40.69,155.05a3.66,3.66,0,0,0-2.14,1.29l-.29.29v-1.7H37.7a1.67,1.67,0,0,1-1.64.89H35.2v.57H36c.5,0,1.08.22,1.08.8v3.17c0,.52-.65.57-1,.57H35.2v.57h5.35v-.57H39.22c-.25,0-1-.05-1-.57v-2.93l.72-.67a1.29,1.29,0,0,1,.84-.45,1.13,1.13,0,0,1,.42.1,1.48,1.48,0,0,0,.54.11.68.68,0,0,0,.75-.73.75.75,0,0,0-.84-.74m-7.38,5.88c-.31,0-1-.07-1-.57v-4c0-.8-.35-1.3-1.1-1.3a3.1,3.1,0,0,0-1.14.27L28.5,156v-3.28H28a1.6,1.6,0,0,1-1.6,1h-.24v.57h.23c.5,0,1,.22,1,.81v5.36c0,.52-.64.57-1,.57h-.28v.57H29.6v-.57c-.3,0-1.1,0-1.1-.57v-3.67l1.43-.49a2.12,2.12,0,0,1,.61-.12c.4,0,.68.22.68.77v3.51c0,.57-.79.57-1.09.57v.57h3.46v-.57Zm-12,.79c2,0,2.67-1.23,2.67-3.06v-4.1c0-.84.55-.95,1-.95h.32V153H22v.63h.36c.45,0,.94.11.94.95v3.74c0,1.4-.43,2.31-1.82,2.31s-1.84-.76-1.84-2.2v-4c0-.74.69-.8,1.2-.8h.23V153h-4v.63h.25c.51,0,1.07.06,1.07.8v4.46a2.61,2.61,0,0,0,2.9,2.85"/><path class="cls-2" d="M29.69,136.62c-1.45,0-1.7-1.73-1.7-3.75s.25-3.74,1.7-3.74,1.69,1.74,1.69,3.74-.24,3.75-1.69,3.75m0,.75c1.85,0,3.18-2,3.18-4.5s-1.33-4.48-3.18-4.48-3.2,2-3.2,4.48,1.35,4.5,3.2,4.5m-5.85-2.6c-.51.86-.81,1.23-1.43,1.23H19.34a14.1,14.1,0,0,1,1.53-1.24l.46-.33c1.42-1,2.63-1.86,2.63-3.45a2.5,2.5,0,0,0-2.65-2.58c-1.84,0-2.72,1.43-2.89,2.94l.67.23c.28-1.22.92-2.17,2-2.17a1.57,1.57,0,0,1,1.53,1.76c0,1.14-.75,1.86-1.79,2.7l-.39.32a18.49,18.49,0,0,0-2.3,2.14v.83H22c.6,0,.94.22.94.69h.5l1-3.07Z"/><path class="cls-2" d="M33,121H26.39v1H33Zm-9.15,1.59c-.51.86-.81,1.24-1.43,1.24H19.34a13.12,13.12,0,0,1,1.53-1.25l.46-.33c1.42-1,2.63-1.86,2.63-3.44a2.49,2.49,0,0,0-2.65-2.58,2.93,2.93,0,0,0-2.89,2.93l.67.23c.28-1.22.92-2.17,2-2.17A1.57,1.57,0,0,1,22.61,119c0,1.14-.75,1.86-1.79,2.7l-.39.32a18.49,18.49,0,0,0-2.3,2.14V125H22c.61,0,.95.22.95.69h.5l1-3.07ZM16.13,125v-.63H15c-.49,0-1.46-.09-1.46-.87v-7.15h-.64a2.48,2.48,0,0,1-2.41,1.59H10v.63h1.8c.31,0,.54.13.54.49v4.44c0,.78-1,.87-1.47.87H9.8V125Z"/><path class="cls-1" d="M12.86,94.78a1.27,1.27,0,0,1,1.39,1.1c0,.31-.2.46-.58.46H11a2,2,0,0,1,1.88-1.56m2.63,4.32a2.67,2.67,0,0,1-1.91.82,2.74,2.74,0,0,1-2.7-2.83V97h4.39c.29,0,.44-.15.44-.55a2.59,2.59,0,0,0-2.8-2.33,3.21,3.21,0,0,0-3.25,3.36,3.29,3.29,0,0,0,3.45,3.35,3.29,3.29,0,0,0,2.76-1.3ZM2.56,101l.07-.31c.05-.21.13-.24.24-.24a1.33,1.33,0,0,1,.48.13,3.91,3.91,0,0,0,1.39.24,2,2,0,0,0,2.24-2,1.77,1.77,0,0,0-1.73-1.86L4,96.75c-.7-.07-1.48-.17-1.48-.87s.55-1,1.31-1a2.77,2.77,0,0,1,2.3,1.48h.58L6,93.88H5.49l-.12.33c-.06.16-.13.21-.28.21a1.78,1.78,0,0,1-.35-.06,3.42,3.42,0,0,0-1-.15,2,2,0,0,0-2.21,2c0,1.32,1.09,1.65,2.05,1.75l1.14.11c.7.07,1.23.35,1.23,1s-.47,1.05-1.27,1.05a3.79,3.79,0,0,1-2.89-1.87H1.23L2,101Z"/><path class="cls-1" d="M19.6,88.78l.08-.32c.05-.21.13-.24.24-.24a1.33,1.33,0,0,1,.48.13,3.68,3.68,0,0,0,1.38.24,2,2,0,0,0,2.24-2,1.77,1.77,0,0,0-1.72-1.86l-1.23-.13c-.7-.08-1.48-.17-1.48-.88s.55-1,1.31-1a2.77,2.77,0,0,1,2.3,1.48h.58L23,81.7h-.49l-.12.33a.26.26,0,0,1-.28.21,1.29,1.29,0,0,1-.36-.06,3.66,3.66,0,0,0-1-.15,2,2,0,0,0-2.22,2c0,1.31,1.1,1.64,2.06,1.74l1.13.11c.71.07,1.23.35,1.23,1s-.46,1-1.26,1a3.76,3.76,0,0,1-2.89-1.87h-.58l.78,2.71ZM12.86,82.6a1.28,1.28,0,0,1,1.39,1.1c0,.32-.2.46-.58.46H11a2,2,0,0,1,1.88-1.56m2.63,4.33a2.69,2.69,0,0,1-1.91.81,2.74,2.74,0,0,1-2.7-2.82v-.1h4.39c.29,0,.44-.15.44-.55A2.59,2.59,0,0,0,12.91,82a3.21,3.21,0,0,0-3.25,3.36,3.29,3.29,0,0,0,3.45,3.35,3.3,3.3,0,0,0,2.76-1.31ZM8.17,80.55v-.64H5.58L4.07,83.8,2.68,79.91H0v.64H.24c.41,0,1,.06,1,.8v5.5c0,.85-.43,1-1,1H0v.64H3.24V87.8H2.9c-.75,0-1-.23-1-1V81.17l1.66,4.59H4l1.77-4.61V87c0,.56-.28.8-1.06.8H4.37v.64h3.8V87.8H8c-.41,0-1.07-.06-1.07-.8V81.35c0-.74.64-.8,1-.8Z"/><path class="cls-1" d="M57.74,88.07a3.66,3.66,0,0,0-2.14,1.29l-.29.29V88h-.56a1.66,1.66,0,0,1-1.65.89h-.85v.57h.84c.5,0,1.07.22,1.07.81v3.16c0,.53-.64.57-1,.57h-1v.58H57.6V94H56.27c-.26,0-1,0-1-.57V90.46l.72-.67a1.23,1.23,0,0,1,.84-.45,1.18,1.18,0,0,1,.42.1,1.49,1.49,0,0,0,.54.1.68.68,0,0,0,.75-.72.75.75,0,0,0-.84-.75m-9,5.88c-.45,0-1.15-.06-1.15-.58V88h-.56a1.78,1.78,0,0,1-1.75.89H44.15v.57H45.3c.51,0,1.16.2,1.16.81v3.15c0,.52-.71.58-1.15.58H43.79v.58h6.5V94ZM47,87.21a.9.9,0,0,0,.9-.93.92.92,0,0,0-1.83,0,.91.91,0,0,0,.93.93m-9.51,6.7a1,1,0,0,1-1.08-1c0-.83.88-1.25,2.84-1.42v1.6a2.67,2.67,0,0,1-1.76.77m3.9-1c-.14.7-.35.89-.6.89s-.36-.11-.36-.52V89.56c0-1.1-.87-1.52-2.13-1.52-1.47,0-3,.58-3,1.81a.84.84,0,0,0,.81,1,.71.71,0,0,0,.77-.71,1.06,1.06,0,0,0-.09-.39,1.05,1.05,0,0,1-.08-.34c0-.5.86-.67,1.41-.67.77,0,1.12.33,1.12,1v1.14c-1.54.11-4.16.38-4.16,2.27,0,1,.66,1.6,1.92,1.6a3.51,3.51,0,0,0,2.3-.85,1.09,1.09,0,0,0,1.16.85c.64,0,1.29-.35,1.44-1.67ZM30.6,94.53v-.64h-.69c-.52,0-1.2-.06-1.2-.8V90.46h1.45c.72,0,1,.62,1,1.29v.17h.56V88.3h-.56v.17c0,.67-.29,1.3-1,1.3H28.71V87.44a.75.75,0,0,1,.83-.81H30.6c.69,0,1.24.56,2.5,1.93h.63L32,85.41h-.56c-.22.57-.61.59-1.26.59H25.91v.63h.34c.51,0,1.2.07,1.2.81v5.65c0,.74-.69.8-1.2.8h-.34v.64Z"/><path class="cls-2" d="M75.8,162.49c0-.81-.29-1.33-1.06-1.33a2.45,2.45,0,0,0-.87.23l-1,.45a.91.91,0,0,0-1-.68,2.43,2.43,0,0,0-.88.26l-.9.39V161h-.55a1.5,1.5,0,0,1-1.41.89v.57c.62,0,.93.19.93.81v3.17c0,.57-.48.57-.8.57v.57h2.57V167c-.27,0-.74,0-.74-.57v-4l.49-.18a2.08,2.08,0,0,1,.62-.15c.38,0,.68.25.68.8v3.57c0,.57-.55.57-.73.57v.57h2.51V167c-.2,0-.75,0-.75-.57v-4l.5-.2a2.11,2.11,0,0,1,.63-.15c.37,0,.68.25.68.8v3.57c0,.57-.5.57-.75.57v.57h2.57V167c-.26,0-.79,0-.79-.57ZM64,167.14a2.57,2.57,0,0,1-1.62-.67v-3.56a5.71,5.71,0,0,1,1.82-.75c.81,0,1.63,1.12,1.63,2.58s-.83,2.4-1.83,2.4m.81-6a6.57,6.57,0,0,0-2.43,1V161h-.56a1.61,1.61,0,0,1-1.63.89H60v.57h.23c.5,0,1.07.22,1.07.81v5.6c0,.52-.64.57-1,.57H60V170h4v-.57h-.61c-.31,0-1,0-1-.57V167.4a3.91,3.91,0,0,0,1.7.41,3.06,3.06,0,0,0,3-3.34c0-2.21-1.47-3.33-2.31-3.33"/><path class="cls-2" d="M63.89,142.76a1.79,1.79,0,0,1-.55-3.53c1.69.6,2.42,1.07,2.42,2s-.79,1.55-1.87,1.55Zm0-7.57a1.53,1.53,0,0,1,1.63,1.58c0,.8-.52,1.23-1.28,1.45-1.17-.44-2-.84-2-1.7A1.43,1.43,0,0,1,63.88,135.19ZM65,138.53c1-.28,1.72-.8,1.72-1.83,0-1.34-1.22-2.21-2.79-2.21-1.74,0-2.86,1.06-2.86,2.34a2.21,2.21,0,0,0,1.57,2c-1.16.33-2.06,1-2.06,2.21,0,1.36,1.26,2.38,3.25,2.38S67,142.37,67,140.9C67,139.68,66.23,139,65,138.53Z"/><path class="cls-2" d="M67.1,127.09H60.48v1H67.1ZM58,128.68c-.51.86-.81,1.23-1.44,1.23H53.43A14.18,14.18,0,0,1,55,128.67l.46-.33c1.41-1,2.63-1.86,2.63-3.44a2.49,2.49,0,0,0-2.65-2.58,2.93,2.93,0,0,0-2.89,2.93l.67.23c.28-1.22.91-2.17,2-2.17a1.58,1.58,0,0,1,1.54,1.76c0,1.14-.76,1.86-1.79,2.7l-.39.32a17.81,17.81,0,0,0-2.3,2.14v.83h3.82c.61,0,1,.22,1,.69h.5l1-3.07Zm-7.72,2.38v-.63h-1.1c-.48,0-1.46-.09-1.46-.87v-7.15H47A2.49,2.49,0,0,1,44.63,124h-.51v.63h1.8c.3,0,.54.13.54.49v4.44c0,.78-1,.87-1.48.87H43.9v.63Z"/><path class="cls-2" d="M40.69,298.33a3.66,3.66,0,0,0-2.14,1.29l-.29.29v-1.7H37.7a1.67,1.67,0,0,1-1.64.89H35.2v.57H36c.5,0,1.08.22,1.08.8v3.17c0,.52-.65.57-1,.57H35.2v.57h5.35v-.57H39.22c-.25,0-1,0-1-.57v-2.92l.72-.67a1.25,1.25,0,0,1,.84-.45,1.12,1.12,0,0,1,.42.09,1.48,1.48,0,0,0,.54.11.68.68,0,0,0,.75-.73.75.75,0,0,0-.84-.74m-7.38,5.88c-.31,0-1-.07-1-.57v-4c0-.8-.35-1.3-1.1-1.3a3.1,3.1,0,0,0-1.14.27l-1.61.63V296H28a1.61,1.61,0,0,1-1.6,1h-.24v.57h.23c.5,0,1,.22,1,.8v5.36c0,.52-.64.57-1,.57h-.28v.57H29.6v-.57c-.3,0-1.1,0-1.1-.57V300l1.43-.48a1.86,1.86,0,0,1,.61-.13c.4,0,.68.22.68.77v3.51c0,.57-.79.57-1.09.57v.57h3.46v-.57Zm-12,.79c2,0,2.67-1.23,2.67-3.05v-4.11c0-.84.55-.95,1-.95h.32v-.63H22v.63h.36c.45,0,.94.11.94.95v3.74c0,1.4-.43,2.32-1.82,2.32s-1.84-.77-1.84-2.21v-4c0-.75.69-.81,1.2-.81h.23v-.63h-4v.63h.25c.51,0,1.07.06,1.07.81v4.45A2.61,2.61,0,0,0,21.3,305"/><path class="cls-2" d="M29.8,280a1.79,1.79,0,0,1-.55-3.54c1.68.6,2.41,1.07,2.41,2S30.87,280,29.8,280Zm0-7.58A1.54,1.54,0,0,1,31.42,274c0,.81-.53,1.23-1.28,1.45-1.17-.44-1.95-.84-1.95-1.69A1.43,1.43,0,0,1,29.78,272.38Zm1.11,3.35c1-.28,1.72-.81,1.72-1.84,0-1.34-1.22-2.2-2.79-2.2-1.74,0-2.86,1.05-2.86,2.33a2.23,2.23,0,0,0,1.57,2c-1.16.33-2.06,1.05-2.06,2.2,0,1.37,1.27,2.39,3.25,2.39s3.19-1.08,3.19-2.56C32.91,276.87,32.14,276.19,30.89,275.73Zm-6.23,4.7v-.63h-1.1c-.49,0-1.46-.09-1.46-.87v-7.15h-.63a2.5,2.5,0,0,1-2.41,1.59h-.51V274h1.8c.3,0,.53.13.53.49v4.44c0,.78-1,.87-1.47.87H18.33v.63Z"/><path class="cls-2" d="M33,264.28H26.39v1H33Zm-11-.87a2,2,0,0,0,1.76-1.9,2,2,0,0,0-2.27-2,3.39,3.39,0,0,0-2.86,1.57l.4.51a3,3,0,0,1,2.07-1.11,1.24,1.24,0,0,1,1.33,1.27c0,1.18-1.44,1.58-2.44,1.85l.19.54a4.91,4.91,0,0,1,.79-.08,1.79,1.79,0,0,1,1.93,1.83,1.77,1.77,0,0,1-1.76,1.89,1.53,1.53,0,0,1-1.47-1.12c-.2-.43-.43-.82-.92-.82a.76.76,0,0,0-.74.85c0,1.19,1.62,1.78,3,1.78,1.8,0,3.25-1,3.25-2.82A2.05,2.05,0,0,0,22,263.41m-5.87,4.84v-.63H15c-.49,0-1.46-.09-1.46-.87v-7.14h-.64a2.49,2.49,0,0,1-2.41,1.58H10v.63h1.8c.31,0,.54.14.54.49v4.44c0,.78-1,.87-1.47.87H9.8v.63Z"/><path class="cls-2" d="M67.28,305.77c0-.8-.29-1.33-1.06-1.33a2.45,2.45,0,0,0-.88.23l-1,.45a.92.92,0,0,0-1-.68,2.66,2.66,0,0,0-.87.26l-.9.39v-.79h-.55a1.53,1.53,0,0,1-1.41.89v.57c.62,0,.92.18.92.8v3.17c0,.57-.47.57-.79.57v.57h2.57v-.57c-.27,0-.74,0-.74-.57v-4l.48-.19a2.12,2.12,0,0,1,.62-.14c.38,0,.69.24.69.79v3.57c0,.57-.55.57-.73.57v.57h2.5v-.57c-.19,0-.74,0-.74-.57v-4l.5-.2a2,2,0,0,1,.62-.14c.38,0,.68.24.68.79v3.57c0,.57-.5.57-.74.57v.57h2.57v-.57c-.27,0-.79,0-.79-.57Zm-11.8,4.65a2.55,2.55,0,0,1-1.62-.67V306.2a5.61,5.61,0,0,1,1.81-.76c.82,0,1.64,1.12,1.64,2.58s-.83,2.4-1.83,2.4m.8-6a6.55,6.55,0,0,0-2.42,1V304.3H53.3a1.63,1.63,0,0,1-1.63.89h-.25v.57h.24c.49,0,1.07.22,1.07.8v5.6c0,.53-.65.58-1,.58h-.35v.57h4v-.57h-.61c-.32,0-1-.05-1-.58v-1.48a3.9,3.9,0,0,0,1.69.41,3.06,3.06,0,0,0,3.05-3.33c0-2.22-1.48-3.34-2.32-3.34"/><path class="cls-2" d="M55.42,286c-1.05,0-1.73-1-1.73-2.31s.64-2.28,1.73-2.28,1.67.95,1.67,2.28S56.48,286,55.42,286m.18-5.28a2.23,2.23,0,0,0-1.89.91c.2-2.1,2.66-3.2,4.26-3.2l-.23-.69c-3.67,0-5.49,2.47-5.49,5.18,0,2.26,1.26,3.78,3.16,3.78a3,3,0,0,0,3.05-3,2.86,2.86,0,0,0-2.86-3"/><path class="cls-2" d="M58.57,270.37H52v1h6.61Zm-8.34,4v-.63h-1.1c-.48,0-1.46-.09-1.46-.87V265.7H47a2.5,2.5,0,0,1-2.41,1.58h-.51v.63h1.8c.3,0,.54.13.54.49v4.44c0,.78-1,.87-1.48.87H43.9v.63Z"/><path class="cls-1" d="M58.75,232.71c0-.81-.29-1.33-1-1.33a2.45,2.45,0,0,0-.88.23l-1,.45a.9.9,0,0,0-1-.68,2.49,2.49,0,0,0-.88.26l-.9.38v-.79h-.55a1.51,1.51,0,0,1-1.41.89v.57c.62,0,.93.19.93.81v3.17c0,.57-.48.57-.79.57v.57h2.56v-.57c-.26,0-.74,0-.74-.57v-4l.49-.18a2.08,2.08,0,0,1,.62-.15c.38,0,.68.25.68.8v3.57c0,.57-.55.57-.73.57v.57h2.51v-.57c-.2,0-.74,0-.74-.57v-4l.5-.2a2,2,0,0,1,.62-.15c.38,0,.68.25.68.8v3.57c0,.57-.5.57-.74.57v.57h2.56v-.57c-.26,0-.79,0-.79-.57Zm-8.58,4.53c-.34,0-.94,0-.94-.57v-5.44h-.56a1.59,1.59,0,0,1-1.59.89h-.21v.57h.19c.5,0,1,.22,1,.81v2.69l-.87.48a2.5,2.5,0,0,1-1.12.36c-.42,0-.65-.23-.65-.78v-5h-.53a1.67,1.67,0,0,1-1.66.89H43v.57h.23c.5,0,1.07.22,1.07.81v3.24c0,.8.37,1.29,1.17,1.29a2.94,2.94,0,0,0,1.38-.4L48.1,237V238l2.43-.22v-.57Zm-9.93,0c-.45,0-1.14-.06-1.14-.59v-5.42h-.56a1.79,1.79,0,0,1-1.75.89H35.63v.57h1.14c.52,0,1.16.2,1.16.81v3.15c0,.53-.7.59-1.14.59H35.26v.57h6.51v-.57Zm-1.74-6.75a.92.92,0,1,0-.92-.92.9.9,0,0,0,.92.92m-10.37,7.66.07-.32c.05-.2.13-.24.24-.24a1.33,1.33,0,0,1,.48.13,3.72,3.72,0,0,0,1.39.25,2,2,0,0,0,2.24-2,1.77,1.77,0,0,0-1.73-1.87L29.59,234c-.69-.07-1.47-.17-1.47-.88s.54-1,1.3-1a2.76,2.76,0,0,1,2.3,1.49h.58l-.75-2.47h-.49l-.12.32c-.06.16-.13.21-.28.21a1.24,1.24,0,0,1-.35-.06,3.81,3.81,0,0,0-1-.15,2,2,0,0,0-2.21,2c0,1.31,1.09,1.64,2.06,1.74l1.13.11c.7.07,1.23.35,1.23,1s-.46,1.05-1.27,1.05a3.76,3.76,0,0,1-2.88-1.86H26.8l.78,2.7Z"/><path class="cls-1" d="M38.21,225.19c-1.22,0-2-1-2-2.68s.73-2.71,2-2.71,1.95,1,1.95,2.71-.73,2.68-1.95,2.68m0,.66a3.31,3.31,0,0,0,3.36-3.34,3.36,3.36,0,1,0-6.72,0,3.31,3.31,0,0,0,3.36,3.34m-8.3-.67a2.55,2.55,0,0,1-1.62-.67V221a5.52,5.52,0,0,1,1.81-.76c.82,0,1.63,1.12,1.63,2.58s-.82,2.4-1.82,2.4m.8-6a6.48,6.48,0,0,0-2.42,1v-1.14h-.56a1.64,1.64,0,0,1-1.63.89h-.25v.57h.23c.5,0,1.08.22,1.08.8v5.6c0,.53-.65.58-1,.58h-.34v.57h4v-.57h-.61c-.32,0-1-.05-1-.58v-1.48a3.86,3.86,0,0,0,1.69.41,3.06,3.06,0,0,0,3-3.34c0-2.21-1.47-3.33-2.31-3.33"/><path class="cls-1" d="M50.23,208.35c0-.8-.29-1.32-1.06-1.32a2.26,2.26,0,0,0-.88.23l-1,.45a.91.91,0,0,0-1-.68,2.62,2.62,0,0,0-.88.25l-.9.39v-.79H44a1.51,1.51,0,0,1-1.41.89v.57c.62,0,.92.18.92.8v3.17c0,.57-.47.57-.79.57v.57h2.57v-.57c-.27,0-.74,0-.74-.57v-4l.48-.18a1.86,1.86,0,0,1,.63-.15c.37,0,.68.24.68.79v3.57c0,.57-.55.57-.73.57v.57h2.51v-.57c-.2,0-.75,0-.75-.57v-4l.5-.19a1.79,1.79,0,0,1,.62-.15c.38,0,.69.24.69.79v3.57c0,.57-.5.57-.75.57v.57H51v-.57c-.27,0-.79,0-.79-.57Zm-11.2-.6h.28c.75,0,.92.47.67,1.1l-1.26,3.2-1.31-3.21c-.32-.78.09-1.09.74-1.09h.24v-.57h-3.7v.57H35a.91.91,0,0,1,1,.63l2.18,5.09-.16.39c-.24.59-.57,1.37-1.17,1.37-.39,0-.58-.33-.58-.72s-.19-.91-.73-.91a.77.77,0,0,0-.77.87c0,.87.8,1.42,1.85,1.42.74,0,1.4-.27,1.94-1.57l2.35-5.66c.24-.59.52-.91,1.07-.91h.22v-.57H39ZM28,214.4l.12-.79c.05-.29.18-.33.33-.33a1.8,1.8,0,0,1,.51.11,4,4,0,0,0,1.31.22,2.6,2.6,0,0,0,2.86-2.7,2.37,2.37,0,0,0-2.3-2.51l-1.54-.22c-.77-.11-1.54-.39-1.54-1.25a1.52,1.52,0,0,1,1.67-1.44c1,0,1.91.66,2.81,2.08h.6l-1.05-3.24h-.45l-.18.48c-.07.19-.17.25-.32.25a1.33,1.33,0,0,1-.37-.07,4.07,4.07,0,0,0-1.1-.16,2.5,2.5,0,0,0-2.68,2.5,2.25,2.25,0,0,0,2.23,2.23l1.4.19c1,.15,1.73.58,1.73,1.55a1.62,1.62,0,0,1-1.78,1.63c-1.29,0-2.42-1-3.44-2.65h-.61l1.27,4.12Z"/><path class="cls-1" d="M16.13,230.42c0-.8-.29-1.32-1.06-1.32a2.26,2.26,0,0,0-.87.23l-1,.45a.89.89,0,0,0-1-.68,2.62,2.62,0,0,0-.88.25l-.9.39V229H9.92a1.51,1.51,0,0,1-1.41.89v.57c.62,0,.93.18.93.8v3.17c0,.57-.48.57-.8.57v.57h2.57V235c-.26,0-.74,0-.74-.57v-4l.49-.18a1.81,1.81,0,0,1,.62-.15c.38,0,.68.24.68.79v3.57c0,.57-.55.57-.73.57v.57H14V235c-.2,0-.74,0-.74-.57v-4l.49-.19a1.84,1.84,0,0,1,.63-.15c.37,0,.68.24.68.79v3.57c0,.57-.5.57-.74.57v.57h2.57V235c-.27,0-.8,0-.8-.57ZM7.55,235c-.34,0-.94,0-.94-.57V229H6.05a1.6,1.6,0,0,1-1.59.89H4.25v.57h.19c.5,0,1,.22,1,.8v2.69l-.87.48a2.52,2.52,0,0,1-1.12.37c-.42,0-.66-.24-.66-.78v-5H2.31a1.68,1.68,0,0,1-1.66.89H.4v.57H.63c.5,0,1.07.22,1.07.8v3.24c0,.81.37,1.29,1.17,1.29a2.83,2.83,0,0,0,1.38-.4l1.23-.64v1l2.43-.22V235Z"/><path class="cls-1" d="M14.67,222.77c-.45,0-1.14-.06-1.14-.58v-5.42H13a1.79,1.79,0,0,1-1.75.89H10.06v.57H11.2c.51,0,1.16.2,1.16.81v3.15c0,.52-.71.58-1.14.58H9.69v.58h6.5v-.58ZM12.93,216a.9.9,0,0,0,.9-.93.91.91,0,1,0-1.82,0,.91.91,0,0,0,.92.93M2.56,223.69l.07-.32c.05-.21.13-.24.24-.24a1.33,1.33,0,0,1,.48.13,3.91,3.91,0,0,0,1.39.24,2,2,0,0,0,2.24-2,1.77,1.77,0,0,0-1.73-1.86L4,219.49c-.7-.08-1.48-.17-1.48-.88s.55-1,1.31-1a2.77,2.77,0,0,1,2.3,1.48h.58L6,216.61H5.49l-.12.33c-.06.16-.13.21-.28.21a1.24,1.24,0,0,1-.35-.06,3.42,3.42,0,0,0-1-.15,2,2,0,0,0-2.21,2c0,1.31,1.09,1.64,2.05,1.74l1.14.11c.7.07,1.23.35,1.23,1s-.47,1-1.27,1A3.76,3.76,0,0,1,1.81,221H1.23L2,223.69Z"/><path class="cls-1" d="M12.64,210.73c-1.22,0-2-1-2-2.68s.73-2.71,2-2.71,1.95,1,1.95,2.71-.73,2.68-1.95,2.68m0,.66A3.32,3.32,0,0,0,16,208.05a3.36,3.36,0,1,0-6.72,0,3.31,3.31,0,0,0,3.36,3.34m-8.31-.67a2.57,2.57,0,0,1-1.62-.67v-3.56a5.71,5.71,0,0,1,1.82-.75c.81,0,1.63,1.12,1.63,2.58s-.83,2.4-1.83,2.4m.81-6a6.57,6.57,0,0,0-2.43,1v-1.15H2.15a1.61,1.61,0,0,1-1.63.89H.28v.57H.51c.5,0,1.07.22,1.07.81v5.6c0,.52-.64.57-1,.57H.28v.57h4V213h-.6c-.32,0-1-.05-1-.57V211a3.78,3.78,0,0,0,1.7.42,3.06,3.06,0,0,0,3-3.34c0-2.22-1.47-3.33-2.31-3.33"/><path class="cls-1" d="M24.66,193.89c0-.8-.29-1.33-1.06-1.33a2.45,2.45,0,0,0-.88.23l-1,.45a.9.9,0,0,0-1-.68,2.66,2.66,0,0,0-.87.26l-.91.39v-.79h-.54a1.53,1.53,0,0,1-1.41.89v.57c.62,0,.92.18.92.8v3.17c0,.57-.47.57-.79.57V199h2.57v-.57c-.27,0-.75,0-.75-.57v-4l.49-.19a2.12,2.12,0,0,1,.62-.14c.38,0,.69.24.69.79v3.57c0,.57-.55.57-.74.57V199h2.51v-.57c-.19,0-.74,0-.74-.57v-4l.5-.2a2,2,0,0,1,.62-.14c.38,0,.68.24.68.79v3.57c0,.57-.5.57-.74.57V199h2.57v-.57c-.27,0-.79,0-.79-.57Zm-11.21-.6h.28c.76,0,.93.47.67,1.1l-1.25,3.2-1.32-3.21c-.31-.78.1-1.09.75-1.09h.24v-.57H9.12v.57h.26a.93.93,0,0,1,1,.62l2.18,5.1-.16.38c-.25.6-.57,1.38-1.17,1.38-.39,0-.59-.33-.59-.72s-.18-.91-.73-.91a.76.76,0,0,0-.76.86c0,.88.8,1.43,1.85,1.43.74,0,1.4-.27,1.93-1.57l2.35-5.67c.25-.58.53-.9,1.08-.9h.21v-.57H13.45Zm-11,6.65.13-.79c0-.29.18-.33.32-.33a1.86,1.86,0,0,1,.52.11,4,4,0,0,0,1.31.22,2.6,2.6,0,0,0,2.86-2.7,2.37,2.37,0,0,0-2.3-2.51l-1.55-.22c-.76-.11-1.53-.39-1.53-1.26A1.52,1.52,0,0,1,3.86,191c1,0,1.91.65,2.81,2.08h.6l-1-3.24H5.77l-.18.48c-.07.19-.17.25-.32.25a1.47,1.47,0,0,1-.38-.07,4,4,0,0,0-1.09-.16,2.5,2.5,0,0,0-2.68,2.5c0,1.31.92,2,2.23,2.23l1.4.19c1,.15,1.73.57,1.73,1.55a1.62,1.62,0,0,1-1.78,1.63c-1.29,0-2.42-1-3.45-2.66H.64l1.28,4.13Z"/></svg>