<svg id="Ebene_1" data-name="Ebene 1" xmlns="http://www.w3.org/2000/svg" viewBox="0 0 176.84 279.56"><defs><style>.cls-1{fill:#848484;}.cls-2{fill:#fff;}</style></defs><path class="cls-1" d="M173.79,277.16c.88.1,1.55.22,1.55.79s-1,1-2.05,1c-1.27,0-2.11-.43-2.11-1.16a1.15,1.15,0,0,1,.46-.87l.47.07Zm-.77-2.81a1.43,1.43,0,0,1-1.4-1.54,1.41,1.41,0,1,1,2.79,0,1.43,1.43,0,0,1-1.39,1.54m3.09-3.34c.45,0,.73-.2.73-.59a.63.63,0,0,0-.71-.63,1.06,1.06,0,0,0-1,1.27l0,.42a2.76,2.76,0,0,0-2.12-.82c-1.58,0-2.67,1-2.67,2.16a1.91,1.91,0,0,0,1,1.68l-.7.67a.92.92,0,0,0-.39.68c0,.32.18.69.88.93-.69.28-1.17.72-1.17,1.3,0,.95,1.29,1.48,3,1.48,1.42,0,3.31-.37,3.31-2,0-.84-.52-1.36-1.78-1.5l-2.07-.23c-.56-.06-1-.15-1-.48a.78.78,0,0,1,.21-.45l.19-.19a3.62,3.62,0,0,0,1.13.17c1.56,0,2.61-.89,2.61-2.11,0-.47-.08-.94-.08-1.34s.17-.46.56-.46m-9.51,5.54c-.45,0-1.14-.06-1.14-.59v-5.41h-.56a1.8,1.8,0,0,1-1.75.89H162V272h1.14c.52,0,1.16.19,1.16.8V276c0,.53-.71.59-1.14.59h-1.53v.57h6.5v-.57Zm-1.74-6.75a.92.92,0,1,0-.92-.92.9.9,0,0,0,.92.92m-7.71,7.32c.32,0,.49.07.55.32l.07.27h.55l1-3h-.55a2.82,2.82,0,0,1-2.48,1.9h-1.16c-.27,0-.33-.19-.18-.36l4.09-4.87v-.49h-3.76c-.25,0-.32-.07-.38-.22l-.1-.25h-.48l-1,2.86h.55c.61-1,1.33-1.84,2.3-1.84H157c.26,0,.33.19.18.36l-4.07,4.85v.51Zm-9.41-.45a2.57,2.57,0,0,1-1.62-.67v-3.56a5.71,5.71,0,0,1,1.82-.75c.81,0,1.63,1.12,1.63,2.58s-.83,2.4-1.83,2.4m.8-6a6.61,6.61,0,0,0-2.42,1v-1.14h-.56a1.63,1.63,0,0,1-1.63.89h-.24V272h.23c.5,0,1.07.22,1.07.8v5.6c0,.53-.65.58-1,.58h-.34v.57h4V279h-.61c-.31,0-1-.05-1-.58v-1.48a3.9,3.9,0,0,0,1.69.41,3.06,3.06,0,0,0,3.05-3.34c0-2.21-1.47-3.33-2.32-3.33M141,276.55c-.45,0-1.14-.06-1.14-.59v-5.41h-.56a1.82,1.82,0,0,1-1.76.89h-1.15V272h1.14c.51,0,1.16.19,1.16.8V276c0,.53-.71.59-1.15.59h-1.52v.57h6.5v-.57Zm-1.74-6.75a.92.92,0,1,0-.92-.92.9.9,0,0,0,.92.92m-8.6,1.49a1.26,1.26,0,0,1,1.39,1.09c0,.32-.19.47-.57.47h-2.69a2,2,0,0,1,1.87-1.56m2.63,4.32a2.69,2.69,0,0,1-1.91.82,2.74,2.74,0,0,1-2.69-2.83v-.1h4.38c.3,0,.44-.14.44-.54a2.59,2.59,0,0,0-2.8-2.33,3.22,3.22,0,0,0-3.25,3.36A3.49,3.49,0,0,0,133.7,276Zm-11,1.51c.75,0,1.28.27,1.23,1h.56l2-4.06h-.63c-1.06,1.43-1.78,2.39-2.62,2.39h-1a.74.74,0,0,1-.81-.8V270c0-.74.68-.8,1.19-.8h.34v-.63H118.2v.63h.34c.51,0,1.19.06,1.19.8v5.66c0,.74-.68.8-1.19.8h-.34v.63Z"/><path class="cls-1" d="M130.58,252.77c-.08-2.81,1.44-5.07,2.46-6.58a4.3,4.3,0,0,0,.88-1.63.3.3,0,0,0-.33-.32h-3.68c-.64,0-.87-.06-1.07-.47h-.5l-.86,2.94H128c.41-.84.69-1.31,1.93-1.31h2.29c.22,0,.32.1.32.25s-.34.69-.82,1.22a9.12,9.12,0,0,0-2.7,5.9Zm-8.63-.53c-1.45,0-1.69-1.73-1.69-3.75s.24-3.74,1.69-3.74,1.69,1.74,1.69,3.74-.24,3.75-1.69,3.75m0,.74c1.85,0,3.18-2,3.18-4.49S123.81,244,122,244s-3.2,2-3.2,4.48S120.11,253,122,253"/><path class="cls-1" d="M125.44,240.59V240h-1.09c-.49,0-1.46-.09-1.46-.87v-7.15h-.64a2.48,2.48,0,0,1-2.41,1.59h-.51v.63h1.8c.31,0,.54.13.54.49v4.44c0,.78-1,.87-1.47.87h-1.09v.63Z"/><path class="cls-1" d="M131.22,221.31v4.05h-2.84Zm1.19-1.54h-.91l-4.69,6.62h4.41v2h1.19v-2h1.36l.25-1h-1.61ZM122,227.89c-1.45,0-1.69-1.73-1.69-3.75s.24-3.74,1.69-3.74,1.69,1.74,1.69,3.74-.24,3.75-1.69,3.75m0,.74c1.85,0,3.18-2,3.18-4.49s-1.33-4.48-3.18-4.48-3.2,2-3.2,4.48,1.35,4.49,3.2,4.49"/><path class="cls-1" d="M133.79,212.27h-6.62v1h6.62Zm-12.36,3.33a.74.74,0,0,1-.82-.8v-5.65a.74.74,0,0,1,.82-.81c1.85,0,2.65,1,2.65,3.25v.67c0,2.31-.66,3.34-2.65,3.34m0,.63c2.91,0,4.16-1.8,4.16-4.29s-1.37-4.23-4.16-4.23h-3.63v.63h.34c.51,0,1.19.06,1.19.81v5.65c0,.74-.68.8-1.19.8h-.34v.63Z"/><path class="cls-2" d="M125.44,191.88v-.63h-1.09c-.49,0-1.46-.09-1.46-.87v-7.14h-.64a2.49,2.49,0,0,1-2.41,1.58h-.51v.63h1.8c.31,0,.54.13.54.49v4.44c0,.78-1,.87-1.47.87h-1.09v.63Zm-8.52,0v-.63h-1.1c-.48,0-1.46-.09-1.46-.87v-7.14h-.63a2.5,2.5,0,0,1-2.41,1.58h-.51v.63h1.8c.3,0,.54.13.54.49v4.44c0,.78-1,.87-1.48.87h-1.08v.63Z"/><path class="cls-2" d="M122.17,161.69a1.27,1.27,0,0,1,1.39,1.1c0,.32-.2.46-.57.46h-2.7a2,2,0,0,1,1.88-1.56M124.8,166a2.69,2.69,0,0,1-1.91.81A2.73,2.73,0,0,1,120.2,164v-.1h4.38c.29,0,.44-.15.44-.55a2.58,2.58,0,0,0-2.8-2.32A3.21,3.21,0,0,0,119,164.4a3.49,3.49,0,0,0,6.21,2Zm-10.19-3.21A1.8,1.8,0,0,0,116,161a2.34,2.34,0,0,0-2.58-2.22,2.43,2.43,0,0,0-2.52,2.63v5c0,.49-.64.57-1,.57h-.28v.57h2.41v-6.6a1.32,1.32,0,0,1,1.36-1.48c.72,0,1.36.46,1.36,1.56s-.66,1.47-1.53,1.52v.65a2.37,2.37,0,0,1,2.14,2.6c0,.7-.15,1.26-.54,1.26a1,1,0,0,1-.63-.37,1.4,1.4,0,0,0-.93-.49.56.56,0,0,0-.62.59c0,.89,1.5.9,1.77.9a2,2,0,0,0,2.16-2.14A2.77,2.77,0,0,0,114.61,162.81Z"/><path class="cls-2" d="M138.3,154.73a1,1,0,0,1-1.07-.95c0-.83.88-1.25,2.84-1.42V154a2.63,2.63,0,0,1-1.77.77m3.91-.95c-.14.7-.35.89-.61.89s-.35-.11-.35-.51v-3.78c0-1.1-.88-1.52-2.13-1.52-1.48,0-3,.58-3,1.81,0,.53.28,1,.82,1a.71.71,0,0,0,.77-.7,1,1,0,0,0-.09-.39.89.89,0,0,1-.08-.35c0-.49.86-.67,1.41-.67.77,0,1.12.33,1.12,1v1.15c-1.55.11-4.17.37-4.17,2.26,0,.95.66,1.61,1.93,1.61a3.62,3.62,0,0,0,2.3-.85,1.09,1.09,0,0,0,1.16.85c.64,0,1.29-.36,1.43-1.68ZM133,148.9a3.67,3.67,0,0,0-2.15,1.28l-.29.3v-1.71H130a1.66,1.66,0,0,1-1.64.89h-.85v.57h.84c.5,0,1.07.22,1.07.81v3.16c0,.53-.65.58-1,.58h-.95v.57h5.34v-.57h-1.33c-.25,0-1-.05-1-.58v-2.92l.72-.67a1.27,1.27,0,0,1,.84-.45,1.23,1.23,0,0,1,.43.1,1.38,1.38,0,0,0,.53.11.69.69,0,0,0,.76-.73.75.75,0,0,0-.84-.74M124.3,153c-.06,1-.58,1.53-1.46,1.53s-1.32-.56-1.32-1.6v-3.15h3.3v-.73h-3.3v-2.26H121c-.22,1.41-.82,2.27-2.18,2.37v.62h1.55v3.53a2.09,2.09,0,0,0,2.29,2.23c1.5,0,2.25-1,2.2-2.54Zm-12.43,2.66.07-.32c0-.2.13-.24.24-.24a1.33,1.33,0,0,1,.48.13,3.68,3.68,0,0,0,1.39.25,2,2,0,0,0,2.24-2,1.77,1.77,0,0,0-1.73-1.87l-1.23-.13c-.7-.08-1.48-.17-1.48-.88s.55-1,1.31-1a2.76,2.76,0,0,1,2.3,1.49H116l-.75-2.48h-.49l-.12.33c-.06.16-.13.21-.28.21a1.24,1.24,0,0,1-.35-.06,3.81,3.81,0,0,0-1-.15,2,2,0,0,0-2.21,2c0,1.31,1.09,1.64,2,1.74l1.14.11c.7.07,1.23.35,1.23,1s-.47,1-1.27,1a3.77,3.77,0,0,1-2.89-1.86h-.58l.78,2.7Z"/><path class="cls-2" d="M133,136.72a3.68,3.68,0,0,0-2.15,1.29l-.29.29v-1.7H130a1.67,1.67,0,0,1-1.64.88h-.85v.58h.84c.5,0,1.07.21,1.07.8V142c0,.52-.65.57-1,.57h-.95v.57h5.34v-.57h-1.33c-.25,0-1,0-1-.57V139.1l.72-.67a1.32,1.32,0,0,1,.84-.45,1.23,1.23,0,0,1,.43.1,1.43,1.43,0,0,0,.53.11.69.69,0,0,0,.76-.73.75.75,0,0,0-.84-.74m-10.79.62a1.27,1.27,0,0,1,1.39,1.09c0,.32-.2.47-.57.47h-2.7a2,2,0,0,1,1.88-1.56m2.63,4.32a2.71,2.71,0,0,1-1.91.82,2.74,2.74,0,0,1-2.69-2.83v-.1h4.38c.29,0,.44-.14.44-.54a2.59,2.59,0,0,0-2.8-2.33A3.21,3.21,0,0,0,119,140a3.49,3.49,0,0,0,6.21,2.05Zm-9-.8a1.42,1.42,0,0,1-1.47,1.52c-.87,0-1.31-.56-1.31-1.6v-3.15h3.3v-.73H113v-2.25h-.56c-.22,1.4-.83,2.26-2.18,2.36v.62h1.55v3.53a2.09,2.09,0,0,0,2.29,2.23c1.49,0,2.25-1,2.2-2.53Z"/><path class="cls-2" d="M142.63,130.42c-.32,0-1-.07-1-.57v-4c0-.8-.35-1.3-1.1-1.3a3.1,3.1,0,0,0-1.14.27l-1.6.63v-3.27h-.56a1.61,1.61,0,0,1-1.6,1h-.24v.57h.23c.5,0,1,.22,1,.8v5.36c0,.52-.64.57-1,.57h-.28V131h3.47v-.57c-.3,0-1.09,0-1.09-.57v-3.67l1.42-.48a1.86,1.86,0,0,1,.61-.13c.4,0,.68.22.68.77v3.51c0,.57-.79.57-1.09.57V131h3.47v-.57Zm-11.71.79a3.37,3.37,0,0,0,2.78-1.3l-.38-.43a2.66,2.66,0,0,1-4.58-2,2.1,2.1,0,0,1,1.93-2.3c.78,0,1,.57,1.15,1.11s.31.92.87.92a.73.73,0,0,0,.77-.81c0-1.16-1.38-1.88-2.71-1.88a3.36,3.36,0,0,0,.17,6.71m-9.66-.84a1,1,0,0,1-1.08-1c0-.83.88-1.24,2.84-1.41v1.6a2.66,2.66,0,0,1-1.77.76Zm3.9-1c-.14.71-.35.89-.61.89s-.35-.11-.35-.51V126c0-1.09-.87-1.52-2.13-1.52-1.47,0-3,.59-3,1.82a.84.84,0,0,0,.81,1,.71.71,0,0,0,.77-.71,1,1,0,0,0-.09-.39.84.84,0,0,1-.08-.34c0-.5.86-.67,1.41-.67.77,0,1.12.33,1.12,1v1.14c-1.55.11-4.16.38-4.16,2.27,0,.95.65,1.6,1.92,1.6a3.56,3.56,0,0,0,2.3-.85,1.09,1.09,0,0,0,1.16.85c.64,0,1.29-.35,1.43-1.68Zm-2.1-5.79a.88.88,0,0,0,.89-.91.89.89,0,0,0-1.78,0,.88.88,0,0,0,.89.91m-2.27,0a.88.88,0,0,0,.89-.91.89.89,0,0,0-1.78,0,.88.88,0,0,0,.89.91m-6.46-.53h.57c.66,0,.91.29.8,1.13l-.55,4.3-.92-3.57h-1.06l-.94,3.58-.49-4.31c-.09-.82.11-1.13.81-1.13h.53v-.63h-3.82v.63h.38c.64,0,.77.23.89,1l1,7h.59l1.3-4.87,1.34,4.87h.59l1-6.79c.11-.78.34-1.22,1-1.22h.29v-.63h-3.27Z"/><path class="cls-1" d="M40.53,152.64c-.07,1-.59,1.53-1.47,1.53s-1.31-.57-1.31-1.6v-3.16h3.3v-.72h-3.3v-2.26h-.56c-.22,1.4-.83,2.27-2.18,2.36v.62h1.55V153a2.08,2.08,0,0,0,2.28,2.22c1.5,0,2.26-1,2.21-2.53ZM28.09,155.3l.07-.32c.05-.21.14-.24.25-.24a1.34,1.34,0,0,1,.47.13,4,4,0,0,0,1.39.24,2,2,0,0,0,2.24-2,1.77,1.77,0,0,0-1.73-1.86l-1.23-.13c-.69-.08-1.47-.17-1.47-.88s.55-1,1.3-1a2.74,2.74,0,0,1,2.3,1.48h.59l-.76-2.47H31l-.12.33c-.07.16-.14.21-.28.21a1.24,1.24,0,0,1-.36-.06,3.35,3.35,0,0,0-1-.15,2,2,0,0,0-2.22,2c0,1.31,1.1,1.64,2.06,1.74l1.13.11c.71.07,1.23.35,1.23,1s-.46,1.05-1.26,1.05a3.76,3.76,0,0,1-2.89-1.87h-.58l.77,2.71Zm-7-.34v-.58c-.3,0-1.09,0-1.09-.57v-3.66l1.42-.49a2.06,2.06,0,0,1,.6-.12c.4,0,.69.22.69.76v3.51c0,.56-.79.57-1.09.57V155h3.47v-.58h-.28c-.32,0-1-.07-1-.57v-4c0-.8-.35-1.3-1.1-1.3a3.1,3.1,0,0,0-1.13.27L20,149.4v-1H19.4a1.61,1.61,0,0,1-1.63.89h-.19v.57h.17c.5,0,1.08.22,1.08.8v3.17c0,.53-.65.57-1,.57h-.28V155Zm-5-.58c-.35,0-.94,0-.94-.57v-5.43h-.56a1.59,1.59,0,0,1-1.6.89h-.2v.57h.19c.5,0,1,.22,1,.8v2.7l-.87.47a2.4,2.4,0,0,1-1.12.37c-.43,0-.66-.23-.66-.78v-5H10.8a1.67,1.67,0,0,1-1.67.89H8.89v.57h.23c.5,0,1.07.22,1.07.8v3.25c0,.8.37,1.28,1.17,1.28a2.86,2.86,0,0,0,1.38-.4l1.23-.64v1L16.4,155v-.58Zm-8.27,0a1,1,0,0,1-1.07-.54l-1.9-2.73,1.49-1.34a1.63,1.63,0,0,1,1.17-.51h.16v-.57H4.25v.57h.47c.4,0,.55.13.55.34a.63.63,0,0,1-.27.47L2.9,152v-5.88H2.34a1.67,1.67,0,0,1-1.63,1H.46v.57H.69c.5,0,1.08.22,1.08.8v5.36c0,.53-.65.57-1,.57H.46V155h3.4v-.58H3.71c-.33,0-.81-.07-.81-.57v-1l1-.9,1.19,1.65a.88.88,0,0,1,.22.5c0,.15-.06.35-.48.35H4.52V155H8v-.58Z"/><path class="cls-1" d="M33.28,142.21c-.32,0-1-.08-1-.58v-4c0-.81-.35-1.3-1.11-1.3a3.07,3.07,0,0,0-1.13.26l-1.61.64V134h-.56a1.59,1.59,0,0,1-1.59,1h-.25v.57h.23c.5,0,1,.22,1,.81v5.35c0,.53-.65.58-1,.58H26.1v.57h3.47v-.57c-.31,0-1.1,0-1.1-.58V138l1.43-.49a2,2,0,0,1,.6-.12c.41,0,.69.22.69.77v3.5c0,.58-.8.58-1.1.58v.57h3.47v-.57Zm-11.7.79a3.35,3.35,0,0,0,2.77-1.3l-.37-.43a2.73,2.73,0,0,1-1.93.81,2.7,2.7,0,0,1-2.65-2.83,2.1,2.1,0,0,1,1.92-2.31c.78,0,1,.58,1.16,1.11s.3.93.86.93a.73.73,0,0,0,.77-.82c0-1.15-1.38-1.87-2.7-1.87a3.23,3.23,0,0,0-3.27,3.37A3.27,3.27,0,0,0,21.58,143M16,142.21c-.34,0-.94,0-.94-.58V136.2h-.56a1.59,1.59,0,0,1-1.6.89h-.2v.57h.19c.5,0,1,.22,1,.81v2.69l-.87.47A2.4,2.4,0,0,1,12,142c-.42,0-.66-.23-.66-.78v-5H10.8a1.67,1.67,0,0,1-1.67.89H8.89v.57h.23c.5,0,1.07.22,1.07.81v3.24c0,.8.37,1.29,1.17,1.29a3,3,0,0,0,1.38-.4L14,142V143l2.43-.22v-.57Zm-12.2-.06a.74.74,0,0,1-.82-.81v-2.82H4.27c1.23,0,2,.6,2,1.85s-.88,1.78-2,1.78ZM3,135.69a.74.74,0,0,1,.82-.8h.37c1.21,0,1.78.5,1.78,1.48,0,1.23-.9,1.51-2,1.51H3Zm1.68,7.09c1.45,0,3-.62,3-2.43A2.18,2.18,0,0,0,6,138.19a1.93,1.93,0,0,0,1.41-1.84c0-1.52-1.4-2.1-3-2.1H.22v.64H.56c.51,0,1.19.06,1.19.8v5.65c0,.74-.68.81-1.19.81H.22v.63Z"/><path class="cls-1" d="M21,117.9a2.18,2.18,0,0,1-1.85-2.41A2.28,2.28,0,0,1,20.9,113a5.5,5.5,0,0,1,1.86.75v2.78c-.41.61-1,1.34-1.77,1.34m3.84-.05c-.34,0-.94,0-.94-.57V109.6h-.56a1.66,1.66,0,0,1-1.63,1h-.24v.57h.23c.5,0,1.07.22,1.07.8V113a7,7,0,0,0-2.33-.88,3.13,3.13,0,0,0-2.58,3.31,3,3,0,0,0,2.88,3.19,2.47,2.47,0,0,0,2-1.12v1.12l2.43-.22v-.57Zm-12.3.57v-.57c-.3,0-1.1,0-1.1-.57v-3.67l1.43-.48a1.76,1.76,0,0,1,.6-.13c.4,0,.69.22.69.77v3.51c0,.56-.79.57-1.1.57v.57h3.47v-.57h-.28c-.31,0-1-.07-1-.57v-4c0-.8-.35-1.3-1.11-1.3a3.1,3.1,0,0,0-1.13.27l-1.61.63v-1h-.56a1.63,1.63,0,0,1-1.63.89H9.06v.57h.17c.5,0,1.07.22,1.07.8v3.17c0,.52-.64.57-1,.57H9.06v.57Zm-5-.57c-.34,0-.94,0-.94-.57v-5.43H6a1.62,1.62,0,0,1-1.6.89H4.21v.57h.2c.5,0,1,.22,1,.8v2.69l-.86.48a2.56,2.56,0,0,1-1.12.37c-.43,0-.66-.24-.66-.78v-5H2.28a1.69,1.69,0,0,1-1.67.89H.37v.57H.6c.5,0,1.07.22,1.07.8v3.24c0,.81.36,1.29,1.17,1.29a2.83,2.83,0,0,0,1.37-.4l1.23-.64v1l2.44-.22v-.57Z"/><path class="cls-1" d="M24.82,93.5A1,1,0,0,1,23.74,93l-1.89-2.73,1.49-1.34a1.63,1.63,0,0,1,1.17-.51h.16V87.8H21.3v.57h.47c.4,0,.55.13.55.34a.65.65,0,0,1-.27.48L20,91.12V85.24h-.56a1.66,1.66,0,0,1-1.64,1h-.24v.57h.23c.5,0,1.07.22,1.07.81v5.35c0,.53-.64.58-1,.58h-.34v.57h3.4V93.5h-.15c-.33,0-.81-.08-.81-.58v-1l1-.9,1.19,1.65a.91.91,0,0,1,.22.5c0,.15-.06.36-.48.36h-.33v.57H25V93.5Zm-10.18,0c-.45,0-1.15-.06-1.15-.59V87.49h-.56a1.79,1.79,0,0,1-1.75.89H10V89h1.15c.51,0,1.15.2,1.15.81v3.15c0,.53-.7.59-1.14.59H9.66v.57h6.5V93.5Zm-9-8.56c-1.47,0-2.51.79-2.51,2.07v.79H1.32v.61H3.14v4.51c0,.53-.64.58-1,.58H1.07v.57H6.94V93.5H5.32c-.32,0-1,0-1-.58V88.41H6.94V87.8H4.36V86.65c0-.57.22-1.13,1-1.13a1.2,1.2,0,0,1,1.07.72c.21.32.42.62.86.62a.63.63,0,0,0,.66-.68c0-.87-1.23-1.24-2.26-1.24m7.25,1.81a.91.91,0,0,0,.9-.93.92.92,0,0,0-1.83,0,.91.91,0,0,0,.93.93"/><path class="cls-1" d="M20.43,81.27a.94.94,0,0,1-1.07-1c0-.83.88-1.24,2.84-1.41V80.5a2.63,2.63,0,0,1-1.77.77m3.91-1c-.14.71-.35.89-.61.89s-.35-.11-.35-.51V76.92c0-1.09-.88-1.52-2.13-1.52-1.47,0-3,.59-3,1.82a.84.84,0,0,0,.82,1,.71.71,0,0,0,.77-.71,1,1,0,0,0-.09-.39.84.84,0,0,1-.08-.34c0-.5.86-.67,1.41-.67.77,0,1.12.33,1.12,1v1.15c-1.55.11-4.16.38-4.16,2.26,0,1,.65,1.61,1.92,1.61a3.62,3.62,0,0,0,2.3-.85,1.08,1.08,0,0,0,1.16.85c.64,0,1.29-.35,1.43-1.68Zm-9.25-4.88a3.68,3.68,0,0,0-2.15,1.29l-.29.29v-1.7h-.56a1.67,1.67,0,0,1-1.64.89H9.6v.57h.84c.5,0,1.07.22,1.07.8v3.17c0,.52-.65.57-1,.57h-1v.57h5.34v-.57H13.61c-.25,0-1,0-1-.57V77.82l.72-.67a1.32,1.32,0,0,1,.84-.45,1.23,1.23,0,0,1,.43.1,1.43,1.43,0,0,0,.53.11.69.69,0,0,0,.76-.73.75.75,0,0,0-.84-.74m-11,6.67c1.59,0,2-.91,2.67-.91H7.2V78.42c0-.56.26-.74.86-.74v-.59H4.35v.59h.39c.52,0,1.17.12,1.17.74v1.27A1.68,1.68,0,0,1,4.1,81.45C2.48,81.45,2,79.92,2,78.17V77c0-1.61.55-3.11,1.87-3.11.85,0,1.69.64,3,2.1h.57L6.22,73.08H5.75l-.12.22a.39.39,0,0,1-.36.18,1.31,1.31,0,0,1-.44-.1,3,3,0,0,0-1-.18c-2,0-3.43,2-3.43,4.41s1.31,4.5,3.7,4.5"/><path class="cls-1" d="M23.61,51.08a3.63,3.63,0,0,0-2.14,1.29l-.3.3V51h-.55a1.66,1.66,0,0,1-1.65.89h-.85v.57H19c.5,0,1.07.22,1.07.81v3.16c0,.53-.64.58-1,.58h-.95v.57h5.34V57H22.14c-.26,0-1,0-1-.58V53.47l.72-.67a1.27,1.27,0,0,1,.84-.45,1.18,1.18,0,0,1,.43.1,1.48,1.48,0,0,0,.54.11.68.68,0,0,0,.75-.73.76.76,0,0,0-.84-.75M16,57c-.35,0-.94,0-.94-.58V51h-.56a1.59,1.59,0,0,1-1.6.89h-.2v.57h.19c.5,0,1,.22,1,.81v2.69l-.87.47a2.4,2.4,0,0,1-1.12.37c-.43,0-.66-.23-.66-.78V51H10.8a1.67,1.67,0,0,1-1.67.89H8.89v.57h.23c.5,0,1.07.22,1.07.81v3.24c0,.8.37,1.29,1.17,1.29a2.89,2.89,0,0,0,1.38-.41L14,56.71v1l2.43-.22V57Zm-2.18-6.8a.9.9,0,1,0-.89-.9.87.87,0,0,0,.89.9m-2.27,0a.9.9,0,0,0,0-1.79.9.9,0,0,0,0,1.79M5.65,48.4c-1.47,0-2.51.79-2.51,2.07v.8H1.31v.6H3.14v4.52c0,.53-.64.58-1,.58H1.07v.57H6.94V57H5.32c-.32,0-1,0-1-.58V51.87H6.94v-.6H4.36V50.12c0-.57.22-1.13,1-1.13a1.19,1.19,0,0,1,1.07.72c.21.31.42.62.85.62a.63.63,0,0,0,.67-.68c0-.87-1.23-1.25-2.26-1.25"/><path class="cls-1" d="M12.82,27.35a1.27,1.27,0,0,1,1.39,1.1c0,.31-.19.46-.57.46H11a2,2,0,0,1,1.87-1.56m2.63,4.32a2.65,2.65,0,0,1-1.91.82,2.74,2.74,0,0,1-2.69-2.83v-.1h4.38c.29,0,.44-.14.44-.54a2.59,2.59,0,0,0-2.8-2.33,3.22,3.22,0,0,0-3.25,3.36,3.3,3.3,0,0,0,3.46,3.35,3.27,3.27,0,0,0,2.75-1.3ZM7.5,33.18v-.57H6c-.45,0-1.15-.06-1.15-.58V24.35H4.27a1.8,1.8,0,0,1-1.75.95H1.36v.58H2.51c.51,0,1.14.2,1.14.81V32c0,.52-.7.58-1.14.58H1v.57Z"/><path class="cls-1" d="M33.08,20.43c-.34,0-.93,0-.93-.57V14.43h-.56a1.6,1.6,0,0,1-1.6.89h-.2v.57H30c.5,0,1,.22,1,.8v2.7l-.87.47a2.4,2.4,0,0,1-1.12.37c-.43,0-.66-.23-.66-.78v-5h-.52a1.67,1.67,0,0,1-1.67.89h-.24v.57h.23c.5,0,1.07.22,1.07.8v3.24c0,.81.37,1.29,1.17,1.29a2.89,2.89,0,0,0,1.38-.4L31,20.18v1L33.45,21v-.57Zm-8.32,0c-.32,0-1-.07-1-.57v-4c0-.81-.35-1.31-1.1-1.31a3.1,3.1,0,0,0-1.14.27l-1.6.63V12.18h-.56a1.61,1.61,0,0,1-1.6,1h-.24v.57h.23c.5,0,1,.22,1,.8v5.36c0,.53-.64.57-1,.57h-.28V21H21v-.57c-.3,0-1.09,0-1.09-.57V16.2l1.42-.49a1.83,1.83,0,0,1,.61-.12c.4,0,.68.21.68.76v3.51c0,.57-.79.57-1.09.57V21H25v-.57Zm-11.71.79a3.34,3.34,0,0,0,2.78-1.3l-.38-.42a2.67,2.67,0,0,1-4.58-2,2.1,2.1,0,0,1,1.93-2.3c.78,0,1,.57,1.15,1.11s.31.93.87.93a.73.73,0,0,0,.77-.82c0-1.16-1.38-1.87-2.71-1.87a3.23,3.23,0,0,0-3.26,3.37,3.26,3.26,0,0,0,3.43,3.33m-10.53.13L2.59,21c.05-.21.14-.24.25-.24a1.34,1.34,0,0,1,.47.13,4,4,0,0,0,1.39.24,2,2,0,0,0,2.24-2,1.77,1.77,0,0,0-1.73-1.86L4,17.14c-.69-.07-1.47-.17-1.47-.87s.55-1,1.3-1a2.77,2.77,0,0,1,2.3,1.48H6.7l-.76-2.47H5.46l-.13.33c-.06.16-.13.21-.28.21a1.24,1.24,0,0,1-.35-.06,3.41,3.41,0,0,0-1-.15,2,2,0,0,0-2.22,2c0,1.32,1.09,1.65,2.06,1.75l1.13.11c.71.07,1.23.35,1.23,1s-.46,1.05-1.27,1.05a3.77,3.77,0,0,1-2.88-1.87H1.19L2,21.35Z"/><path class="cls-1" d="M33.28,8.26c-.32,0-1-.08-1-.58v-4c0-.81-.36-1.3-1.11-1.3a3.07,3.07,0,0,0-1.13.26l-1.61.64V0h-.56a1.61,1.61,0,0,1-1.6,1h-.24v.57h.23c.5,0,1,.22,1,.81V7.68c0,.53-.65.58-1,.58H26.1v.57h3.47V8.26c-.31,0-1.1,0-1.1-.58V4l1.42-.49a2.12,2.12,0,0,1,.61-.12c.41,0,.69.22.69.77v3.5c0,.58-.8.58-1.1.58v.57h3.47V8.26Zm-11.7.79a3.33,3.33,0,0,0,2.77-1.31L24,7.32a2.73,2.73,0,0,1-1.93.81A2.7,2.7,0,0,1,19.4,5.3,2.1,2.1,0,0,1,21.32,3c.78,0,1,.58,1.16,1.11s.3.93.86.93a.73.73,0,0,0,.77-.82c0-1.16-1.38-1.87-2.7-1.87a3.23,3.23,0,0,0-3.27,3.37,3.27,3.27,0,0,0,3.44,3.34m-9-.66c-1.22,0-1.95-1-1.95-2.68S11.38,3,12.6,3s2,1,2,2.72-.73,2.68-2,2.68m0,.66A3.31,3.31,0,0,0,16,5.71a3.36,3.36,0,1,0-6.72,0A3.31,3.31,0,0,0,12.6,9.05M3.75,8.83V8.2H3.51c-.48,0-1-.15-1-.81V4.67H5.61V7.39c0,.7-.48.81-1,.81H4.41v.63H8.16V8.2H8.07c-.53,0-1.19,0-1.19-.81V1.74c0-.77.66-.8,1.19-.8h.09V.3H4.41V.94h.24c.48,0,1,.12,1,.8V4H2.54V1.74c0-.67.49-.8,1-.8h.24V.3H0V.94H.09c.53,0,1.19,0,1.19.8V7.39c0,.77-.66.81-1.19.81H0v.63Z"/><path class="cls-1" d="M70.71,112.68l.08-.32c0-.21.13-.24.24-.24a1.28,1.28,0,0,1,.47.13,4,4,0,0,0,1.39.24,2,2,0,0,0,2.24-2,1.77,1.77,0,0,0-1.73-1.86l-1.23-.14c-.69-.07-1.47-.17-1.47-.87s.55-1,1.3-1a2.77,2.77,0,0,1,2.31,1.48h.58l-.75-2.47h-.49l-.12.33a.26.26,0,0,1-.28.21,1.24,1.24,0,0,1-.36-.06,3.35,3.35,0,0,0-1-.15,2,2,0,0,0-2.22,2c0,1.32,1.1,1.65,2.06,1.75l1.13.11c.71.07,1.23.35,1.23,1s-.46,1-1.26,1A3.79,3.79,0,0,1,70,110h-.58l.78,2.71ZM66.1,110a1.42,1.42,0,0,1-1.46,1.52c-.88,0-1.32-.56-1.32-1.59v-3.16h3.3v-.73h-3.3v-2.25h-.56c-.22,1.4-.83,2.27-2.18,2.36v.62h1.55v3.54a2.08,2.08,0,0,0,2.29,2.22c1.5,0,2.25-1,2.2-2.53Zm-8.39-4.14a3.68,3.68,0,0,0-2.15,1.29l-.29.29v-1.7h-.56a1.66,1.66,0,0,1-1.64.89h-.85v.57h.84c.5,0,1.07.22,1.07.8v3.17c0,.52-.65.57-1,.57h-1v.57h5.34v-.57H56.23c-.25,0-1-.05-1-.57v-2.92l.72-.67a1.27,1.27,0,0,1,.84-.45,1.5,1.5,0,0,1,.43.09,1.25,1.25,0,0,0,.53.11.69.69,0,0,0,.76-.73.75.75,0,0,0-.84-.74m-11.24-1.07,1.06,3.71H45.36Zm-.32,7.52v-.63h-.36c-1,0-1.27-.33-1-1.11l.4-1.36h2.57l.43,1.49c.21.74-.1,1-.84,1h-.49v.63h4v-.63h-.27c-.59,0-.83-.22-1-.86l-2.17-7.11H46.15l-2.08,6.82c-.27.86-.63,1.15-1.32,1.15h-.2v.63Z"/><path class="cls-1" d="M72.49,82.15a1.27,1.27,0,0,1,1.39,1.09c0,.32-.19.47-.57.47H70.62a2,2,0,0,1,1.87-1.56m2.63,4.32a2.71,2.71,0,0,1-1.91.82,2.74,2.74,0,0,1-2.69-2.83v-.1H74.9c.29,0,.44-.14.44-.54a2.59,2.59,0,0,0-2.8-2.33,3.22,3.22,0,0,0-3.25,3.36A3.49,3.49,0,0,0,75.5,86.9ZM63.67,88v-.57c-.3,0-1.09,0-1.09-.57V83.17L64,82.68a2.06,2.06,0,0,1,.6-.12c.4,0,.7.22.7.77v3.51c0,.56-.8.57-1.1.57V88h3.47v-.57h-.28c-.32,0-1-.07-1-.57v-4c0-.8-.36-1.3-1.11-1.3a3.1,3.1,0,0,0-1.13.27l-1.61.63v-1H62a1.63,1.63,0,0,1-1.63.89h-.18v.57h.17c.49,0,1.07.22,1.07.8v3.17c0,.52-.65.57-1,.57h-.28V88Zm-6.41-.57c-.45,0-1.15-.06-1.15-.59V81.41h-.56a1.8,1.8,0,0,1-1.75.89H52.64v.57h1.15c.51,0,1.15.19,1.15.8v3.15c0,.53-.7.59-1.14.59H52.28V88h6.5v-.57Zm-1.74-6.75a.92.92,0,1,0-.93-.92.91.91,0,0,0,.93.92M47.61,88v-.63h-.69c-.51,0-1.2-.06-1.2-.81V83.91h1.45c.72,0,1,.62,1,1.29v.18h.55V81.76h-.55v.17c0,.67-.3,1.29-1,1.29H45.72V80.89a.75.75,0,0,1,.83-.8h1.06c.7,0,1.24.56,2.5,1.92h.63l-1.69-3.15h-.56c-.22.57-.61.6-1.25.6H42.93v.63h.34c.51,0,1.19.06,1.19.8v5.65c0,.75-.68.81-1.19.81h-.34V88Z"/><path class="cls-1" d="M56.79,54.49c-1.47,0-2.5.79-2.5,2.07v.8H52.46V58h1.83v4.52c0,.53-.65.57-1,.57h-1.1v.58h5.86v-.58H56.46c-.31,0-1,0-1-.57V58h2.58v-.6H55.5V56.21c0-.57.22-1.13,1-1.13a1.2,1.2,0,0,1,1.08.72c.2.31.41.62.85.62a.64.64,0,0,0,.67-.69c0-.86-1.23-1.24-2.27-1.24M46.7,63.19c-1.22,0-2-1-2-2.68s.73-2.72,2-2.72,1.95,1.05,1.95,2.72-.73,2.68-1.95,2.68m0,.65a3.31,3.31,0,0,0,3.36-3.33,3.36,3.36,0,1,0-6.72,0,3.3,3.3,0,0,0,3.36,3.33"/><path class="cls-1" d="M56,33.57h.28c.75,0,.92.46.67,1.1l-1.26,3.2-1.31-3.21c-.32-.78.1-1.09.74-1.09h.25V33H51.7v.57H52a.9.9,0,0,1,1,.62l2.18,5.09-.16.39c-.24.6-.57,1.38-1.17,1.38-.39,0-.58-.33-.58-.72s-.18-.91-.73-.91a.76.76,0,0,0-.77.86c0,.88.81,1.43,1.85,1.43.74,0,1.4-.27,1.94-1.57l2.35-5.67c.24-.58.52-.9,1.07-.9h.22V33H56Zm-5.85.6c0-.8-.29-1.33-1-1.33a2.45,2.45,0,0,0-.88.23l-1,.45a.9.9,0,0,0-1-.68,2.72,2.72,0,0,0-.88.26l-.9.39V32.7H44a1.51,1.51,0,0,1-1.41.89v.57c.62,0,.93.18.93.8v3.17c0,.57-.48.57-.79.57v.57h2.56V38.7c-.26,0-.74,0-.74-.57v-4l.49-.19a2,2,0,0,1,.62-.14c.38,0,.68.24.68.79v3.57c0,.57-.55.57-.73.57v.57H48.1V38.7c-.2,0-.74,0-.74-.57v-4l.5-.2a2,2,0,0,1,.62-.14c.38,0,.68.24.68.79v3.57c0,.57-.5.57-.74.57v.57H51V38.7c-.27,0-.8,0-.8-.57Z"/><path class="cls-1" d="M46.92,21.26a1.27,1.27,0,0,1,1.39,1.1c0,.31-.2.46-.57.46H45a2,2,0,0,1,1.88-1.56m2.63,4.32a2.67,2.67,0,0,1-1.91.82A2.74,2.74,0,0,1,45,23.57v-.09h4.38c.29,0,.44-.15.44-.55A2.59,2.59,0,0,0,47,20.6,3.21,3.21,0,0,0,43.72,24,3.49,3.49,0,0,0,49.93,26Z"/><path class="cls-1" d="M72.14,14.39A2.17,2.17,0,0,1,70.29,12,2.27,2.27,0,0,1,72,9.52a5.26,5.26,0,0,1,1.86.76v2.77c-.41.61-1,1.34-1.76,1.34m3.83,0c-.34,0-.93,0-.93-.58V6.09h-.56a1.67,1.67,0,0,1-1.64,1H72.6v.57h.23c.5,0,1.07.22,1.07.81V9.51a7.11,7.11,0,0,0-2.32-.88A3.12,3.12,0,0,0,69,12a3,3,0,0,0,2.87,3.19,2.47,2.47,0,0,0,2-1.12v1.12l2.44-.22v-.57Zm-12.92,0a1,1,0,0,1-1.07-1c0-.83.88-1.25,2.84-1.42v1.6a2.63,2.63,0,0,1-1.77.77m3.91-1c-.14.7-.35.89-.61.89s-.35-.11-.35-.52V10c0-1.1-.88-1.52-2.13-1.52-1.47,0-3,.58-3,1.81,0,.53.28.95.82.95a.71.71,0,0,0,.77-.71,1.06,1.06,0,0,0-.09-.39.81.81,0,0,1-.08-.34c0-.5.86-.67,1.41-.67.77,0,1.12.33,1.12,1v1.14c-1.55.11-4.16.38-4.16,2.27,0,1,.65,1.61,1.92,1.61a3.56,3.56,0,0,0,2.3-.86,1.09,1.09,0,0,0,1.16.86c.64,0,1.29-.36,1.43-1.68ZM55.67,15.14a3.35,3.35,0,0,0,2.78-1.31l-.38-.42a2.67,2.67,0,0,1-4.58-2,2.11,2.11,0,0,1,1.93-2.31c.78,0,1,.58,1.15,1.11s.31.93.87.93a.73.73,0,0,0,.77-.82c0-1.16-1.38-1.87-2.71-1.87a3.23,3.23,0,0,0-3.26,3.37,3.26,3.26,0,0,0,3.43,3.34m-9.2-7.75,1.06,3.72H45.36Zm-.32,7.53v-.64h-.36c-1,0-1.27-.32-1-1.1l.4-1.37h2.57l.43,1.49c.21.74-.1,1-.84,1h-.49v.64h4v-.64h-.27c-.59,0-.83-.21-1-.86L47.38,6.31H46.15l-2.08,6.82c-.27.86-.63,1.15-1.32,1.15h-.2v.64Z"/><path class="cls-1" d="M64.44,179.35c.88.09,1.55.22,1.55.79s-1,1-2,1c-1.26,0-2.1-.43-2.1-1.16a1.15,1.15,0,0,1,.46-.87,3,3,0,0,0,.46.06Zm-.77-2.82a1.42,1.42,0,0,1-1.4-1.53,1.41,1.41,0,1,1,2.79,0A1.42,1.42,0,0,1,63.67,176.53Zm3.1-3.33c.45,0,.73-.2.73-.59a.64.64,0,0,0-.72-.63,1.06,1.06,0,0,0-1,1.27l.05.42a2.76,2.76,0,0,0-2.12-.83A2.38,2.38,0,0,0,61,175a1.91,1.91,0,0,0,1,1.68l-.71.67a.92.92,0,0,0-.39.68c0,.32.19.69.88.93-.68.28-1.17.72-1.17,1.3,0,.95,1.29,1.47,3,1.47,1.43,0,3.31-.36,3.31-2,0-.85-.52-1.36-1.77-1.5l-2.07-.23c-.56-.07-1-.15-1-.48a.74.74,0,0,1,.22-.45l.18-.19a3.94,3.94,0,0,0,1.13.17c1.56,0,2.61-.89,2.61-2.11,0-.48-.07-.94-.07-1.34s.17-.46.56-.46m-9.51,5.54c-.45,0-1.15-.06-1.15-.59v-5.42h-.56a1.79,1.79,0,0,1-1.75.89H52.64v.57h1.15c.51,0,1.15.2,1.15.81v3.15c0,.53-.7.59-1.14.59H52.28v.57h6.5v-.57ZM55.52,172a.92.92,0,1,0-.93-.92.91.91,0,0,0,.93.92m-7.71,7.32c.31,0,.48.07.55.32l.07.26H49l1-3h-.55a2.84,2.84,0,0,1-2.49,1.9H45.79c-.27,0-.33-.19-.19-.36l4.1-4.87V173H45.93c-.24,0-.31-.07-.38-.22l-.09-.26H45l-1,2.87h.55c.61-1,1.32-1.84,2.3-1.84h.83c.25,0,.32.19.18.36l-4.08,4.85v.51Zm-9.42-.45a2.57,2.57,0,0,1-1.62-.67v-3.56a5.71,5.71,0,0,1,1.82-.75c.82,0,1.63,1.12,1.63,2.58s-.83,2.4-1.83,2.4m.81-6a6.57,6.57,0,0,0-2.43,1v-1.14h-.56a1.61,1.61,0,0,1-1.63.88h-.24v.57h.23c.5,0,1.07.22,1.07.81v5.6c0,.53-.64.57-1,.57h-.34v.57h4v-.57h-.61c-.32,0-1,0-1-.57v-1.48a3.94,3.94,0,0,0,1.7.41,3.06,3.06,0,0,0,3-3.34c0-2.21-1.47-3.33-2.31-3.33m-7.52,5.88c-.45,0-1.14-.06-1.14-.59v-5.42H30a1.79,1.79,0,0,1-1.75.89H27.07v.57h1.15c.51,0,1.15.2,1.15.81v3.15c0,.53-.7.59-1.14.59H26.71v.57h6.5v-.57ZM29.94,172a.92.92,0,1,0-.92-.92.9.9,0,0,0,.92.92m-8.59,1.49a1.27,1.27,0,0,1,1.39,1.09c0,.32-.2.47-.58.47H19.47a2,2,0,0,1,1.88-1.56M24,177.8a2.71,2.71,0,0,1-1.91.82,2.75,2.75,0,0,1-2.7-2.83v-.1h4.39c.29,0,.44-.14.44-.54a2.59,2.59,0,0,0-2.8-2.33,3.22,3.22,0,0,0-3.26,3.36,3.3,3.3,0,0,0,3.46,3.35,3.26,3.26,0,0,0,2.75-1.3Zm-11,1.51c.74,0,1.28.27,1.23,1h.56l2-4.05h-.64c-1.06,1.43-1.77,2.39-2.61,2.39h-1a.74.74,0,0,1-.82-.81v-5.65c0-.74.68-.8,1.2-.8h.34v-.63H8.85v.63h.34c.52,0,1.2.06,1.2.8v5.65c0,.75-.68.81-1.2.81H8.85v.63Z"/></svg>