<svg id="Ebene_1" data-name="Ebene 1" xmlns="http://www.w3.org/2000/svg" viewBox="0 0 227.8 89.2"><defs><style>.cls-1{fill:#858585;}</style></defs><path class="cls-1" d="M206.82,85.67A18.92,18.92,0,0,0,216.2,83a8.89,8.89,0,0,1,3.74-1.32h2.59V70c0-2.79,2.37-3.22,4.37-3.22h.9V64H209.51v2.79h1.69c2.21,0,5,.53,5,3.17v5.27c0,4.74-4.16,7.53-8.85,7.53-7,0-9.49-6.16-9.49-13.75V63.22c0-5.95,2.16-13,8-13,3.63,0,8.11,2.42,14.33,8.75h2.64l-5-12.44h-2.21l-.58,1a2,2,0,0,1-1.69.95,6.58,6.58,0,0,1-2-.48,16.42,16.42,0,0,0-5.22-.89c-9.11,0-16,8-16,19.23s6.75,19.34,16.76,19.34m-19.5-1v-3h-2.1c-2.22,0-5.17-.26-5.17-3.48V54.32c0-3.22,2.95-3.48,5.17-3.48h2.1v-3H166.61v3h2.11c2.21,0,5.17.26,5.17,3.48V78.24c0,3.22-3,3.48-5.17,3.48h-2.11v3ZM156.44,89.2l7.8-19.34h-2.63c-7.49,11.07-9.7,11.86-14.18,11.86h-5.58c-2.17,0-2.32-1.26-1.06-2.84l22.82-29.25V47.84H147.75c-2.8,0-4.48-.11-5.43-2.59h-2.27l-6.9,15.5h2.69c6.43-7.8,8.32-9.91,11.91-9.91h4.74c1.84,0,2.11,1.26,1.11,2.48l-23,29.61v1.79h18.28c3.22,0,5.54,1.16,5.33,4.48ZM109.59,54.32A3.13,3.13,0,0,1,113,50.84h1.58c4.69,0,8.48,1.53,8.48,6.9s-3.79,7.17-9.06,7.17h-4.38Zm6,13.59c7.43,0,14.18-2.68,14.18-10.22s-6.54-9.85-14.6-9.85H96.79v3h1.47c2.22,0,5.17.26,5.17,3.48V78.24c0,3.22-3,3.48-5.17,3.48H96.79v3h20v-3h-2c-2.21,0-5.17-.26-5.17-3.48V67.91ZM94.31,84.72v-3H92.2C90,81.72,87,81.46,87,78.24V54.32c0-3.22,2.95-3.48,5.16-3.48h2.11v-3H73.6v3h2.11c2.21,0,5.16.26,5.16,3.48V78.24c0,3.22-3,3.48-5.16,3.48H73.6v3Zm-25-13.06C64.33,78,61,81.72,56.74,81.72H51.15a3.2,3.2,0,0,1-3.53-3.48V67.07h7.12c3.1,0,4.37,2.74,4.37,5.64v.74h2.63V57.53H59.11v.74c0,2.9-1.27,5.64-4.37,5.64H47.62V54.32a3.2,3.2,0,0,1,3.53-3.48h4.74c3.22,0,6.22,2.53,11.81,8.06h3L63.22,45.25H60.9c-.95,2.48-2.63,2.59-5.43,2.59H34.82v3h1.47c2.21,0,5.17.26,5.17,3.48V78.24c0,3.22-3,3.48-5.17,3.48H34.82v3H56c3.21,0,5.53,1.16,5.32,4.48h2.27l8.48-17.54Zm-37.94,0C26.75,77.51,23,81.72,19.16,81.72H16.27a3.2,3.2,0,0,1-3.53-3.48V54.32c0-3.22,2.95-3.48,5.16-3.48h1.48v-3H0v3H1.46c2.21,0,5.16.26,5.16,3.48V78.24c0,3.22-2.95,3.48-5.16,3.48H0v3H18.16c3.22,0,5.54,1.16,5.33,4.48h2.26l8.38-17.54Zm68.68-36.51a3.2,3.2,0,0,1-3.53-3.48V19.87H103c5.28,0,8.7,2.48,8.7,7.8,0,5.64-3.9,7.48-8,7.48ZM96.54,7.75c0-2.32,1.06-3.48,3.43-3.48h2.58c4.27,0,7.8,1.21,7.8,6.16s-3.64,6.43-8.33,6.43H96.54Zm14.07,10.43c3.74-1.16,6.54-3.37,6.54-7.85,0-6.59-6.17-9.07-13.81-9.07H83.74v3h1.47c2.22,0,5.17.26,5.17,3.48V31.67c0,3.22-2.95,3.48-5.17,3.48H83.74v3H105c6.79,0,13.54-2.74,13.54-10.48,0-5.69-3.64-8.28-7.91-9.49M61.55,39.1a18.92,18.92,0,0,0,9.38-2.63,8.89,8.89,0,0,1,3.74-1.32h2.59V23.4c0-2.79,2.37-3.22,4.37-3.22h.9V17.39H64.24v2.79h1.69c2.21,0,4.95.53,4.95,3.17v5.27c0,4.74-4.16,7.53-8.85,7.53-7,0-9.49-6.16-9.49-13.75V16.65c0-5.95,2.16-13,8-13,3.63,0,8.11,2.42,14.33,8.75h2.64L72.51,0H70.3l-.58,1A2,2,0,0,1,68,1.9a6.58,6.58,0,0,1-2-.48A16.42,16.42,0,0,0,60.81.53c-9.11,0-16,8-16,19.23S51.54,39.1,61.55,39.1M41.9,4.27v-3H22.45v3h1.48c2.21,0,5.16.26,5.16,3.48v9.32H12.81V7.75c0-3.22,2.95-3.48,5.16-3.48h1.48v-3H0v3H1.48c2.21,0,5.16.26,5.16,3.48V31.67c0,3.22-2.95,3.48-5.16,3.48H0v3H19.45v-3H18c-2.21,0-5.16-.26-5.16-3.48V20.34H29.09V31.67c0,3.22-2.95,3.48-5.16,3.48H22.45v3H41.9v-3H40.42c-2.21,0-5.17-.26-5.17-3.48V7.75c0-3.22,3-3.48,5.17-3.48Z"/></svg>