<svg id="Ebene_1" data-name="Ebene 1" xmlns="http://www.w3.org/2000/svg" viewBox="0 0 115.67 87.33"><defs><style>.cls-1{fill:#858585;}</style></defs><path class="cls-1" d="M105.05,38.63a4.13,4.13,0,0,0,4.11-4.17,4.08,4.08,0,0,0-4.11-4.11,4.13,4.13,0,0,0-4.16,4.11,4.18,4.18,0,0,0,4.16,4.17M89.19,16.76c3.37-1,7.32-3.11,7.32-8.06C96.51,4,92.88,0,86.71,0A15.3,15.3,0,0,0,74.28,6.8L76,9c2.42-2.37,5.37-4.53,8.74-4.53,3.53,0,5.64,2.37,5.64,5.32,0,4.9-5.9,6.69-9.59,7.8l1,2.48a10.29,10.29,0,0,1,2.32-.26c4.69,0,8.43,2.68,8.43,8.06,0,4.69-2.79,7.74-6.9,7.74-3.69,0-5.06-2.42-6.27-4.74-1-1.9-2-3.58-4.06-3.58S72.06,28.83,72.06,31c0,5.06,6.85,7.8,12.81,7.8,7.8,0,13.7-4.69,13.7-12.23,0-6.53-4.43-9.85-9.38-9.8M60.92,38.63A4.14,4.14,0,0,0,65,34.46a4.09,4.09,0,0,0-4.11-4.11,4.14,4.14,0,0,0-4.17,4.11,4.18,4.18,0,0,0,4.17,4.17M45.05,16.76c3.38-1,7.33-3.11,7.33-8.06C52.38,4,48.74,0,42.58,0A15.32,15.32,0,0,0,30.14,6.8L31.88,9c2.42-2.37,5.38-4.53,8.75-4.53,3.53,0,5.64,2.37,5.64,5.32,0,4.9-5.91,6.69-9.59,7.8l.94,2.48a10.29,10.29,0,0,1,2.32-.26c4.69,0,8.43,2.68,8.43,8.06,0,4.69-2.79,7.74-6.9,7.74-3.69,0-5.06-2.42-6.27-4.74-1-1.9-2-3.58-4.06-3.58S27.93,28.83,27.93,31c0,5.06,6.85,7.8,12.8,7.8,7.8,0,13.71-4.69,13.71-12.23,0-6.53-4.43-9.85-9.39-9.8M24,27.3c-1.69,3.69-4,5.32-7.59,5.32H5.69a48.13,48.13,0,0,1,6.43-5.38l2.26-1.63C20.08,21.5,24.77,18,24.77,11.23S20.08,0,13.54,0C6.22,0,1.79,5.48,1.1,12.7l3.17,1c1.21-6.32,4.32-9.27,8-9.27S18.55,7.48,18.55,12c0,4.37-2.37,7.53-6.75,11.17L9.69,24.93A57.85,57.85,0,0,0,.26,34v3.8H15.65c2.79,0,4.27.95,4.27,3h2.32L26.45,27.3Zm78.52,26.89V70.94H91.27Zm0,21.29v8.85h5.74V75.48h6.22l1.16-4.54h-7.38v-24h-4.53L84.37,75.48ZM81.47,73.79c-1.68,3.69-4,5.32-7.59,5.32H63.13a47.35,47.35,0,0,1,6.43-5.37l2.27-1.64C77.52,68,82.21,64.46,82.21,57.72S77.52,46.49,71,46.49c-7.32,0-11.75,5.48-12.43,12.7l3.16,1c1.21-6.32,4.32-9.27,8-9.27S76,54,76,58.51c0,4.37-2.37,7.53-6.75,11.17l-2.1,1.74a57.55,57.55,0,0,0-9.43,9.12v3.79H73.09c2.79,0,4.27,1,4.27,3h2.32L83.9,73.79Zm-38.94,8c-6.12,0-6.64-7.27-6.64-15.91S36.41,50,42.53,50C48.48,50,49,57.4,49,65.89c0,8.64-.53,15.91-6.48,15.91m0,3.48c7.06,0,13.54-8.54,13.54-19.39s-6.48-19.4-13.54-19.4-13.81,8.7-13.81,19.4,6.59,19.39,13.81,19.39M23.77,73.79c-1.69,3.69-4,5.32-7.59,5.32H5.43a47.35,47.35,0,0,1,6.43-5.37l2.26-1.64c5.7-4.11,10.39-7.64,10.39-14.38S19.82,46.49,13.28,46.49C6,46.49,1.53,52,.84,59.19l3.17,1c1.21-6.32,4.32-9.27,8-9.27s6.28,3.06,6.28,7.59c0,4.37-2.38,7.53-6.75,11.17L9.43,71.42A58,58,0,0,0,0,80.54v3.79H15.39c2.79,0,4.27,1,4.27,3H22l4.21-13.54Z"/></svg>