<svg id="Ebene_1" data-name="Ebene 1" xmlns="http://www.w3.org/2000/svg" viewBox="0 0 261.09 45.12"><defs><style>.cls-1{fill:#858585;}</style></defs><path class="cls-1" d="M103.1,43.27A9.91,9.91,0,0,0,108,41.89a4.73,4.73,0,0,1,2-.69h1.35V35.05c0-1.47,1.24-1.69,2.29-1.69h.47V31.9h-9.58v1.46h.88c1.16,0,2.6.28,2.6,1.66v2.76c0,2.48-2.18,3.95-4.64,3.95-3.64,0-5-3.23-5-7.21v-3c0-3.12,1.13-6.79,4.17-6.79,1.9,0,4.25,1.27,7.51,4.59h1.38l-2.6-6.52h-1.16l-.3.5a1,1,0,0,1-.88.49,3.69,3.69,0,0,1-1-.24,8.35,8.35,0,0,0-2.73-.47c-4.78,0-8.4,4.19-8.4,10.07s3.54,10.13,8.78,10.13m-9.34-.49V41.2h-1.1c-1.16,0-2.71-.13-2.71-1.82V26.85C90,25.16,91.5,25,92.66,25h1.1V23.45H82.91V25H84c1.16,0,2.7.13,2.7,1.82V39.38c0,1.69-1.54,1.82-2.7,1.82H82.91v1.58Zm-15.3,2.34L82.55,35H81.17c-3.92,5.8-5.08,6.21-7.43,6.21H70.81c-1.13,0-1.21-.66-.55-1.49l12-15.32v-.94H73.91c-1.47,0-2.35-.05-2.85-1.35H69.88l-3.62,8.12h1.41C71,26.13,72,25,73.91,25h2.48c1,0,1.1.66.58,1.29L64.91,41.84v.94h9.58c1.68,0,2.89.6,2.78,2.34ZM54.79,26.85A1.64,1.64,0,0,1,56.56,25h.83c2.46,0,4.44.8,4.44,3.61s-2,3.76-4.74,3.76h-2.3ZM57.94,34c3.89,0,7.43-1.41,7.43-5.35s-3.43-5.17-7.65-5.17H48.09V25h.77c1.16,0,2.7.13,2.7,1.82V39.38c0,1.69-1.54,1.82-2.7,1.82h-.77v1.58H58.58V41.2H57.5c-1.16,0-2.71-.13-2.71-1.82V34ZM47.66,42.78V41.2h-1.1c-1.16,0-2.71-.13-2.71-1.82V26.85c0-1.69,1.55-1.82,2.71-1.82h1.1V23.45H36.82V25h1.1c1.16,0,2.7.13,2.7,1.82V39.38c0,1.69-1.54,1.82-2.7,1.82h-1.1v1.58ZM35.45,35.93c-2.62,3.34-4.36,5.27-6.59,5.27H25.93a1.68,1.68,0,0,1-1.85-1.82V33.53h3.73c1.63,0,2.29,1.43,2.29,2.95v.39h1.38V28.53H30.1v.39c0,1.52-.66,2.95-2.29,2.95H24.08v-5A1.68,1.68,0,0,1,25.93,25h2.48c1.69,0,3.26,1.32,6.19,4.22h1.54L32.25,22.1H31c-.5,1.3-1.38,1.35-2.85,1.35H17.37V25h.78c1.15,0,2.7.13,2.7,1.82V39.38c0,1.69-1.55,1.82-2.7,1.82h-.78v1.58h11.1c1.68,0,2.9.6,2.79,2.34h1.18l4.45-9.19Zm-19,0C14,39,12.06,41.2,10.05,41.2H8.53a1.68,1.68,0,0,1-1.85-1.82V26.85C6.68,25.16,8.23,25,9.39,25h.77V23.45H0V25H.77c1.16,0,2.71.13,2.71,1.82V39.38c0,1.69-1.55,1.82-2.71,1.82H0v1.58H9.52c1.69,0,2.9.6,2.79,2.34H13.5l4.39-9.19Z"/><path class="cls-1" d="M50.77,18.41a1.67,1.67,0,0,1-1.85-1.82V10.41h3.39c2.76,0,4.56,1.29,4.56,4.08,0,3-2,3.92-4.2,3.92ZM48.92,4.06c0-1.22.55-1.82,1.79-1.82h1.35c2.24,0,4.09.63,4.09,3.23s-1.91,3.36-4.36,3.36H48.92Zm7.37,5.46c2-.6,3.42-1.76,3.42-4.11C59.71,2,56.48.66,52.48.66H42.21V2.24H43c1.16,0,2.71.13,2.71,1.82V16.59c0,1.68-1.55,1.82-2.71,1.82h-.77V20H53.33c3.56,0,7.1-1.44,7.1-5.5,0-3-1.91-4.33-4.14-5m-24.87,11a9.9,9.9,0,0,0,4.91-1.38,4.73,4.73,0,0,1,2-.69h1.35V12.26c0-1.47,1.24-1.69,2.29-1.69h.47V9.11H32.82v1.46h.89c1.16,0,2.59.28,2.59,1.66V15c0,2.48-2.18,4-4.64,4-3.64,0-5-3.23-5-7.21v-3c0-3.12,1.14-6.79,4.17-6.79,1.91,0,4.25,1.27,7.51,4.58h1.38L37.16,0H36l-.31.5a1,1,0,0,1-.88.49A3.85,3.85,0,0,1,33.76.75,8.3,8.3,0,0,0,31,.28c-4.78,0-8.39,4.19-8.39,10.07s3.53,10.13,8.78,10.13M22,2.24V.66H11.76V2.24h.77c1.16,0,2.71.13,2.71,1.82V8.94H6.71V4.06c0-1.69,1.54-1.82,2.7-1.82h.78V.66H0V2.24H.77c1.16,0,2.71.13,2.71,1.82V16.59c0,1.68-1.55,1.82-2.71,1.82H0V20H10.19V18.41H9.41c-1.16,0-2.7-.14-2.7-1.82V10.66h8.53v5.93c0,1.68-1.55,1.82-2.71,1.82h-.77V20H22V18.41h-.78c-1.16,0-2.7-.14-2.7-1.82V4.06c0-1.69,1.54-1.82,2.7-1.82Z"/><path class="cls-1" d="M254.21,27v8.78h-5.9Zm0,11.15v4.64h3V38.14h3.26l.61-2.37h-3.87V23.18h-2.37l-10.16,15Zm-10.76-.88c-.89,1.93-2.1,2.78-4,2.78h-5.63a24.71,24.71,0,0,1,3.37-2.81l1.18-.86c3-2.15,5.44-4,5.44-7.53A5.62,5.62,0,0,0,238,23c-3.83,0-6.15,2.87-6.51,6.65l1.65.52c.64-3.31,2.27-4.85,4.2-4.85s3.29,1.6,3.29,4-1.25,4-3.54,5.85l-1.1.91A30.72,30.72,0,0,0,231,40.79v2h8.06c1.46,0,2.23.49,2.23,1.57h1.22l2.21-7.09Zm-19.58,4.19c-3.2,0-3.47-3.81-3.47-8.33s.27-8.34,3.47-8.34,3.4,3.89,3.4,8.34-.28,8.33-3.4,8.33m0,1.82c3.7,0,7.1-4.47,7.1-10.15S227.6,23,223.9,23s-7.23,4.55-7.23,10.16,3.45,10.15,7.23,10.15m-8.47-6c-.89,1.93-2.1,2.78-4,2.78h-5.63a24.71,24.71,0,0,1,3.37-2.81l1.19-.86c3-2.15,5.43-4,5.43-7.53A5.62,5.62,0,0,0,209.93,23c-3.83,0-6.15,2.87-6.51,6.65l1.66.52c.63-3.31,2.26-4.85,4.19-4.85s3.29,1.6,3.29,4-1.25,4-3.54,5.85l-1.1.91A30.72,30.72,0,0,0,203,40.79v2H211c1.46,0,2.23.49,2.23,1.57h1.22l2.21-7.09Z"/><path class="cls-1" d="M256.89,20.4A2.16,2.16,0,0,0,259,18.22a2.13,2.13,0,0,0-2.15-2.15,2.16,2.16,0,0,0-2.18,2.15,2.19,2.19,0,0,0,2.18,2.18M248.58,8.94c1.77-.49,3.84-1.62,3.84-4.22S250.51.17,247.28.17a8,8,0,0,0-6.51,3.56l.91,1.16a6.9,6.9,0,0,1,4.58-2.38,2.75,2.75,0,0,1,3,2.79c0,2.57-3.1,3.51-5,4.09l.5,1.29a5.61,5.61,0,0,1,1.21-.13c2.46,0,4.42,1.4,4.42,4.22,0,2.46-1.46,4.06-3.62,4.06-1.93,0-2.65-1.27-3.28-2.49-.53-1-1-1.87-2.13-1.87a1.71,1.71,0,0,0-1.68,1.93c0,2.65,3.59,4.08,6.71,4.08,4.08,0,7.17-2.45,7.17-6.4a4.74,4.74,0,0,0-4.91-5.14M234.47,20.4a2.17,2.17,0,0,0,2.16-2.18,2.14,2.14,0,0,0-2.16-2.15,2.17,2.17,0,0,0-2.18,2.15,2.19,2.19,0,0,0,2.18,2.18m-8.3-11.46c1.76-.49,3.83-1.62,3.83-4.22S228.1.17,224.87.17a8,8,0,0,0-6.52,3.56l.91,1.16a6.9,6.9,0,0,1,4.59-2.38,2.74,2.74,0,0,1,3,2.79c0,2.57-3.09,3.51-5,4.09l.49,1.29a5.71,5.71,0,0,1,1.22-.13c2.45,0,4.41,1.4,4.41,4.22,0,2.46-1.46,4.06-3.61,4.06-1.93,0-2.65-1.27-3.29-2.49-.52-1-1-1.87-2.12-1.87a1.72,1.72,0,0,0-1.69,1.93c0,2.65,3.59,4.08,6.71,4.08,4.09,0,7.18-2.45,7.18-6.4a4.75,4.75,0,0,0-4.91-5.14m-10.74,5.53c-.89,1.93-2.1,2.78-4,2.78h-5.63a24,24,0,0,1,3.37-2.81l1.19-.86c3-2.15,5.43-4,5.43-7.53A5.62,5.62,0,0,0,209.93.17c-3.83,0-6.15,2.87-6.51,6.65l1.66.52c.63-3.31,2.26-4.86,4.19-4.86s3.29,1.61,3.29,4-1.25,4-3.54,5.85l-1.1.91A30.72,30.72,0,0,0,203,18v2H211c1.46,0,2.23.49,2.23,1.57h1.22l2.21-7.09Z"/></svg>