<svg id="Ebene_1" data-name="Ebene 1" xmlns="http://www.w3.org/2000/svg" xmlns:xlink="http://www.w3.org/1999/xlink" viewBox="0 0 101.97 43.58"><defs><style>.cls-1{fill:url(#Unbenannter_Verlauf_42);}</style><linearGradient id="Unbenannter_Verlauf_42" x1="50.99" x2="50.99" y2="43.58" gradientUnits="userSpaceOnUse"><stop offset="0" stop-color="#fff"/><stop offset="0.71" stop-color="#fdfdfd"/><stop offset="0.97" stop-color="#f6f6f6"/><stop offset="1" stop-color="#f5f5f5"/></linearGradient></defs><path class="cls-1" d="M78.94,43.58l.42-3.21c.16-1.37.74-1.8,1.64-1.8a8.66,8.66,0,0,1,2.42.53,18.05,18.05,0,0,0,6,1.06c7,0,12.54-4,12.54-11.76,0-6-3.32-10.22-9.59-11.06l-7.11-.95c-4.06-.53-7-1.79-7-5.17s3.16-5.9,7.22-5.9c4.53,0,8.69,3,12.49,8.7h2.53L96.17,0h-2l-.79,2.06c-.32.89-.74,1.26-1.53,1.26a8.81,8.81,0,0,1-2.11-.42A15.91,15.91,0,0,0,85,2.16c-7,0-11.86,4.53-11.86,11,0,5.59,3.69,9.12,10.07,10l6.85.9c4.27.58,6.69,2.74,6.69,6.32,0,3.9-2.84,6.64-7.37,6.64-6.17,0-11.12-5.06-15.13-11H71.46l5.22,17.55ZM62.18,18.71c4.9-3.32,6.43-7.22,6.43-10.44,0-3.58-2-6.21-5-6.21a3.62,3.62,0,0,0-3.8,3.79c0,2.05,1.32,2.9,2.64,3.69,1.1.68,2.11,1.32,2.11,2.58s-1.11,3-3.9,5ZM36.73,33c0,3.21-2.95,3.48-5.16,3.48H29.72v3H49.91v-3H48.06c-2.21,0-5.16-.27-5.16-3.48V5.59H46c2.47,0,5.48,4.37,8.74,9.38h3L53,0H50.7c-1,2.48-1.59,2.58-5.27,2.58H34.2c-3.69,0-4.32-.1-5.27-2.58H26.61L21.92,15h2.95c3.32-5,6.27-9.38,8.75-9.38h3.11Zm-16,6.48v-3H18.6c-2.21,0-5.16-.27-5.16-3.48V9.06c0-3.21,3-3.47,5.16-3.47h2.11v-3H0v3H2.11c2.21,0,5.16.26,5.16,3.47V33c0,3.21-2.95,3.48-5.16,3.48H0v3Z"/></svg>