<svg id="Ebene_1" data-name="Ebene 1" xmlns="http://www.w3.org/2000/svg" xmlns:xlink="http://www.w3.org/1999/xlink" viewBox="0 0 256.75 135.27"><defs><style>.cls-1{fill:url(#Unbenannter_Verlauf_41);}</style><linearGradient id="Unbenannter_Verlauf_41" x1="128.38" y1="135.09" x2="128.38" gradientUnits="userSpaceOnUse"><stop offset="0" stop-color="#858584"/><stop offset="0.09" stop-color="#989897"/><stop offset="0.3" stop-color="#c3c3c2"/><stop offset="0.4" stop-color="#d3d3d2"/><stop offset="0.41" stop-color="#d2d2d1"/><stop offset="0.57" stop-color="#b0b0af"/><stop offset="0.73" stop-color="#989897"/><stop offset="0.88" stop-color="#8a8a89"/><stop offset="1" stop-color="#858584"/></linearGradient></defs><path class="cls-1" d="M240.94,97.09h1.69c2.69,0,4.05.79,4.05,2.8a7.13,7.13,0,0,1-.42,2.32l-6.53,19.6-7.11-19.55a8.28,8.28,0,0,1-.58-2.64c0-1.63,1.1-2.53,4.26-2.53H238v-3h-17.7v3h1.31c2.59,0,3.11,1.43,4,3.74l1.52,4.17-6,17-7.28-19.87a8.12,8.12,0,0,1-.63-2.64c0-1.63,1.11-2.37,3.85-2.37h1v-3H199.84v3h1.68c3,0,3.64.9,4.9,4.11l11.91,30.31H221l7.85-21.93L237,131.51h2.69L249.9,102.1c1.26-3.58,2.58-5,5.74-5h1.11v-3H240.94Zm-58.18,31.73c-6.06,0-10.33-5-10.33-14.71V111c0-9.75,4.27-14.65,10.33-14.65S193,101.2,193,111v3.16c0,9.75-4.17,14.71-10.23,14.71m0,3.11c10.38,0,18.34-9.23,18.34-19.4s-8-19.39-18.34-19.39-18.44,9.22-18.44,19.39,8.06,19.4,18.44,19.4M163.84,97.09v-3H144.4v3h1.47c2.22,0,5.17.27,5.17,3.48v9.33H134.75v-9.33c0-3.21,2.95-3.48,5.17-3.48h1.47v-3H122v3h1.47c2.22,0,5.17.27,5.17,3.48V124.5c0,3.21-3,3.47-5.17,3.47H122v3h19.44v-3h-1.47c-2.22,0-5.17-.26-5.17-3.47V113.17H151V124.5c0,3.21-2.95,3.47-5.17,3.47H144.4v3h19.44v-3h-1.47c-2.22,0-5.17-.26-5.17-3.47V100.57c0-3.21,3-3.48,5.17-3.48Zm-67,38,.42-3.22c.16-1.37.74-1.79,1.64-1.79a8.32,8.32,0,0,1,2.42.53,18.07,18.07,0,0,0,6,1c7,0,12.54-4,12.54-11.75,0-6-3.32-10.22-9.59-11.06l-7.11-.95c-4.06-.53-7-1.8-7-5.17s3.16-5.9,7.22-5.9c4.53,0,8.69,3,12.49,8.7h2.52l-4.32-14h-2l-.79,2c-.32.9-.74,1.27-1.53,1.27a8.81,8.81,0,0,1-2.11-.42,15.91,15.91,0,0,0-4.74-.74c-7,0-11.86,4.53-11.86,11,0,5.59,3.69,9.12,10.07,10l6.85.9c4.27.58,6.69,2.74,6.69,6.32,0,3.9-2.84,6.64-7.37,6.64-6.17,0-11.12-5.06-15.13-11H89.33l5.22,17.55Zm-40.69-6.27c-6.06,0-10.33-5-10.33-14.71V111c0-9.75,4.27-14.65,10.33-14.65S66.35,101.2,66.35,111v3.16c0,9.75-4.17,14.71-10.23,14.71m0,3.11c10.38,0,18.34-9.23,18.34-19.4s-8-19.39-18.34-19.39-18.44,9.22-18.44,19.39,8.06,19.4,18.44,19.4M14.81,124.5c0,3.21-3,3.47-5.17,3.47H7.8v3H28v-3H26.14c-2.22,0-5.17-.26-5.17-3.47V97.09h3.11c2.48,0,5.48,4.38,8.75,9.38h3l-4.69-15H28.77c-.95,2.47-1.58,2.58-5.27,2.58H12.28C8.59,94.09,8,94,7,91.51H4.69L0,106.47H3c3.32-5,6.27-9.38,8.75-9.38h3.11Zm225.8-74h1.69c2.69,0,4.06.79,4.06,2.8a7.41,7.41,0,0,1-.42,2.32l-6.54,19.6-7.11-19.55a8.28,8.28,0,0,1-.58-2.64c0-1.63,1.1-2.53,4.27-2.53h1.73v-3H220v3h1.31c2.59,0,3.11,1.43,4,3.74l1.53,4.17-6,17-7.27-19.87a8.17,8.17,0,0,1-.64-2.64c0-1.63,1.11-2.37,3.85-2.37h.95v-3H199.51v3h1.68c3,0,3.64.9,4.91,4.11L218,84.94h2.69L228.54,63l8.17,21.93h2.69l10.17-29.41c1.27-3.58,2.58-5,5.75-5h1.1v-3H240.61Zm-57.7,31.73c-6.06,0-10.33-5-10.33-14.71V64.38c0-9.75,4.27-14.65,10.33-14.65s10.22,4.9,10.22,14.65v3.16c0,9.75-4.16,14.71-10.22,14.71m0,3.11c10.38,0,18.34-9.23,18.34-19.4s-8-19.39-18.34-19.39S164.46,55.79,164.46,66s8.07,19.4,18.45,19.4M139.64,54c0-2.26,1.11-3.48,3.32-3.48h2.43c4.63,0,8.32,1.58,8.32,6.75,0,4.85-3.26,7.06-8.32,7.06h-5.75Zm24,27.4c-3.37,0-4.74-.73-6.74-3.9L150.34,67c5.85-.9,10.12-3.95,10.12-9.75,0-6.9-6.06-9.75-14.07-9.75H126.84v3h1.47c2.22,0,5.17.27,5.17,3.48V77.93c0,3.21-2.95,3.47-5.17,3.47h-1.47v3h19.39v-3h-1.42c-2.16,0-5.17-.05-5.17-2.84V67.33h4L152,81A6.43,6.43,0,0,1,153,84.41h11.7v-3Zm-58,4a19,19,0,0,0,9.38-2.64,8.84,8.84,0,0,1,3.74-1.32h2.58V69.65c0-2.79,2.37-3.21,4.37-3.21h.9V63.65H108.39v2.79h1.69c2.21,0,5,.53,5,3.16v5.27c0,4.74-4.16,7.54-8.85,7.54-7,0-9.49-6.17-9.49-13.76V62.91c0-6,2.16-13,8-13,3.64,0,8.12,2.43,14.33,8.75h2.64l-5-12.44h-2.22l-.58,1a1.94,1.94,0,0,1-1.68.95,6.89,6.89,0,0,1-2-.47,16.32,16.32,0,0,0-5.21-.9c-9.12,0-16,8-16,19.24s6.74,19.34,16.76,19.34M56.64,82.25c-6.06,0-10.32-5-10.32-14.71V64.38c0-9.75,4.26-14.65,10.32-14.65s10.23,4.9,10.23,14.65v3.16c0,9.75-4.17,14.71-10.23,14.71m0,3.11C67,85.36,75,76.13,75,66S67,46.57,56.64,46.57,38.2,55.79,38.2,66s8.06,19.4,18.44,19.4M15.33,77.93c0,3.21-2.95,3.47-5.17,3.47H8.32v3H28.5v-3H26.66c-2.21,0-5.17-.26-5.17-3.47V50.52H24.6c2.48,0,5.48,4.38,8.75,9.38H36.3l-4.69-15H29.29c-.95,2.47-1.58,2.58-5.27,2.58H12.8c-3.69,0-4.32-.11-5.27-2.58H5.21L.52,59.9h3c3.32-5,6.27-9.38,8.75-9.38h3.11Zm141.79-43.1c-2.42,0-4.06-.68-6.27-3.53l-11.8-15.39L150,6.75c2-1.69,3.48-2.8,5.75-2.8h1V1H140.52V4h1.9c1.53,0,2.32.69,2.32,1.69a3.32,3.32,0,0,1-1.43,2.42l-13,11.07V7.43c0-3.21,3-3.48,4.85-3.48h.68V1H117.55V4H119c2.21,0,5.17.27,5.17,3.48V31.36c0,3.21-3,3.47-5.17,3.47h-1.47v3h18.33v-3h-.68c-2,0-4.85,0-4.85-3.47V22.92l3.9-3.16,9.17,11.81a3.13,3.13,0,0,1,.84,1.89c0,.85-.58,1.37-1.89,1.37h-1.64v3h17.45v-3Zm-59.44.85c-6.06,0-10.33-5-10.33-14.71V17.81c0-9.75,4.27-14.65,10.33-14.65s10.22,4.9,10.22,14.65V21c0,9.75-4.16,14.71-10.22,14.71m0,3.11c10.38,0,18.34-9.23,18.34-19.4S108.06,0,97.68,0,79.23,9.22,79.23,19.39s8.07,19.4,18.45,19.4M57.21,35.68c-6.06,0-10.33-5-10.33-14.71V17.81c0-9.75,4.27-14.65,10.33-14.65s10.22,4.9,10.22,14.65V21c0,9.75-4.16,14.71-10.22,14.71m0,3.11c10.38,0,18.34-9.23,18.34-19.4S67.59,0,57.21,0,38.76,9.22,38.76,19.39s8.06,19.4,18.45,19.4m-40-4a3.19,3.19,0,0,1-3.53-3.47V19.55h6.48c5.27,0,8.69,2.48,8.69,7.8,0,5.64-3.9,7.48-8,7.48ZM13.63,7.43c0-2.32,1-3.48,3.42-3.48h2.58c4.27,0,7.8,1.21,7.8,6.17s-3.63,6.43-8.32,6.43H13.63ZM27.7,17.86c3.74-1.15,6.53-3.37,6.53-7.85C34.23,3.43,28.06,1,20.42,1H.82V4H2.29c2.22,0,5.17.27,5.17,3.48V31.36c0,3.21-2.95,3.47-5.17,3.47H.82v3H22.06c6.79,0,13.54-2.74,13.54-10.49,0-5.69-3.64-8.27-7.9-9.49"/></svg>