<svg id="Ebene_1" data-name="Ebene 1" xmlns="http://www.w3.org/2000/svg" viewBox="0 0 232.29 134.69"><defs><style>.cls-1{fill:#858585;}</style></defs><path class="cls-1" d="M219.17,101.55V118.3H207.89Zm0,21.29v8.85h5.75v-8.85h6.21l1.16-4.54h-7.37v-24h-4.54L201,122.84Zm-21.08-1.69c-1.68,3.69-4,5.32-7.59,5.32H179.75a47.35,47.35,0,0,1,6.43-5.37l2.27-1.64c5.69-4.11,10.38-7.64,10.38-14.38s-4.69-11.23-11.23-11.23c-7.32,0-11.75,5.48-12.43,12.7l3.16,1c1.21-6.32,4.32-9.27,8-9.27s6.27,3.06,6.27,7.59c0,4.37-2.37,7.53-6.74,11.17l-2.11,1.74a58,58,0,0,0-9.43,9.12v3.79h15.38c2.8,0,4.27.95,4.27,3h2.32l4.22-13.54Zm-38.94,8c-6.12,0-6.64-7.27-6.64-15.91,0-8.49.52-15.92,6.64-15.92,5.95,0,6.48,7.43,6.48,15.92,0,8.64-.53,15.91-6.48,15.91m0,3.48c7.06,0,13.54-8.54,13.54-19.39s-6.48-19.4-13.54-19.4-13.81,8.7-13.81,19.4,6.59,19.39,13.81,19.39m-18.81-11.49c-1.69,3.69-4,5.32-7.59,5.32H122.05a47.35,47.35,0,0,1,6.43-5.37l2.26-1.64c5.7-4.11,10.39-7.64,10.39-14.38s-4.69-11.23-11.23-11.23c-7.32,0-11.75,5.48-12.44,12.7l3.17,1c1.21-6.32,4.32-9.27,8-9.27s6.27,3.06,6.27,7.59c0,4.37-2.37,7.53-6.75,11.17l-2.11,1.74a58,58,0,0,0-9.43,9.12v3.79H132c2.79,0,4.27.95,4.27,3h2.32l4.21-13.54Zm-35.6,11.33a4.12,4.12,0,0,0,4.11-4.16,4.08,4.08,0,0,0-4.11-4.11,4.12,4.12,0,0,0-4.16,4.11,4.16,4.16,0,0,0,4.16,4.16M88.93,110.61c3.37-1,7.32-3.11,7.32-8.06,0-4.74-3.63-8.7-9.8-8.7A15.3,15.3,0,0,0,74,100.65l1.73,2.21c2.43-2.37,5.38-4.53,8.75-4.53,3.53,0,5.64,2.37,5.64,5.32,0,4.91-5.9,6.7-9.59,7.8l1,2.48a10.29,10.29,0,0,1,2.32-.26c4.69,0,8.43,2.68,8.43,8.06,0,4.69-2.79,7.75-6.91,7.75-3.68,0-5-2.43-6.27-4.75-1-1.89-1.95-3.58-4-3.58s-3.22,1.53-3.22,3.69c0,5.06,6.85,7.8,12.81,7.8,7.8,0,13.7-4.69,13.7-12.23,0-6.53-4.43-9.85-9.38-9.8M60.66,132.48a4.13,4.13,0,0,0,4.11-4.16,4.08,4.08,0,0,0-4.11-4.11,4.13,4.13,0,0,0-4.17,4.11,4.17,4.17,0,0,0,4.17,4.16M44.79,110.61c3.38-1,7.33-3.11,7.33-8.06,0-4.74-3.64-8.7-9.8-8.7a15.3,15.3,0,0,0-12.44,6.8l1.74,2.21c2.42-2.37,5.37-4.53,8.75-4.53,3.53,0,5.64,2.37,5.64,5.32,0,4.91-5.91,6.7-9.6,7.8l1,2.48a10.29,10.29,0,0,1,2.32-.26c4.69,0,8.43,2.68,8.43,8.06,0,4.69-2.79,7.75-6.9,7.75-3.69,0-5.06-2.43-6.27-4.75-1-1.89-1.95-3.58-4.06-3.58s-3.21,1.53-3.21,3.69c0,5.06,6.85,7.8,12.8,7.8,7.8,0,13.7-4.69,13.7-12.23,0-6.53-4.42-9.85-9.38-9.8m-21,10.54c-1.69,3.69-4,5.32-7.59,5.32H5.43a47.35,47.35,0,0,1,6.43-5.37l2.26-1.64c5.69-4.11,10.38-7.64,10.38-14.38S19.81,93.85,13.28,93.85C6,93.85,1.53,99.33.84,106.55l3.17,1c1.21-6.32,4.32-9.27,8-9.27s6.27,3.06,6.27,7.59c0,4.37-2.38,7.53-6.75,11.17l-2.11,1.74A58,58,0,0,0,0,127.9v3.79H15.39c2.79,0,4.27.95,4.27,3H22l4.22-13.54Z"/><path class="cls-1" d="M207.58,86.07A19,19,0,0,0,217,83.43a9,9,0,0,1,3.74-1.31h2.58V70.36c0-2.79,2.37-3.21,4.38-3.21h.89V64.36H210.27v2.79H212c2.21,0,5,.53,5,3.16v5.27c0,4.74-4.17,7.54-8.86,7.54-7,0-9.48-6.17-9.48-13.76V63.62c0-6,2.16-13,8-13,3.64,0,8.12,2.42,14.34,8.74h2.63l-5-12.43h-2.21l-.58.94a2,2,0,0,1-1.69,1,6.84,6.84,0,0,1-2-.47,16.44,16.44,0,0,0-5.22-.9c-9.12,0-16,8-16,19.24s6.74,19.34,16.76,19.34m-19.5-.95v-3H186c-2.21,0-5.16-.27-5.16-3.48V54.71c0-3.21,2.95-3.48,5.16-3.48h2.11v-3H167.37v3h2.11c2.21,0,5.16.27,5.16,3.48V78.64c0,3.21-2.95,3.48-5.16,3.48h-2.11v3ZM157.2,89.6,165,70.26h-2.64c-7.48,11.07-9.69,11.86-14.17,11.86H142.6c-2.16,0-2.32-1.27-1-2.85L164.37,50V48.23H148.5c-2.79,0-4.48-.1-5.42-2.58h-2.27l-6.9,15.49h2.68c6.43-7.8,8.33-9.91,11.91-9.91h4.75c1.84,0,2.1,1.27,1.1,2.48l-23,29.62v1.79h18.29c3.21,0,5.53,1.16,5.32,4.48ZM110.35,54.71a3.14,3.14,0,0,1,3.37-3.48h1.58c4.69,0,8.49,1.53,8.49,6.91s-3.8,7.17-9.07,7.17h-4.37Zm6,13.6c7.43,0,14.17-2.69,14.17-10.22s-6.53-9.86-14.59-9.86H97.54v3H99c2.21,0,5.16.27,5.16,3.48V78.64c0,3.21-3,3.48-5.16,3.48H97.54v3h20v-3h-2.06c-2.21,0-5.16-.27-5.16-3.48V68.31ZM95.07,85.12v-3H93c-2.21,0-5.16-.27-5.16-3.48V54.71c0-3.21,3-3.48,5.16-3.48h2.11v-3H74.36v3h2.11c2.21,0,5.16.27,5.16,3.48V78.64c0,3.21-2.95,3.48-5.16,3.48H74.36v3Zm-25-13.07c-5,6.38-8.33,10.07-12.6,10.07H51.91a3.21,3.21,0,0,1-3.53-3.48V67.47h7.11c3.11,0,4.38,2.74,4.38,5.63v.74H62.5V57.93H59.87v.74c0,2.89-1.27,5.63-4.38,5.63H48.38V54.71a3.21,3.21,0,0,1,3.53-3.48h4.74c3.22,0,6.22,2.53,11.81,8.07h3L64,45.65H61.66c-.95,2.48-2.64,2.58-5.43,2.58H35.57v3h1.48c2.21,0,5.16.27,5.16,3.48V78.64c0,3.21-3,3.48-5.16,3.48H35.57v3H56.76c3.21,0,5.53,1.16,5.32,4.48h2.26l8.49-17.55Zm-37.94,0c-4.64,5.85-8.38,10.07-12.23,10.07H17a3.21,3.21,0,0,1-3.53-3.48V54.71c0-3.21,3-3.48,5.17-3.48h1.47v-3H.74v3H2.21c2.22,0,5.17.27,5.17,3.48V78.64c0,3.21-2.95,3.48-5.17,3.48H.74v3H18.92c3.21,0,5.53,1.16,5.32,4.48h2.27l8.38-17.55Z"/><path class="cls-1" d="M100.83,35.54a3.2,3.2,0,0,1-3.53-3.47V20.26h6.48c5.27,0,8.7,2.48,8.7,7.8,0,5.64-3.9,7.48-8,7.48ZM97.3,8.14c0-2.32,1-3.48,3.42-3.48h2.59c4.26,0,7.8,1.22,7.8,6.17s-3.64,6.43-8.33,6.43H97.3Zm14.07,10.44c3.74-1.16,6.53-3.38,6.53-7.86,0-6.58-6.16-9.06-13.8-9.06H84.49v3H86c2.21,0,5.16.27,5.16,3.48V32.07c0,3.21-2.95,3.47-5.16,3.47H84.49v3h21.24c6.8,0,13.54-2.74,13.54-10.49,0-5.69-3.63-8.27-7.9-9.48M62.31,39.5a19,19,0,0,0,9.38-2.64,8.84,8.84,0,0,1,3.74-1.32H78V23.79c0-2.79,2.37-3.21,4.38-3.21h.89V17.79H65v2.79h1.69c2.21,0,4.95.53,4.95,3.16V29c0,4.74-4.16,7.54-8.85,7.54-7,0-9.48-6.17-9.48-13.76V17.05c0-6,2.16-13,8-13,3.64,0,8.12,2.43,14.34,8.75h2.63L73.27.39H71.06l-.58,1a2,2,0,0,1-1.69,1,6.84,6.84,0,0,1-2-.47,16.44,16.44,0,0,0-5.22-.9c-9.12,0-16,8-16,19.24S52.29,39.5,62.31,39.5M42.65,4.66v-3H23.2v3h1.48c2.21,0,5.16.27,5.16,3.48v9.33H13.56V8.14c0-3.21,3-3.48,5.17-3.48H20.2v-3H.76v3H2.23c2.21,0,5.17.27,5.17,3.48V32.07c0,3.21-3,3.47-5.17,3.47H.76v3H20.2v-3H18.73c-2.22,0-5.17-.26-5.17-3.47V20.74H29.84V32.07c0,3.21-2.95,3.47-5.16,3.47H23.2v3H42.65v-3H41.17C39,35.54,36,35.28,36,32.07V8.14c0-3.21,3-3.48,5.16-3.48Z"/></svg>