<svg id="Ebene_1" data-name="Ebene 1" xmlns="http://www.w3.org/2000/svg" viewBox="0 0 262.71 113.99"><defs><style>.cls-1{fill:#858585;}</style></defs><path class="cls-1" d="M254.05,94.09h.88c1.41,0,2.13.41,2.13,1.46a3.67,3.67,0,0,1-.22,1.22L253.42,107l-3.73-10.25a4.36,4.36,0,0,1-.3-1.38c0-.85.58-1.32,2.23-1.32h.91V92.51h-9.27v1.58H244c1.35,0,1.63.74,2.07,2l.8,2.18-3.15,8.89-3.81-10.41a4.4,4.4,0,0,1-.33-1.38c0-.86.58-1.24,2-1.24H242V92.51h-9.52v1.58h.88c1.58,0,1.91.47,2.57,2.15l6.24,15.87h1.41l4.11-11.48L252,112.11h1.41l5.32-15.4c.67-1.88,1.36-2.62,3-2.62h.58V92.51h-8.28Zm-29.67,16.62c-3.18,0-5.41-2.6-5.41-7.71v-1.65c0-5.11,2.23-7.68,5.41-7.68s5.35,2.57,5.35,7.68V103c0,5.11-2.18,7.71-5.35,7.71m0,1.63c5.43,0,9.6-4.84,9.6-10.16S229.81,92,224.38,92s-9.67,4.83-9.67,10.16,4.23,10.16,9.67,10.16m-9.64-18.25V92.51H204.55v1.58h.78c1.16,0,2.7.14,2.7,1.82v4.89H199.5V95.91c0-1.68,1.55-1.82,2.71-1.82H203V92.51H192.79v1.58h.78c1.16,0,2.7.14,2.7,1.82v12.53c0,1.69-1.54,1.83-2.7,1.83h-.78v1.57H203v-1.57h-.77c-1.16,0-2.71-.14-2.71-1.83v-5.93H208v5.93c0,1.69-1.54,1.83-2.7,1.83h-.78v1.57h10.19v-1.57H214c-1.16,0-2.71-.14-2.71-1.83V95.91c0-1.68,1.55-1.82,2.71-1.82ZM180.46,114l.22-1.68c.08-.72.38-.94.85-.94a4.26,4.26,0,0,1,1.27.28,9.6,9.6,0,0,0,3.15.55c3.67,0,6.57-2.1,6.57-6.16a5.42,5.42,0,0,0-5-5.8l-3.72-.49c-2.13-.28-3.67-.94-3.67-2.71S181.75,94,183.88,94c2.37,0,4.55,1.57,6.54,4.56h1.33l-2.27-7.35h-1L188,92.24c-.17.47-.39.66-.8.66a4.42,4.42,0,0,1-1.11-.22,8.41,8.41,0,0,0-2.48-.39c-3.64,0-6.21,2.38-6.21,5.77,0,2.93,1.93,4.78,5.27,5.22l3.59.47c2.24.3,3.51,1.44,3.51,3.31,0,2-1.49,3.48-3.87,3.48-3.23,0-5.82-2.65-7.92-5.74h-1.46l2.73,9.19Zm-21.59-3.28c-3.18,0-5.41-2.6-5.41-7.71v-1.65c0-5.11,2.23-7.68,5.41-7.68s5.35,2.57,5.35,7.68V103c0,5.11-2.18,7.71-5.35,7.71m0,1.63c5.44,0,9.61-4.84,9.61-10.16S164.31,92,158.87,92s-9.66,4.83-9.66,10.16,4.22,10.16,9.66,10.16m-22.06-3.9c0,1.69-1.54,1.83-2.7,1.83h-1v1.57h10.57v-1.57h-1c-1.16,0-2.71-.14-2.71-1.83V94.09h1.63c1.3,0,2.87,2.29,4.58,4.91h1.55l-2.46-7.84h-1.21c-.5,1.3-.83,1.35-2.76,1.35h-5.88c-1.94,0-2.27-.05-2.76-1.35h-1.22L129.05,99h1.55c1.74-2.62,3.29-4.91,4.58-4.91h1.63Zm39.27-28.39c0,4.19-.94,7.42-5.64,7.42h-1a1.68,1.68,0,0,1-1.85-1.82V73.12a1.68,1.68,0,0,1,1.85-1.82h1c4.7,0,5.64,3.67,5.64,7.23Zm-5.61-10.33h-9.6V71.3h.77c1.16,0,2.7.14,2.7,1.82V85.65c0,1.69-1.54,1.82-2.7,1.82h-.77v1.58h9.6c6.05,0,9.61-4.09,9.61-9.75s-3.56-9.58-9.61-9.58m-9.6,12.48c-2.43,3.07-4.39,5.27-6.41,5.27h-1.52a1.68,1.68,0,0,1-1.85-1.82V73.12c0-1.68,1.55-1.82,2.71-1.82h.77V69.72H144.41V71.3h.78c1.15,0,2.7.14,2.7,1.82V85.65c0,1.69-1.55,1.82-2.7,1.82h-.78v1.58h9.53c1.68,0,2.9.61,2.78,2.34h1.19l4.39-9.19ZM129.7,73.12a1.58,1.58,0,0,1,1.74-1.82h1.27c2.43,0,4.36.83,4.36,3.53,0,2.54-1.71,3.7-4.36,3.7h-3Zm12.59,14.35c-1.77,0-2.49-.38-3.54-2l-3.45-5.49c3.07-.47,5.3-2.07,5.3-5.11,0-3.61-3.17-5.11-7.37-5.11H123V71.3h.77c1.16,0,2.71.14,2.71,1.82V85.65c0,1.69-1.55,1.82-2.71,1.82H123v1.58h10.16V87.47h-.75c-1.13,0-2.7,0-2.7-1.49V80.1h2.07l4.39,7.18a3.49,3.49,0,0,1,.55,1.77h6.13V87.47Zm-30,.45c-3.18,0-5.41-2.6-5.41-7.71V78.56c0-5.11,2.23-7.68,5.41-7.68s5.35,2.57,5.35,7.68v1.65c0,5.11-2.18,7.71-5.35,7.71m0,1.62c5.44,0,9.6-4.83,9.6-10.15s-4.16-10.16-9.6-10.16-9.66,4.83-9.66,10.16,4.22,10.15,9.66,10.15M95.25,71.3h.88c1.41,0,2.13.41,2.13,1.46A4,4,0,0,1,98,74L94.61,84.24,90.89,74a4.15,4.15,0,0,1-.31-1.38c0-.85.58-1.32,2.24-1.32h.91V69.72H84.45V71.3h.69c1.36,0,1.63.74,2.07,2l.8,2.18-3.14,8.89L81.06,73.92a4.14,4.14,0,0,1-.33-1.38c0-.86.58-1.24,2-1.24h.5V69.72H73.72V71.3h.88c1.57,0,1.9.47,2.57,2.15L83.4,89.32h1.41l4.12-11.48L93.2,89.32h1.41l5.33-15.4c.66-1.88,1.35-2.62,3-2.62h.58V69.72H95.25Zm159-22.79h.89c1.4,0,2.12.41,2.12,1.46a3.71,3.71,0,0,1-.22,1.22l-3.42,10.26-3.73-10.24a4.36,4.36,0,0,1-.3-1.38c0-.85.58-1.32,2.23-1.32h.91V46.93h-9.27v1.58h.69c1.35,0,1.63.74,2.07,2l.8,2.18-3.15,8.89-3.81-10.41a4.4,4.4,0,0,1-.33-1.38c0-.86.58-1.24,2-1.24h.49V46.93h-9.52v1.58h.88c1.58,0,1.91.47,2.57,2.15l6.24,15.87h1.41L248,55.05l4.28,11.48h1.41L259,51.13c.66-1.88,1.35-2.62,3-2.62h.58V46.93h-8.28ZM225.15,65.13c-3.18,0-5.41-2.6-5.41-7.71V55.77c0-5.11,2.23-7.68,5.41-7.68s5.35,2.57,5.35,7.68v1.65c0,5.11-2.18,7.71-5.35,7.71m0,1.62c5.44,0,9.61-4.83,9.61-10.15s-4.17-10.16-9.61-10.16-9.66,4.83-9.66,10.16,4.22,10.15,9.66,10.15M202.07,50.33a1.58,1.58,0,0,1,1.74-1.82h1.27c2.43,0,4.36.83,4.36,3.53,0,2.54-1.71,3.7-4.36,3.7h-3Zm12.59,14.35c-1.77,0-2.49-.38-3.53-2l-3.46-5.49c3.07-.47,5.3-2.07,5.3-5.11,0-3.62-3.17-5.11-7.37-5.11H195.36v1.58h.78c1.15,0,2.7.14,2.7,1.82V62.86c0,1.69-1.55,1.82-2.7,1.82h-.78v1.58h10.16V64.68h-.74c-1.14,0-2.71,0-2.71-1.49V57.31h2.07l4.39,7.18a3.49,3.49,0,0,1,.55,1.77h6.13V64.68Zm-30.09,2.07a9.9,9.9,0,0,0,4.91-1.38,4.77,4.77,0,0,1,2-.69h1.36V58.53c0-1.47,1.24-1.69,2.29-1.69h.47V55.38H186v1.46h.88c1.16,0,2.59.28,2.59,1.66v2.76c0,2.49-2.18,3.95-4.63,3.95-3.65,0-5-3.23-5-7.21V55c0-3.11,1.13-6.79,4.17-6.79,1.9,0,4.25,1.27,7.51,4.59h1.38l-2.6-6.52h-1.16l-.3.5a1,1,0,0,1-.89.5,3.77,3.77,0,0,1-1-.25,8.64,8.64,0,0,0-2.74-.47c-4.77,0-8.39,4.19-8.39,10.07s3.53,10.13,8.78,10.13m-25.7-1.62c-3.18,0-5.41-2.6-5.41-7.71V55.77c0-5.11,2.23-7.68,5.41-7.68s5.35,2.57,5.35,7.68v1.65c0,5.11-2.18,7.71-5.35,7.71m0,1.62c5.44,0,9.61-4.83,9.61-10.15s-4.17-10.16-9.61-10.16-9.66,4.83-9.66,10.16,4.22,10.15,9.66,10.15m-21.51-3.89c0,1.69-1.54,1.82-2.7,1.82h-1v1.58h10.58V64.68h-1c-1.16,0-2.71-.13-2.71-1.82V48.51h1.63c1.3,0,2.87,2.29,4.59,4.91h1.54l-2.46-7.84h-1.21c-.5,1.3-.83,1.35-2.76,1.35H136c-1.93,0-2.26,0-2.76-1.35h-1.22l-2.45,7.84h1.54c1.74-2.62,3.29-4.91,4.59-4.91h1.62Zm6.76-28.39c0,4.19-.94,7.42-5.63,7.42h-1a1.67,1.67,0,0,1-1.85-1.82V27.54a1.67,1.67,0,0,1,1.85-1.82h1c4.69,0,5.63,3.67,5.63,7.23Zm-5.6-10.33h-9.61v1.58h.77c1.16,0,2.71.13,2.71,1.82V40.07c0,1.69-1.55,1.82-2.71,1.82h-.77v1.58h9.61c6,0,9.6-4.09,9.6-9.75s-3.56-9.58-9.6-9.58M128,36.62c-2.62,3.34-4.36,5.27-6.6,5.27h-2.92a1.67,1.67,0,0,1-1.85-1.82V34.22h3.72c1.63,0,2.29,1.43,2.29,3v.39H124V29.22h-1.38v.39c0,1.52-.66,3-2.29,3H116.6v-5a1.67,1.67,0,0,1,1.85-1.82h2.48c1.68,0,3.26,1.32,6.18,4.22h1.55l-3.89-7.15h-1.22c-.49,1.3-1.38,1.35-2.84,1.35H109.89v1.58h.77c1.16,0,2.71.13,2.71,1.82V40.07c0,1.69-1.55,1.82-2.71,1.82h-.77v1.58H121c1.68,0,2.89.6,2.78,2.34H125l4.45-9.19Zm-19,0c-2.62,3.34-4.36,5.27-6.6,5.27H99.43a1.67,1.67,0,0,1-1.85-1.82V34.22h3.72c1.63,0,2.29,1.43,2.29,3v.39H105V29.22h-1.38v.39c0,1.52-.66,3-2.29,3H97.58v-5a1.67,1.67,0,0,1,1.85-1.82h2.48c1.68,0,3.26,1.32,6.18,4.22h1.55l-3.89-7.15h-1.22c-.49,1.3-1.38,1.35-2.84,1.35H90.87v1.58h.77c1.16,0,2.71.13,2.71,1.82V40.07c0,1.69-1.55,1.82-2.71,1.82h-.77v1.58H102c1.68,0,2.89.6,2.78,2.34h1.19l4.45-9.19Zm-30.42,9,.22-1.68c.08-.72.39-.94.86-.94a4.6,4.6,0,0,1,1.27.27,9.23,9.23,0,0,0,3.14.56c3.67,0,6.57-2.1,6.57-6.16a5.41,5.41,0,0,0-5-5.8l-3.73-.49c-2.12-.28-3.67-.94-3.67-2.71s1.66-3.09,3.78-3.09c2.38,0,4.56,1.57,6.54,4.55h1.33l-2.26-7.34h-1l-.42,1.08c-.16.47-.38.66-.8.66a4.44,4.44,0,0,1-1.1-.22,8.49,8.49,0,0,0-2.49-.39c-3.64,0-6.21,2.38-6.21,5.77,0,2.93,1.93,4.78,5.28,5.22l3.58.47c2.24.3,3.51,1.43,3.51,3.31,0,2-1.49,3.48-3.86,3.48-3.23,0-5.83-2.65-7.93-5.74H74.61l2.73,9.19ZM210,19.1c-1.27,0-2.12-.36-3.28-1.85l-6.19-8.06,5.72-4.8a4.52,4.52,0,0,1,3-1.46h.52V1.35H201.3V2.93h1c.8,0,1.22.35,1.22.88a1.74,1.74,0,0,1-.75,1.27L196,10.88V4.75c0-1.69,1.55-1.82,2.54-1.82h.36V1.35h-9.61V2.93H190c1.16,0,2.71.13,2.71,1.82V17.28c0,1.68-1.55,1.82-2.71,1.82h-.77v1.58h9.61V19.1h-.36c-1,0-2.54,0-2.54-1.82V12.86l2-1.65,4.81,6.18a1.7,1.7,0,0,1,.44,1c0,.44-.31.71-1,.71h-.85v1.58h9.14V19.1Zm-30.31.44c-3.17,0-5.41-2.59-5.41-7.7V10.19c0-5.11,2.24-7.68,5.41-7.68S185,5.08,185,10.19v1.65c0,5.11-2.18,7.7-5.36,7.7m0,1.63c5.44,0,9.61-4.83,9.61-10.16S185.12.86,179.68.86,170,5.69,170,11s4.22,10.16,9.66,10.16m-20.92-1.63c-3.18,0-5.41-2.59-5.41-7.7V10.19c0-5.11,2.23-7.68,5.41-7.68s5.35,2.57,5.35,7.68v1.65c0,5.11-2.18,7.7-5.35,7.7m0,1.63c5.44,0,9.6-4.83,9.6-10.16S164.2.86,158.76.86,149.1,5.69,149.1,11s4.22,10.16,9.66,10.16M138.05,19.1a1.68,1.68,0,0,1-1.85-1.82V11.1h3.4c2.76,0,4.55,1.29,4.55,4.08,0,3-2,3.92-4.19,3.92ZM136.2,4.75A1.58,1.58,0,0,1,138,2.93h1.35c2.24,0,4.09.63,4.09,3.23s-1.91,3.36-4.36,3.36H136.2Zm7.38,5.46c2-.6,3.42-1.76,3.42-4.11,0-3.45-3.23-4.75-7.23-4.75H129.5V2.93h.77c1.16,0,2.7.13,2.7,1.82V17.28c0,1.68-1.54,1.82-2.7,1.82h-.77v1.58h11.12c3.56,0,7.1-1.44,7.1-5.5,0-3-1.91-4.33-4.14-5M84.53,4.72,87,12H82ZM95.16,19.1c-1.66,0-2.18-.55-2.71-2L86.49.86H84.17L78.6,16.48c-.72,2-1.58,2.62-3.21,2.62h-.58v1.58h8.31V19.1h-.66c-2,0-2.65-.69-2.07-2.37l1.11-3.2h6.07l1.16,3.34c.61,1.79-.17,2.23-1.63,2.23h-1v1.58h9.55V19.1Zm-55.9,3.73.22-1.68c.09-.72.39-.94.86-.94a4.6,4.6,0,0,1,1.27.27,9.24,9.24,0,0,0,3.15.56c3.67,0,6.57-2.1,6.57-6.16a5.41,5.41,0,0,0-5-5.8l-3.72-.49c-2.13-.28-3.68-.94-3.68-2.71s1.66-3.09,3.79-3.09c2.37,0,4.55,1.57,6.54,4.55h1.32L48.29,0h-1l-.41,1.08c-.17.47-.39.66-.8.66a4.42,4.42,0,0,1-1.11-.22,8.1,8.1,0,0,0-2.48-.39c-3.65,0-6.21,2.38-6.21,5.77,0,2.93,1.93,4.78,5.27,5.22l3.59.47c2.23.3,3.5,1.43,3.5,3.31,0,2-1.49,3.48-3.86,3.48-3.23,0-5.83-2.65-7.92-5.74H35.34l2.74,9.19Zm-8.5-13C33.33,8.06,34.13,6,34.13,4.33c0-1.87-1.08-3.25-2.62-3.25a1.89,1.89,0,0,0-2,2c0,1.08.69,1.52,1.38,1.94S32,5.69,32,6.35s-.58,1.55-2,2.59Zm-12.5,7.48c0,1.68-1.55,1.82-2.71,1.82h-1v1.58H25.16V19.1h-1c-1.16,0-2.7-.14-2.7-1.82V2.93h1.62c1.3,0,2.88,2.29,4.59,4.91h1.54L26.79,0H25.57c-.5,1.3-.83,1.35-2.76,1.35H16.93C15,1.35,14.67,1.3,14.17,0H13L10.5,7.84H12c1.74-2.62,3.29-4.91,4.59-4.91h1.63Zm-7.57,3.4V19.1H9.59c-1.16,0-2.71-.14-2.71-1.82V4.75c0-1.69,1.55-1.82,2.71-1.82h1.1V1.35H-.16V2.93H1c1.16,0,2.7.13,2.7,1.82V17.28C3.65,19,2.11,19.1,1,19.1H-.16v1.58Z"/></svg>