<svg id="Ebene_1" data-name="Ebene 1" xmlns="http://www.w3.org/2000/svg" viewBox="0 0 262.71 113.99"><defs><style>.cls-1{fill:#858585;}</style></defs><path class="cls-1" d="M254.21,94.09h.88c1.41,0,2.13.41,2.13,1.46a3.94,3.94,0,0,1-.22,1.22L253.57,107l-3.72-10.25a4.15,4.15,0,0,1-.31-1.38c0-.85.58-1.32,2.24-1.32h.91V92.51h-9.28v1.58h.69c1.36,0,1.63.74,2.08,2l.8,2.18-3.15,8.89L240,96.71a4.4,4.4,0,0,1-.33-1.38c0-.86.58-1.24,2-1.24h.5V92.51h-9.52v1.58h.88c1.57,0,1.9.47,2.57,2.15l6.24,15.87h1.4l4.12-11.48,4.28,11.48h1.4l5.33-15.4c.66-1.88,1.35-2.62,3-2.62h.58V92.51h-8.28Zm-29.68,16.62c-3.17,0-5.41-2.6-5.41-7.71v-1.65c0-5.11,2.24-7.68,5.41-7.68s5.36,2.57,5.36,7.68V103c0,5.11-2.18,7.71-5.36,7.71m0,1.63c5.44,0,9.61-4.84,9.61-10.16S230,92,224.53,92s-9.66,4.83-9.66,10.16,4.22,10.16,9.66,10.16M214.9,94.09V92.51H204.71v1.58h.77c1.16,0,2.71.14,2.71,1.82v4.89h-8.53V95.91c0-1.68,1.55-1.82,2.71-1.82h.77V92.51H193v1.58h.77c1.16,0,2.71.14,2.71,1.82v12.53c0,1.69-1.55,1.83-2.71,1.83H193v1.57h10.19v-1.57h-.77c-1.16,0-2.71-.14-2.71-1.83v-5.93h8.53v5.93c0,1.69-1.55,1.83-2.71,1.83h-.77v1.57H214.9v-1.57h-.77c-1.16,0-2.71-.14-2.71-1.83V95.91c0-1.68,1.55-1.82,2.71-1.82ZM180.61,114l.22-1.68c.09-.72.39-.94.86-.94a4.32,4.32,0,0,1,1.27.28,9.51,9.51,0,0,0,3.15.55c3.67,0,6.57-2.1,6.57-6.16a5.42,5.42,0,0,0-5-5.8l-3.72-.49c-2.13-.28-3.68-.94-3.68-2.71S181.91,94,184,94c2.37,0,4.55,1.57,6.54,4.56h1.32l-2.26-7.35h-1l-.41,1.08c-.17.47-.39.66-.8.66a4.42,4.42,0,0,1-1.11-.22,8.41,8.41,0,0,0-2.48-.39c-3.65,0-6.21,2.38-6.21,5.77,0,2.93,1.93,4.78,5.27,5.22l3.59.47c2.23.3,3.5,1.44,3.5,3.31,0,2-1.49,3.48-3.86,3.48-3.23,0-5.83-2.65-7.92-5.74h-1.47l2.74,9.19ZM159,110.71c-3.18,0-5.42-2.6-5.42-7.71v-1.65c0-5.11,2.24-7.68,5.42-7.68s5.35,2.57,5.35,7.68V103c0,5.11-2.18,7.71-5.35,7.71m0,1.63c5.43,0,9.6-4.84,9.6-10.16S164.46,92,159,92s-9.67,4.83-9.67,10.16,4.23,10.16,9.67,10.16M137,108.44c0,1.69-1.55,1.83-2.71,1.83h-1v1.57h10.57v-1.57h-1c-1.16,0-2.7-.14-2.7-1.83V94.09h1.63c1.29,0,2.87,2.29,4.58,4.91H148l-2.46-7.84h-1.22c-.49,1.3-.82,1.35-2.76,1.35h-5.88c-1.93,0-2.26-.05-2.76-1.35h-1.21L129.21,99h1.55c1.74-2.62,3.28-4.91,4.58-4.91H137Z"/><path class="cls-1" d="M176.23,80.05c0,4.19-.94,7.42-5.63,7.42h-1a1.68,1.68,0,0,1-1.85-1.82V73.12a1.68,1.68,0,0,1,1.85-1.82h1c4.69,0,5.63,3.67,5.63,7.23Zm-5.6-10.33H161V71.3h.77c1.16,0,2.71.14,2.71,1.82V85.65c0,1.69-1.55,1.82-2.71,1.82H161v1.58h9.61c6,0,9.61-4.09,9.61-9.75s-3.57-9.58-9.61-9.58M161,82.2c-2.43,3.07-4.39,5.27-6.4,5.27H153.1a1.68,1.68,0,0,1-1.85-1.82V73.12c0-1.68,1.55-1.82,2.71-1.82h.77V69.72H144.57V71.3h.77c1.16,0,2.71.14,2.71,1.82V85.65c0,1.69-1.55,1.82-2.71,1.82h-.77v1.58h9.52c1.69,0,2.9.61,2.79,2.34h1.19l4.39-9.19Zm-31.16-9.08c0-1.19.58-1.82,1.73-1.82h1.27c2.43,0,4.37.83,4.37,3.53,0,2.54-1.72,3.7-4.37,3.7h-3Zm12.58,14.35c-1.76,0-2.48-.38-3.53-2l-3.45-5.49c3.06-.47,5.3-2.07,5.3-5.11,0-3.61-3.17-5.11-7.37-5.11H123.15V71.3h.77c1.16,0,2.71.14,2.71,1.82V85.65c0,1.69-1.55,1.82-2.71,1.82h-.77v1.58h10.16V87.47h-.75c-1.13,0-2.7,0-2.7-1.49V80.1h2.07l4.39,7.18a3.49,3.49,0,0,1,.55,1.77H143V87.47Zm-30,.45c-3.17,0-5.41-2.6-5.41-7.71V78.56c0-5.11,2.24-7.68,5.41-7.68s5.36,2.57,5.36,7.68v1.65c0,5.11-2.18,7.71-5.36,7.71m0,1.62c5.44,0,9.61-4.83,9.61-10.15s-4.17-10.16-9.61-10.16-9.66,4.83-9.66,10.16,4.23,10.15,9.66,10.15M95.4,71.3h.89c1.41,0,2.12.41,2.12,1.46A3.71,3.71,0,0,1,98.19,74L94.77,84.24,91,74a4.36,4.36,0,0,1-.3-1.38c0-.85.58-1.32,2.23-1.32h.92V69.72H84.61V71.3h.69c1.35,0,1.63.74,2.07,2l.8,2.18L85,84.33,81.21,73.92a4.4,4.4,0,0,1-.33-1.38c0-.86.58-1.24,2-1.24h.5V69.72H73.87V71.3h.89c1.57,0,1.9.47,2.56,2.15l6.24,15.87H85l4.11-11.48,4.28,11.48h1.41l5.33-15.4c.66-1.88,1.35-2.62,3-2.62h.58V69.72H95.4Z"/><path class="cls-1" d="M254.43,48.51h.88c1.41,0,2.13.41,2.13,1.46a4,4,0,0,1-.22,1.22l-3.43,10.26-3.72-10.24a4.15,4.15,0,0,1-.31-1.38c0-.85.58-1.32,2.24-1.32h.91V46.93h-9.27v1.58h.69c1.35,0,1.62.74,2.07,2l.8,2.18-3.15,8.89-3.81-10.41a4.4,4.4,0,0,1-.33-1.38c0-.86.58-1.24,2-1.24h.5V46.93H232.9v1.58h.88c1.57,0,1.9.47,2.57,2.15l6.24,15.87H244l4.12-11.48,4.28,11.48h1.4l5.33-15.4c.66-1.88,1.35-2.62,3-2.62h.58V46.93h-8.28ZM225.31,65.13c-3.18,0-5.41-2.6-5.41-7.71V55.77c0-5.11,2.23-7.68,5.41-7.68s5.35,2.57,5.35,7.68v1.65c0,5.11-2.18,7.71-5.35,7.71m0,1.62c5.43,0,9.6-4.83,9.6-10.15s-4.17-10.16-9.6-10.16-9.67,4.83-9.67,10.16,4.23,10.15,9.67,10.15M202.23,50.33A1.58,1.58,0,0,1,204,48.51h1.27c2.43,0,4.36.83,4.36,3.53,0,2.54-1.71,3.7-4.36,3.7h-3Zm12.59,14.35c-1.77,0-2.49-.38-3.54-2l-3.45-5.49c3.07-.47,5.3-2.07,5.3-5.11,0-3.62-3.17-5.11-7.37-5.11H195.52v1.58h.77c1.16,0,2.71.14,2.71,1.82V62.86c0,1.69-1.55,1.82-2.71,1.82h-.77v1.58h10.16V64.68h-.75c-1.13,0-2.7,0-2.7-1.49V57.31h2.07l4.39,7.18a3.49,3.49,0,0,1,.55,1.77h6.13V64.68Zm-30.09,2.07a9.9,9.9,0,0,0,4.91-1.38,4.73,4.73,0,0,1,2-.69H193V58.53c0-1.47,1.24-1.69,2.29-1.69h.47V55.38h-9.58v1.46H187c1.16,0,2.59.28,2.59,1.66v2.76c0,2.49-2.18,3.95-4.64,3.95-3.64,0-5-3.23-5-7.21V55c0-3.11,1.13-6.79,4.16-6.79,1.91,0,4.25,1.27,7.51,4.59h1.38l-2.59-6.52h-1.16l-.31.5a1,1,0,0,1-.88.5,3.91,3.91,0,0,1-1.05-.25,8.57,8.57,0,0,0-2.73-.47c-4.78,0-8.39,4.19-8.39,10.07s3.53,10.13,8.78,10.13M159,65.13c-3.18,0-5.42-2.6-5.42-7.71V55.77c0-5.11,2.24-7.68,5.42-7.68s5.35,2.57,5.35,7.68v1.65c0,5.11-2.18,7.71-5.35,7.71m0,1.62c5.43,0,9.6-4.83,9.6-10.15s-4.17-10.16-9.6-10.16-9.67,4.83-9.67,10.16,4.23,10.15,9.67,10.15m-21.51-3.89c0,1.69-1.55,1.82-2.7,1.82h-1v1.58h10.57V64.68h-1c-1.16,0-2.71-.13-2.71-1.82V48.51h1.63c1.3,0,2.87,2.29,4.58,4.91h1.55l-2.46-7.84h-1.21c-.5,1.3-.83,1.35-2.76,1.35H136.2c-1.94,0-2.27,0-2.76-1.35h-1.22l-2.46,7.84h1.55c1.74-2.62,3.28-4.91,4.58-4.91h1.63Z"/><path class="cls-1" d="M144.28,34.47c0,4.19-.94,7.42-5.64,7.42h-1a1.68,1.68,0,0,1-1.85-1.82V27.54a1.68,1.68,0,0,1,1.85-1.82h1c4.7,0,5.64,3.67,5.64,7.23Zm-5.61-10.33h-9.6v1.58h.77c1.16,0,2.7.13,2.7,1.82V40.07c0,1.69-1.54,1.82-2.7,1.82h-.77v1.58h9.6c6.05,0,9.61-4.09,9.61-9.75s-3.56-9.58-9.61-9.58M128.13,36.62c-2.63,3.34-4.36,5.27-6.6,5.27H118.6a1.68,1.68,0,0,1-1.85-1.82V34.22h3.73c1.63,0,2.29,1.43,2.29,3v.39h1.38V29.22h-1.38v.39c0,1.52-.66,3-2.29,3h-3.73v-5a1.68,1.68,0,0,1,1.85-1.82h2.49c1.68,0,3.25,1.32,6.18,4.22h1.55l-3.9-7.15h-1.21c-.5,1.3-1.38,1.35-2.84,1.35H110.05v1.58h.77c1.16,0,2.7.13,2.7,1.82V40.07c0,1.69-1.54,1.82-2.7,1.82h-.77v1.58h11.09c1.69,0,2.9.6,2.79,2.34h1.19l4.44-9.19Zm-19,0c-2.63,3.34-4.36,5.27-6.6,5.27H99.58a1.68,1.68,0,0,1-1.85-1.82V34.22h3.73c1.63,0,2.29,1.43,2.29,3v.39h1.38V29.22h-1.38v.39c0,1.52-.66,3-2.29,3H97.73v-5a1.68,1.68,0,0,1,1.85-1.82h2.49c1.68,0,3.25,1.32,6.18,4.22h1.55l-3.9-7.15h-1.21c-.5,1.3-1.38,1.35-2.84,1.35H91v1.58h.77c1.16,0,2.7.13,2.7,1.82V40.07c0,1.69-1.54,1.82-2.7,1.82H91v1.58h11.09c1.69,0,2.9.6,2.79,2.34h1.19l4.44-9.19Zm-30.42,9,.22-1.68c.08-.72.38-.94.85-.94a4.53,4.53,0,0,1,1.27.27,9.34,9.34,0,0,0,3.15.56c3.67,0,6.57-2.1,6.57-6.16a5.41,5.41,0,0,0-5-5.8L82,31.38c-2.13-.28-3.67-.94-3.67-2.71s1.65-3.09,3.78-3.09c2.37,0,4.55,1.57,6.54,4.55H90l-2.27-7.34h-1l-.41,1.08c-.17.47-.39.66-.8.66a4.42,4.42,0,0,1-1.11-.22,8.41,8.41,0,0,0-2.48-.39c-3.64,0-6.21,2.38-6.21,5.77,0,2.93,1.93,4.78,5.27,5.22l3.59.47c2.24.3,3.51,1.43,3.51,3.31,0,2-1.49,3.48-3.87,3.48-3.23,0-5.82-2.65-7.92-5.74H74.77l2.73,9.19Z"/><path class="cls-1" d="M210.15,19.1c-1.27,0-2.13-.36-3.29-1.85l-6.18-8.06,5.72-4.8a4.5,4.5,0,0,1,3-1.46h.53V1.35h-8.48V2.93h1c.8,0,1.21.35,1.21.88a1.76,1.76,0,0,1-.74,1.27l-6.79,5.8V4.75c0-1.69,1.54-1.82,2.54-1.82H199V1.35h-9.61V2.93h.77c1.16,0,2.71.13,2.71,1.82V17.28c0,1.68-1.55,1.82-2.71,1.82h-.77v1.58H199V19.1h-.36c-1,0-2.54,0-2.54-1.82V12.86l2-1.65,4.8,6.18a1.64,1.64,0,0,1,.44,1c0,.44-.3.71-1,.71h-.86v1.58h9.14V19.1Zm-30.31.44c-3.18,0-5.41-2.59-5.41-7.7V10.19c0-5.11,2.23-7.68,5.41-7.68s5.35,2.57,5.35,7.68v1.65c0,5.11-2.18,7.7-5.35,7.7m0,1.63c5.44,0,9.61-4.83,9.61-10.16S185.28.86,179.84.86,170.18,5.69,170.18,11s4.22,10.16,9.66,10.16m-20.93-1.63c-3.17,0-5.41-2.59-5.41-7.7V10.19c0-5.11,2.24-7.68,5.41-7.68s5.36,2.57,5.36,7.68v1.65c0,5.11-2.18,7.7-5.36,7.7m0,1.63c5.44,0,9.61-4.83,9.61-10.16S164.35.86,158.91.86,149.25,5.69,149.25,11s4.23,10.16,9.66,10.16m-20.7-2.07a1.68,1.68,0,0,1-1.85-1.82V11.1h3.4c2.76,0,4.55,1.29,4.55,4.08,0,3-2,3.92-4.19,3.92ZM136.36,4.75c0-1.22.55-1.82,1.8-1.82h1.35c2.23,0,4.08.63,4.08,3.23s-1.9,3.36-4.36,3.36h-2.87Zm7.37,5.46c2-.6,3.42-1.76,3.42-4.11,0-3.45-3.23-4.75-7.23-4.75H129.65V2.93h.78c1.16,0,2.7.13,2.7,1.82V17.28c0,1.68-1.54,1.82-2.7,1.82h-.78v1.58h11.13c3.56,0,7.09-1.44,7.09-5.5,0-3-1.9-4.33-4.14-5m-59-5.49L87.17,12h-5ZM95.32,19.1c-1.66,0-2.18-.55-2.71-2L86.65.86H84.33L78.75,16.48c-.71,2-1.57,2.62-3.2,2.62H75v1.58h8.31V19.1h-.66c-2,0-2.65-.69-2.07-2.37l1.1-3.2h6.08l1.15,3.34c.61,1.79-.16,2.23-1.62,2.23h-1v1.58h9.56V19.1Zm-55.9,3.73.22-1.68c.08-.72.39-.94.86-.94a4.6,4.6,0,0,1,1.27.27,9.23,9.23,0,0,0,3.14.56c3.68,0,6.57-2.1,6.57-6.16a5.41,5.41,0,0,0-5-5.8l-3.73-.49c-2.12-.28-3.67-.94-3.67-2.71s1.66-3.09,3.78-3.09c2.38,0,4.56,1.57,6.55,4.55h1.32L48.45,0H47.4L47,1.08c-.16.47-.38.66-.8.66a4.44,4.44,0,0,1-1.1-.22,8.17,8.17,0,0,0-2.49-.39c-3.64,0-6.21,2.38-6.21,5.77,0,2.93,1.94,4.78,5.28,5.22l3.59.47c2.23.3,3.5,1.43,3.5,3.31,0,2-1.49,3.48-3.86,3.48-3.23,0-5.83-2.65-7.93-5.74H35.5l2.73,9.19Zm-8.5-13C33.49,8.06,34.29,6,34.29,4.33c0-1.87-1.08-3.25-2.63-3.25a1.89,1.89,0,0,0-2,2c0,1.08.69,1.52,1.38,1.94s1.1.69,1.1,1.35-.58,1.55-2,2.59ZM18.41,17.28c0,1.68-1.54,1.82-2.7,1.82h-1v1.58H25.31V19.1h-1c-1.16,0-2.71-.14-2.71-1.82V2.93h1.63c1.3,0,2.87,2.29,4.58,4.91H29.4L26.94,0H25.73c-.5,1.3-.83,1.35-2.76,1.35H17.09c-1.93,0-2.27-.05-2.76-1.35H13.11L10.66,7.84H12.2c1.74-2.62,3.29-4.91,4.58-4.91h1.63Zm-7.56,3.4V19.1H9.74C8.59,19.1,7,19,7,17.28V4.75c0-1.69,1.55-1.82,2.7-1.82h1.11V1.35H0V2.93H1.1c1.16,0,2.71.13,2.71,1.82V17.28C3.81,19,2.26,19.1,1.1,19.1H0v1.58Z"/></svg>